<mxfile host="Electron" modified="2024-02-25T14:44:08.464Z" agent="Mozilla/5.0 (Windows NT 10.0; Win64; x64) AppleWebKit/537.36 (KHTML, like Gecko) draw.io/22.1.16 Chrome/120.0.6099.109 Electron/28.1.0 Safari/537.36" etag="rg55FakLRsiHXn3jX9te" version="22.1.16" type="device">
  <diagram id="C5RBs43oDa-KdzZeNtuy" name="Page-1">
    <mxGraphModel dx="1674" dy="836" grid="1" gridSize="10" guides="1" tooltips="1" connect="1" arrows="1" fold="1" page="1" pageScale="1" pageWidth="827" pageHeight="1169" math="0" shadow="0">
      <root>
        <mxCell id="WIyWlLk6GJQsqaUBKTNV-0" />
        <mxCell id="WIyWlLk6GJQsqaUBKTNV-1" parent="WIyWlLk6GJQsqaUBKTNV-0" />
        <mxCell id="NNwZ8-mP0xMXk7h3Y8-c-30" value="" style="ellipse;shape=cloud;whiteSpace=wrap;html=1;" parent="WIyWlLk6GJQsqaUBKTNV-1" vertex="1">
          <mxGeometry x="504" y="575.18" width="320" height="124.82" as="geometry" />
        </mxCell>
        <mxCell id="NNwZ8-mP0xMXk7h3Y8-c-13" value="" style="ellipse;shape=cloud;whiteSpace=wrap;html=1;" parent="WIyWlLk6GJQsqaUBKTNV-1" vertex="1">
          <mxGeometry x="590" y="278.59" width="220" height="75.41" as="geometry" />
        </mxCell>
        <mxCell id="1CRE_iQsh6xUmbvRWO65-19" style="edgeStyle=orthogonalEdgeStyle;rounded=0;orthogonalLoop=1;jettySize=auto;html=1;exitX=0.5;exitY=1;exitDx=0;exitDy=0;entryX=0.5;entryY=0;entryDx=0;entryDy=0;" parent="WIyWlLk6GJQsqaUBKTNV-1" source="WIyWlLk6GJQsqaUBKTNV-3" target="1CRE_iQsh6xUmbvRWO65-6" edge="1">
          <mxGeometry relative="1" as="geometry" />
        </mxCell>
        <mxCell id="WIyWlLk6GJQsqaUBKTNV-3" value="&lt;b style=&quot;font-size: 14px;&quot;&gt;firm&lt;sub style=&quot;border-color: var(--border-color);&quot;&gt;i&lt;/sub&gt;.gamma &lt;/b&gt;&lt;font style=&quot;font-size: 12px;&quot;&gt;(~2)&lt;/font&gt;&lt;br&gt;cost per unit of capital" style="rounded=1;whiteSpace=wrap;html=1;fontSize=12;glass=0;strokeWidth=1;shadow=0;" parent="WIyWlLk6GJQsqaUBKTNV-1" vertex="1">
          <mxGeometry x="250" y="120" width="120" height="40" as="geometry" />
        </mxCell>
        <mxCell id="1CRE_iQsh6xUmbvRWO65-24" value="" style="edgeStyle=orthogonalEdgeStyle;rounded=0;orthogonalLoop=1;jettySize=auto;html=1;exitX=0.492;exitY=0.986;exitDx=0;exitDy=0;exitPerimeter=0;" parent="WIyWlLk6GJQsqaUBKTNV-1" source="j5H0h56bUbIma8D8IlT1-16" target="1CRE_iQsh6xUmbvRWO65-10" edge="1">
          <mxGeometry relative="1" as="geometry">
            <mxPoint x="310" y="531" as="sourcePoint" />
          </mxGeometry>
        </mxCell>
        <mxCell id="1CRE_iQsh6xUmbvRWO65-66" value="yes" style="edgeStyle=orthogonalEdgeStyle;rounded=0;orthogonalLoop=1;jettySize=auto;html=1;exitX=1;exitY=0.5;exitDx=0;exitDy=0;" parent="WIyWlLk6GJQsqaUBKTNV-1" source="WIyWlLk6GJQsqaUBKTNV-6" target="1CRE_iQsh6xUmbvRWO65-65" edge="1">
          <mxGeometry relative="1" as="geometry" />
        </mxCell>
        <mxCell id="NNwZ8-mP0xMXk7h3Y8-c-17" style="edgeStyle=orthogonalEdgeStyle;rounded=0;orthogonalLoop=1;jettySize=auto;html=1;exitX=0.5;exitY=1;exitDx=0;exitDy=0;entryX=0.5;entryY=0;entryDx=0;entryDy=0;" parent="WIyWlLk6GJQsqaUBKTNV-1" source="WIyWlLk6GJQsqaUBKTNV-6" target="NNwZ8-mP0xMXk7h3Y8-c-15" edge="1">
          <mxGeometry relative="1" as="geometry" />
        </mxCell>
        <mxCell id="WIyWlLk6GJQsqaUBKTNV-6" value="demandL &amp;gt; offeredL?" style="rhombus;whiteSpace=wrap;html=1;shadow=0;fontFamily=Helvetica;fontSize=12;align=center;strokeWidth=1;spacing=6;spacingTop=-4;" parent="WIyWlLk6GJQsqaUBKTNV-1" vertex="1">
          <mxGeometry x="237" y="410" width="146" height="40" as="geometry" />
        </mxCell>
        <mxCell id="1CRE_iQsh6xUmbvRWO65-32" style="edgeStyle=orthogonalEdgeStyle;rounded=0;orthogonalLoop=1;jettySize=auto;html=1;entryX=0.5;entryY=0;entryDx=0;entryDy=0;exitX=0.367;exitY=0.848;exitDx=0;exitDy=0;exitPerimeter=0;" parent="WIyWlLk6GJQsqaUBKTNV-1" edge="1">
          <mxGeometry relative="1" as="geometry">
            <mxPoint x="153.02999999999997" y="308.8399999999999" as="sourcePoint" />
            <Array as="points">
              <mxPoint x="150" y="309" />
            </Array>
            <mxPoint x="150" y="961" as="targetPoint" />
          </mxGeometry>
        </mxCell>
        <mxCell id="1CRE_iQsh6xUmbvRWO65-20" style="edgeStyle=orthogonalEdgeStyle;rounded=0;orthogonalLoop=1;jettySize=auto;html=1;exitX=0.5;exitY=1;exitDx=0;exitDy=0;entryX=0.5;entryY=0;entryDx=0;entryDy=0;" parent="WIyWlLk6GJQsqaUBKTNV-1" source="1CRE_iQsh6xUmbvRWO65-6" target="1CRE_iQsh6xUmbvRWO65-7" edge="1">
          <mxGeometry relative="1" as="geometry" />
        </mxCell>
        <mxCell id="1CRE_iQsh6xUmbvRWO65-6" value="&lt;b style=&quot;font-size: 14px;&quot;&gt;firm&lt;sub style=&quot;border-color: var(--border-color);&quot;&gt;i&lt;/sub&gt;.desiredK&lt;br&gt;&lt;/b&gt;(eq 22)" style="rounded=1;whiteSpace=wrap;html=1;fontSize=12;glass=0;strokeWidth=1;shadow=0;" parent="WIyWlLk6GJQsqaUBKTNV-1" vertex="1">
          <mxGeometry x="250" y="180" width="120" height="40" as="geometry" />
        </mxCell>
        <mxCell id="1CRE_iQsh6xUmbvRWO65-21" style="edgeStyle=orthogonalEdgeStyle;rounded=0;orthogonalLoop=1;jettySize=auto;html=1;exitX=0.5;exitY=1;exitDx=0;exitDy=0;entryX=0.5;entryY=0;entryDx=0;entryDy=0;" parent="WIyWlLk6GJQsqaUBKTNV-1" source="1CRE_iQsh6xUmbvRWO65-7" target="1CRE_iQsh6xUmbvRWO65-8" edge="1">
          <mxGeometry relative="1" as="geometry" />
        </mxCell>
        <mxCell id="1CRE_iQsh6xUmbvRWO65-7" value="&lt;b style=&quot;font-size: 14px;&quot;&gt;firm&lt;sub style=&quot;border-color: var(--border-color);&quot;&gt;i&lt;/sub&gt;.I&lt;br&gt;&lt;/b&gt;(below eq 33)" style="rounded=1;whiteSpace=wrap;html=1;fontSize=12;glass=0;strokeWidth=1;shadow=0;" parent="WIyWlLk6GJQsqaUBKTNV-1" vertex="1">
          <mxGeometry x="250" y="240" width="120" height="40" as="geometry" />
        </mxCell>
        <mxCell id="1CRE_iQsh6xUmbvRWO65-22" style="edgeStyle=orthogonalEdgeStyle;rounded=0;orthogonalLoop=1;jettySize=auto;html=1;exitX=0.5;exitY=1;exitDx=0;exitDy=0;entryX=0.5;entryY=0;entryDx=0;entryDy=0;" parent="WIyWlLk6GJQsqaUBKTNV-1" source="1CRE_iQsh6xUmbvRWO65-8" target="1CRE_iQsh6xUmbvRWO65-9" edge="1">
          <mxGeometry relative="1" as="geometry" />
        </mxCell>
        <mxCell id="1CRE_iQsh6xUmbvRWO65-8" value="&lt;b style=&quot;font-size: 14px;&quot;&gt;firm&lt;sub style=&quot;border-color: var(--border-color);&quot;&gt;i&lt;/sub&gt;.demandL&lt;br&gt;&lt;/b&gt;(over eq 33)" style="rounded=1;whiteSpace=wrap;html=1;fontSize=12;glass=0;strokeWidth=1;shadow=0;" parent="WIyWlLk6GJQsqaUBKTNV-1" vertex="1">
          <mxGeometry x="250" y="300" width="120" height="40" as="geometry" />
        </mxCell>
        <mxCell id="1CRE_iQsh6xUmbvRWO65-23" style="edgeStyle=orthogonalEdgeStyle;rounded=0;orthogonalLoop=1;jettySize=auto;html=1;exitX=0.5;exitY=1;exitDx=0;exitDy=0;entryX=0.5;entryY=0;entryDx=0;entryDy=0;" parent="WIyWlLk6GJQsqaUBKTNV-1" source="1CRE_iQsh6xUmbvRWO65-9" target="WIyWlLk6GJQsqaUBKTNV-6" edge="1">
          <mxGeometry relative="1" as="geometry" />
        </mxCell>
        <mxCell id="1CRE_iQsh6xUmbvRWO65-9" value="&lt;b style=&quot;font-size: 14px;&quot;&gt;firm&lt;sub style=&quot;border-color: var(--border-color);&quot;&gt;i&lt;/sub&gt;.offeredL&lt;br&gt;&lt;/b&gt;(other paper)" style="rounded=1;whiteSpace=wrap;html=1;fontSize=12;glass=0;strokeWidth=1;shadow=0;" parent="WIyWlLk6GJQsqaUBKTNV-1" vertex="1">
          <mxGeometry x="250" y="352" width="120" height="40" as="geometry" />
        </mxCell>
        <mxCell id="1CRE_iQsh6xUmbvRWO65-25" style="edgeStyle=orthogonalEdgeStyle;rounded=0;orthogonalLoop=1;jettySize=auto;html=1;entryX=0.5;entryY=0;entryDx=0;entryDy=0;" parent="WIyWlLk6GJQsqaUBKTNV-1" source="1CRE_iQsh6xUmbvRWO65-10" target="1CRE_iQsh6xUmbvRWO65-11" edge="1">
          <mxGeometry relative="1" as="geometry" />
        </mxCell>
        <mxCell id="1CRE_iQsh6xUmbvRWO65-10" value="&lt;b style=&quot;font-size: 14px;&quot;&gt;firm&lt;sub style=&quot;border-color: var(--border-color);&quot;&gt;i&lt;/sub&gt;.r&lt;br&gt;&lt;/b&gt;(eq 33)" style="rounded=1;whiteSpace=wrap;html=1;fontSize=12;glass=0;strokeWidth=1;shadow=0;" parent="WIyWlLk6GJQsqaUBKTNV-1" vertex="1">
          <mxGeometry x="250" y="590" width="120" height="40" as="geometry" />
        </mxCell>
        <mxCell id="1CRE_iQsh6xUmbvRWO65-11" value="&lt;b style=&quot;font-size: 14px;&quot;&gt;firm&lt;sub style=&quot;border-color: var(--border-color);&quot;&gt;i&lt;/sub&gt;.c&lt;br&gt;&lt;/b&gt;(eq 2)" style="rounded=1;whiteSpace=wrap;html=1;fontSize=12;glass=0;strokeWidth=1;shadow=0;" parent="WIyWlLk6GJQsqaUBKTNV-1" vertex="1">
          <mxGeometry x="250" y="645" width="120" height="40" as="geometry" />
        </mxCell>
        <mxCell id="1CRE_iQsh6xUmbvRWO65-27" style="edgeStyle=orthogonalEdgeStyle;rounded=0;orthogonalLoop=1;jettySize=auto;html=1;exitX=0.5;exitY=1;exitDx=0;exitDy=0;entryX=0.5;entryY=0;entryDx=0;entryDy=0;" parent="WIyWlLk6GJQsqaUBKTNV-1" source="1CRE_iQsh6xUmbvRWO65-12" target="1CRE_iQsh6xUmbvRWO65-13" edge="1">
          <mxGeometry relative="1" as="geometry" />
        </mxCell>
        <mxCell id="1CRE_iQsh6xUmbvRWO65-12" value="&lt;b style=&quot;font-size: 14px;&quot;&gt;firm&lt;sub style=&quot;border-color: var(--border-color);&quot;&gt;i&lt;/sub&gt;.pi&lt;br&gt;&lt;/b&gt;(eq 24)" style="rounded=1;whiteSpace=wrap;html=1;fontSize=12;glass=0;strokeWidth=1;shadow=0;" parent="WIyWlLk6GJQsqaUBKTNV-1" vertex="1">
          <mxGeometry x="250" y="699" width="120" height="40" as="geometry" />
        </mxCell>
        <mxCell id="1CRE_iQsh6xUmbvRWO65-13" value="&lt;b style=&quot;font-size: 14px;&quot;&gt;firm&lt;sub style=&quot;border-color: var(--border-color);&quot;&gt;i&lt;/sub&gt;.A&lt;br&gt;&lt;/b&gt;net worth&amp;nbsp;" style="rounded=1;whiteSpace=wrap;html=1;fontSize=12;glass=0;strokeWidth=1;shadow=0;" parent="WIyWlLk6GJQsqaUBKTNV-1" vertex="1">
          <mxGeometry x="250" y="759" width="120" height="40" as="geometry" />
        </mxCell>
        <mxCell id="1CRE_iQsh6xUmbvRWO65-29" value="no" style="edgeStyle=orthogonalEdgeStyle;rounded=0;orthogonalLoop=1;jettySize=auto;html=1;exitX=0.5;exitY=1;exitDx=0;exitDy=0;" parent="WIyWlLk6GJQsqaUBKTNV-1" source="1CRE_iQsh6xUmbvRWO65-14" target="uXu_tWn5-189u8rHyBv3-1" edge="1">
          <mxGeometry relative="1" as="geometry">
            <mxPoint x="310" y="919" as="targetPoint" />
          </mxGeometry>
        </mxCell>
        <mxCell id="1CRE_iQsh6xUmbvRWO65-72" value="yes" style="edgeStyle=orthogonalEdgeStyle;rounded=0;orthogonalLoop=1;jettySize=auto;html=1;" parent="WIyWlLk6GJQsqaUBKTNV-1" source="1CRE_iQsh6xUmbvRWO65-14" target="1CRE_iQsh6xUmbvRWO65-71" edge="1">
          <mxGeometry relative="1" as="geometry">
            <mxPoint x="462.3699999999999" y="810" as="targetPoint" />
          </mxGeometry>
        </mxCell>
        <mxCell id="1CRE_iQsh6xUmbvRWO65-14" value="is bankrupted?&lt;br&gt;A &amp;lt; 0" style="rhombus;whiteSpace=wrap;html=1;shadow=0;fontFamily=Helvetica;fontSize=12;align=center;strokeWidth=1;spacing=6;spacingTop=-4;" parent="WIyWlLk6GJQsqaUBKTNV-1" vertex="1">
          <mxGeometry x="237" y="819" width="146" height="80" as="geometry" />
        </mxCell>
        <mxCell id="1CRE_iQsh6xUmbvRWO65-17" style="edgeStyle=orthogonalEdgeStyle;rounded=0;orthogonalLoop=1;jettySize=auto;html=1;entryX=0.627;entryY=0.681;entryDx=0;entryDy=0;entryPerimeter=0;exitX=0;exitY=0.5;exitDx=0;exitDy=0;" parent="WIyWlLk6GJQsqaUBKTNV-1" source="uXu_tWn5-189u8rHyBv3-1" target="1CRE_iQsh6xUmbvRWO65-36" edge="1">
          <mxGeometry relative="1" as="geometry">
            <mxPoint x="188.88" y="228.39999999999986" as="targetPoint" />
            <mxPoint x="250" y="918" as="sourcePoint" />
          </mxGeometry>
        </mxCell>
        <mxCell id="1CRE_iQsh6xUmbvRWO65-26" style="edgeStyle=orthogonalEdgeStyle;rounded=0;orthogonalLoop=1;jettySize=auto;html=1;exitX=0.5;exitY=1;exitDx=0;exitDy=0;entryX=0.5;entryY=0;entryDx=0;entryDy=0;" parent="WIyWlLk6GJQsqaUBKTNV-1" source="1CRE_iQsh6xUmbvRWO65-11" target="1CRE_iQsh6xUmbvRWO65-12" edge="1">
          <mxGeometry relative="1" as="geometry" />
        </mxCell>
        <mxCell id="1CRE_iQsh6xUmbvRWO65-49" style="edgeStyle=orthogonalEdgeStyle;rounded=0;orthogonalLoop=1;jettySize=auto;html=1;" parent="WIyWlLk6GJQsqaUBKTNV-1" source="1CRE_iQsh6xUmbvRWO65-31" target="1CRE_iQsh6xUmbvRWO65-45" edge="1">
          <mxGeometry relative="1" as="geometry">
            <mxPoint x="170" y="1020" as="targetPoint" />
          </mxGeometry>
        </mxCell>
        <mxCell id="1CRE_iQsh6xUmbvRWO65-31" value="&lt;b style=&quot;font-size: 14px;&quot;&gt;bank.profits&lt;/b&gt;&lt;br&gt;(34)" style="rounded=1;whiteSpace=wrap;html=1;fontSize=12;glass=0;strokeWidth=1;shadow=0;" parent="WIyWlLk6GJQsqaUBKTNV-1" vertex="1">
          <mxGeometry x="110" y="960" width="120" height="40" as="geometry" />
        </mxCell>
        <mxCell id="1CRE_iQsh6xUmbvRWO65-35" style="edgeStyle=orthogonalEdgeStyle;rounded=0;orthogonalLoop=1;jettySize=auto;html=1;entryX=-0.008;entryY=0.65;entryDx=0;entryDy=0;entryPerimeter=0;" parent="WIyWlLk6GJQsqaUBKTNV-1" source="1CRE_iQsh6xUmbvRWO65-34" target="1CRE_iQsh6xUmbvRWO65-36" edge="1">
          <mxGeometry relative="1" as="geometry">
            <mxPoint x="129.9999999999999" y="190" as="targetPoint" />
            <Array as="points">
              <mxPoint x="123" y="292" />
            </Array>
          </mxGeometry>
        </mxCell>
        <mxCell id="1CRE_iQsh6xUmbvRWO65-34" value="&lt;span style=&quot;font-size: 11.6667px;&quot;&gt;&lt;b&gt;Lst&lt;br&gt;bad_debt=0&lt;br&gt;&lt;/b&gt;failures = 0&lt;br&gt;Kt-1 y At-1&lt;br&gt;&lt;/span&gt;" style="rounded=1;whiteSpace=wrap;html=1;fontSize=12;glass=0;strokeWidth=1;shadow=0;" parent="WIyWlLk6GJQsqaUBKTNV-1" vertex="1">
          <mxGeometry x="63" y="150" width="120" height="70" as="geometry" />
        </mxCell>
        <mxCell id="1CRE_iQsh6xUmbvRWO65-38" style="edgeStyle=orthogonalEdgeStyle;rounded=0;orthogonalLoop=1;jettySize=auto;html=1;entryX=0;entryY=0.5;entryDx=0;entryDy=0;exitX=0.758;exitY=0.425;exitDx=0;exitDy=0;exitPerimeter=0;" parent="WIyWlLk6GJQsqaUBKTNV-1" source="1CRE_iQsh6xUmbvRWO65-36" target="WIyWlLk6GJQsqaUBKTNV-3" edge="1">
          <mxGeometry relative="1" as="geometry">
            <Array as="points">
              <mxPoint x="208" y="271" />
              <mxPoint x="230" y="271" />
              <mxPoint x="230" y="140" />
            </Array>
          </mxGeometry>
        </mxCell>
        <mxCell id="1CRE_iQsh6xUmbvRWO65-36" value="&lt;b style=&quot;border-color: var(--border-color); font-size: 14px;&quot;&gt;∀ firm&lt;sub style=&quot;border-color: var(--border-color);&quot;&gt;i&lt;/sub&gt;&lt;/b&gt;" style="triangle;whiteSpace=wrap;html=1;" parent="WIyWlLk6GJQsqaUBKTNV-1" vertex="1">
          <mxGeometry x="140" y="240" width="90" height="80" as="geometry" />
        </mxCell>
        <mxCell id="1CRE_iQsh6xUmbvRWO65-37" value="INI&amp;nbsp;" style="ellipse;whiteSpace=wrap;html=1;aspect=fixed;" parent="WIyWlLk6GJQsqaUBKTNV-1" vertex="1">
          <mxGeometry x="260" y="37.879999999999995" width="60" height="60" as="geometry" />
        </mxCell>
        <mxCell id="n1kMUdzWRj9xPfAeY8Ex-9" style="edgeStyle=orthogonalEdgeStyle;rounded=0;orthogonalLoop=1;jettySize=auto;html=1;entryX=0.5;entryY=0;entryDx=0;entryDy=0;exitX=0.5;exitY=1;exitDx=0;exitDy=0;" parent="WIyWlLk6GJQsqaUBKTNV-1" source="1CRE_iQsh6xUmbvRWO65-40" target="1CRE_iQsh6xUmbvRWO65-34" edge="1">
          <mxGeometry relative="1" as="geometry">
            <Array as="points">
              <mxPoint x="77" y="120" />
              <mxPoint x="123" y="120" />
            </Array>
          </mxGeometry>
        </mxCell>
        <mxCell id="1CRE_iQsh6xUmbvRWO65-40" value="&lt;b style=&quot;border-color: var(--border-color); font-size: 14px;&quot;&gt;∀ t=0..T&lt;/b&gt;" style="triangle;whiteSpace=wrap;html=1;" parent="WIyWlLk6GJQsqaUBKTNV-1" vertex="1">
          <mxGeometry x="32" y="44" width="90" height="80" as="geometry" />
        </mxCell>
        <mxCell id="1CRE_iQsh6xUmbvRWO65-45" value="&lt;b style=&quot;font-size: 14px;&quot;&gt;bank.A&lt;/b&gt;&lt;br&gt;(35)" style="rounded=1;whiteSpace=wrap;html=1;fontSize=12;glass=0;strokeWidth=1;shadow=0;" parent="WIyWlLk6GJQsqaUBKTNV-1" vertex="1">
          <mxGeometry x="110" y="1012" width="120" height="40" as="geometry" />
        </mxCell>
        <mxCell id="1CRE_iQsh6xUmbvRWO65-48" style="edgeStyle=orthogonalEdgeStyle;rounded=0;orthogonalLoop=1;jettySize=auto;html=1;exitX=0;exitY=0.5;exitDx=0;exitDy=0;" parent="WIyWlLk6GJQsqaUBKTNV-1" source="1CRE_iQsh6xUmbvRWO65-45" edge="1">
          <mxGeometry relative="1" as="geometry">
            <mxPoint x="40" y="128" as="targetPoint" />
            <mxPoint x="120" y="1040" as="sourcePoint" />
            <Array as="points">
              <mxPoint x="110" y="1040" />
              <mxPoint x="40" y="1040" />
            </Array>
          </mxGeometry>
        </mxCell>
        <mxCell id="1CRE_iQsh6xUmbvRWO65-52" value="" style="shape=image;verticalLabelPosition=bottom;labelBackgroundColor=default;verticalAlign=top;aspect=fixed;imageAspect=0;image=data:image/png,iVBORw0KGgoAAAANSUhEUgAAAZMAAABMCAYAAACoA1ovAAAAAXNSR0IArs4c6QAAAARnQU1BAACxjwv8YQUAAAAJcEhZcwAADsMAAA7DAcdvqGQAAB4GSURBVHhe7Z0LWFTV2sf/eOlio4VHS0gMRQRTQUEpCAvteL9gWunJL0k8fWon1ExQK4+UmnngZOAFMwcVrU9NSPQcBRRQvIAIym2Qm8RNRgVBZFSEYda3956NDsMAc0VG1u959sOatWeGmTX73f/1rsv7mhAGUCgUCoWiA534vxQKQw2KE45iX9BqfDioO0xMTPijH8Ys/jf2HbmI4jqm70EqkBl1CMJ/zsGgR88ZjKkrhThbXMO/F4VCaRVyCzGr3sPKmHK+wnihnglFBRKkBs7B8KX/ZcoWGOf3Ow5/+QZ6mMjPyiG4n/wj/jpyBdJHfY6A7d9g3shX0IU/S6FQWoOxodStmOG6ESYBMTjhaWvUvXvqmVBaRjAac6YPayIkUvEpbPLeivJ52xAV7g9PKiQUimZICxCxYy9OSsRIzy5lunDGDRUTSlNIGbISsuRluzfhaPm8vMwhF5J1c9cie/JunBEuhrPZs/w5CoWiHvWoiAvG1zuSuUfilALckHFFo4WKCaUJpEyE0xHXmJIAQyePhPUzDW7JQ5Ql7YbXrG0gy/di15duMOvSyGWhUCjqcD8V+zclYtisUfLH6XkokRi3mlAxoSghQ3V2Mk5XsmVLuNr3A+eXSG8j9cAazPbJgtuuvfh2qjUEVEcoFC2oQVHEPhyw+l+snucCU7ZKnIeCG7XcWWOFiglFifv488olcINcAie42fVCfVkigr0+wOIzQ7E5dANmv/4iqI5QKNpBKs5j+9qbmPePcbB5+RW8ytXmI7vEuGdNqJhQGlObhzMHL8jLdtZ4sehXeE1ZhjOvf4fQLR/D3rSr/ByFQtGCu0jbvx3/nbIAH77eA8+bD8AwAVtfipSCchjzQBcVE0ojyI1sJKRxY1wQPDiMryYtwI6r/fHOBAc6P0Kh6AgRn8HPQc/jC09n9GTMyaRXPwyxZNXE+Fd0UTGhKCBFWVo8Irgr2gULPaahH1uUHIVfcDwqNNqRxK6h34Lx3R3geTAXdXyt4amFOPk4wg77w8P8QwTn0E2UlHYCuYXYgM3IW7wccwZ1k9c93wcDh73CFauLy3CnJRu7fxmB4/tjkOdB5LObh9sKmRjJ4WE47O8B8wnByGnGfaJiQlGgCtmJyeD8EtNRcPubF77dMAMCpr+UtW0r9qfd5Z6lHgTSuxUoluQiXiTGA77WsNQgJ3g1frqchvAl3ggR89UUyhOHoCbzCALCh2PJB8PASwnjmpjitSEWXFGSno/SBy2IhFSC8uJy5MZn4XpLz9MnsiwEf7oFl3PDscQ7hPGfWoDdAU+hcDy8QgJcTNmrlAhmhJBr9YTIbp4gX9gKmDoBsV4USgrrZPyT1UBWTYpSM0hRtZSvUEBWTpJiMkg1/1C/PCDZwg+Yz/wBEWY/4OsolCeIrIgcW/w2cReKSC1fJechKTzgSQSs2gg8yYHCh3y9KqSkuiiDpBZVE1VWKKtIITGplfwjPVN/lQjHmxGMF5Js5r6gCuqZUHgI6gouI4abLzGF3Zhh6MtcHSYvv41F3tM57yR3x7+xPa6MeaaamAhgYTcEFoLOfAUPqYJo92p8GltBV4VROgD1qIjdCe+gOIQvGIJnHsWzY49n8dqcYPlciSQfeaX3uVeopjMEFkNgZyFoYjdEkobdy/+J2KonN4VPxYTCUwfxlfOI5q5qe0x2ssQzXH03WL+/BGvHsa74BWwLOILMGm1dbAJp2RUc8vWE+4LLGOc2GC/wZyiUp5a6bBwJjMOYY0VgPAp2NKjRUZ8txHjuicUQFVaq31njeIiy1N/hO3c2FkQOgZv9S3x920PFhCKHlCHtdKK8h2RqD/sB3HpFDpMeDpi75H1YM2XJ0Z3YdqqkhQueoObPcwhlJ+vYntdbW5BaK382EUdhvc8GBP0ahWvM24t2f4n5vpEQa6tNFEq7h+mkRe6CHzywbEJflZ54pz6WGG7Glm4iPe9G0/nFmj9xNpRdUMJ6MlMRmNqw5ot97x/hs2E7fj2aBYE54514LYJvZEv2aTiomFDkPChC6rkCriiY6Ay73ophG7vCbMLfscrdkiknI8h7J2Ir6uWnmmCC5/q/hYlv9EcXpXAsJmYT4Lt1KUbXMsbw7lJsCdmL3b4TYEbHuihPKeRWNPy8L8F9yVRYd23mQheYw2YYqyYSFIiKUK6sBM/1x+iJb+A11iSHvgUn6wZ/nrXLVdjq9Q5qYcGY1E8I2bsTvs2IlqGhYkJhIKjNTcLxDLbHY4m/TnJAX+Wrsas1Js6bJA/9kLUfgUeyW1ju+wCFohTGabfBZGfrxytXGOoLRYgtNoXrxBHoR0WE8jRDypGwayv22MyH5+jezd/gO/WC5XBzrtjcii653QBmk9/A690U36nB1hww0dH8iYhIA09ATGSQ5ETC32MY47INg4d/JHKun0fYaeNPDvNk0aVd7yL95HHI970L0Me0m4qLsiv6DB0JeVi6AoT/sBPHiprZw0FKkRxxGTB1w9jhnPzw1OBaQgzOYSTcR/VD42l5CZL9xzCfXXFysrVjIDzCGAujUAyGtnb1EOKYHfh64wUMHusAy+a8EmUKMpBZojzQ9RBFyecYu7HHh2OHoAdfyyErQsIfiYC9K0ZZKUb3BqTJ/hio0m5aODzCWl7+2wJtLyaSJOzw+gM9V58HIenYu+g1ZARux0UjD7/8xNGqXetxJ/MEhOuXYfG3EXxdBvb/eyMC9x1FAp81kdzJRNRBIX7cHg42ljBHbgA8PFYgYF8oojIrGo/RVl5DclwxBO4usDNVkAxyCxlnU5ju1Ug4WD+ek5EjgOOK2EeTkuodedg7U75Gn0IxCNrYVV0Rzv68Ch/NWINYSSXS/tgL4cFTyLyjNDTMZSwNxb4AX6zbLg9Fz24Q/uGbHyD8PUGe1ZTjDnKSMxgTccbbdn/h6+SQm5k4e0EMswkOsH62sWB1cVyBPJV208Kxdya46RttYN6gDaknVdGriZnyWuWqeBIaW8Y/oGhOe2pXGZHErSUWMCPjhVeZT6bA7Qiy1BTEdGkEuc1XGYanbZ/JQ1KaFELWCC+TOr6mQ1J3mQjXhJCk0pb2YuiTdmJXkjiyxoLprzXZ4yFlTOpLYgp7sjTiBl9nIAyzz4TtzZ7CQeE6eDiZy10j7jCHk8c6JUVVphMEfQdiWNQ3WLh6H5LFfMjlHm9iplsvebnD8rS0a8MYrhPee7Mvqi5fROZ99nMT3BPFI6zSChOdrfFC/hmczG1pTT2FQyZG4ubF+OQQ4D5pSNNslpIcxISF8eFjTDDQPxlS/tRTR5chmDT1LgJHf4rNiWK1gyLKPetfsN7jLXR/ZFcm6O40H+uFYY888Ka0D7t6NM/4nhOsqtJwLrMhEkUVROcvoFLgCOfBzyH/5GnktmWYFWV4UdGCOnLz2FJGFdkRDgGxXXaMXFdnd3R9CYlePV5+d2F6r24+QhKdXcWfNGLqSkjcjq/IwoVfkR1xJTr0II29Xa+TYwttCSxXk8Nxe8j3+0WMn8BSRZL8xjGfbTz519FQsvH74+p9L614SjwT7jedQtxWR5FSFb3B+uw9xNNnJwkV+hA37ncHsfJLMh7vRSubqSfVV/eQeWbjyeroksaebyvIbh4jixjPmLMRW29y7HoNf6YFnrhdScmtY15EABfyzeHjZOf3B0nWA95uai4RP3sBwYgN5GhEIPn+P4WG++3V8Ex0EJMGg2UbeQoJSNEkMAbrtocSv3lD+ddrfmG0L2TkXvz3ZCj3XZhDMIsEZUj4c5pi7O1aRVICZjAXvz2Z7RdLSh8JRgW55DedqbcgbssOEJGqECs6ww9LNPwODUcLBtB+qWTEdwqB248kqbq1D19EQudZcd/VeMREF5thBCXpR0ZApxC/JPXDh9RnC8l47v+ZEpeAK4y1qMuTtCumnVICyTiBgFjP3kzOlCoIYHUC8RtjwbTdOLLsQDqpNkjfrIxE+zjy37vhUDGEzaC9mMhKyLFFfOPa+pK4Km2aVj4W7OPWsuIZA7JbsWTj2nBSWHubuWnOJK4aXawK0HY1MqqZm74bgZUfSdLbXVzTmyX/GZhrxpg8E91shr/JqSW2LIoevytZE1fO12sCtauW0H41l8ImN1M3R9h0V++tZDmRCH8UFvwZmDnOxddrPoGZkedANunthlW+09Gva084zJyBV7JKWg4n3Ry0XSnsCqIVfjg9fiamj3hy4TEMjW420wtuCz7D+NN++OpQjhrzJxLkp6byEbEd4WTzIlfbGtSu1EdLMVHc5GaFiW5D0FvNZdTAdWxfuBZ7k/kJNJkYSafSYLN8Bpx6aK9t7YlOfQZixNUM5GscJpq2K0WGu4lH8ONpYPxsFwzsID+dNjbTaaALZo8Hor4Jwem7rdzYawuQeDyVKzaN8NAS1K7URcvWqMONrBSkcWVbvGnbwu7OJryKz4IWYWjGT3iXXVXR2RORNv/Eb8udoLzzwGhhE96Yl6CwXNOUULRdOzyyHBzetAdiuGK2q6W2Bmp8aGMznfrCfpwNID6GX08Vt+idPM4gagq7N23QR23DonalLtpdq4pBARvFimmdToMmwN22Pxw9NiGWm7OJxCYPJ5g9TVbDJrx5/RYu52mSTIqBtmuHR5Z3AQejxIDZQFj2kcdt7hBoZTPPwXwAIybIQHB4Mm7KK1WgmEFUMSJ261C7Uh/tmqT6GhJPs+P6AthOccKg59XvP3cISDXKr5fgXEYJ+JXp6kHbtYMjg6QkD+lssVtPvNitA92xtLKZLuj92kBYscWTSbja7FCXQgZRW1c4D+rO1VL0ixZXK0Htn6mIzmJl3hJurrYwbRf3PG1iOzV3LEKYWNutX1LcitoG76B4XL2qyYRie21XSttxH7mX4+Wxkd4aAHN1h/WNHm1thrmBde8pFxNxHgpuNCNDtcW4Ei3iiqZub2CoYogfit7QQkweoCA5QT6uLxgOl9d7PdFIlY/pipcd5sLPz08Px19hpeYqKmVIZQJ2bfoNWUy58ly6BhOK7bVdKW1HJQrTO17gSu1thhWTl9CHK+Uju4Qbx1JCMYOoJd5xsUEvalgGwYRdH8yX1YP8iYNzx2HO/10DXAKREvs57Pl8FZS7SA30gOvSI8CURZjfWYpRm7fi4wHP8udboI3blfXAOjJqX/ZsYqKIKyhrdna3BvnhG+F90gF+ge4Y0GwfpCt6jxiL0f1bmgcrRpjHGMwKYa6BeaEoVTvoHuuVT8NI79Ow8ktC1grHpmFXWoRNaHYeEVdutTiJ3Rqdeo/AxNH98Rz/WD10sBkWcRg8zGchhPFP5oXGqgj8WYuig4sxhEuNOwUBKQewxN5wU+cd2q5YMdGExyEJBGTo+gvkHl+vMfeSScA4S2I9/wC5VmuosBptiYzUZguJu4BpG8EMEpBSQlICPiKLjpUwZ1pHb+1K0S+loWQee7fV+bAi80KL+Ddtjsc72Zk7Iynla1tH102LdczXXKjwWbU8NPrMLLrZDMej36eZ9lXcBDz0exJ/72m417RPNBzLIXiQn45z3EyWJVzt+6FxBH1lCKS3S3GjRkV/RypBeXE5cuOzcF3j/RjtkLo8hP2wFeESC4xZ/SU+tjND/6GWuHguC5Wtfj09titFv5jNxF5uFU9zRzWYGzlzL/NDUp2q8w1Hew6X34X5mjtUfGYND03Dl+tkM8q8hD4vqbAaxU3ArsMwoLVFLdIKlNy4z1gYRVM0FJN7yE08jwy2KHCCm11r+yCqIfptN+JuqZjM7vEWfKISkBr1JVybbP6pR2XyOaRptMP0IYpjdsHf318Px2GkavS/2VzMQViz+wpg+xFW/v1NmJp0QveBdrCNSEROq2Kpx3ZlIbeRHCuSLzGmGBGmeG1YR8nPoqvNKDMANn2Vh6803QRMcF90GD/FNbPImNpVyzA9CvWpzyEhMyzZX5nAJZCkPGzJZZS7sDM+OkAKNfIspaQ6Yw/5ZIQviZNo8sLHrr7ux0ISWqr+YIHs9imy0lbAvM6RLArNfzzMwLXXJLI+viG+kpTcKasgtfyjR+izXWV3SIbwUzJiTRzRNtQkRRP0GZtLIVClRu9nfLG5dLYZnrokP2LFtpfZahLdJI5dDbkW8j+EkRjm/6gRNLVWRIQzFpMDhSoihFG7ahWNPBNSno0LZ+T7IIZOHgnrZieICaS3zsDv883ARIem+cSbQ3oLqYfWYa7754gcNxr2L6j7QhZtMvU1d+zATDM1pzBJBZKDt2BblgQC98/wxTTLx5OfnV7FG9N64sCRZFQw7ysVx2DzxhiIWbNXQD/typwru4JDvp5wX3AZ49wGQ/0tj5T2AZ8/gy1ey0Nh2VOamUQPNiNHirLCPHn2z2ED0VegdDsj5ci8kCL3JFrbBCwVI85vNVbAGaP6Km5ppHalLhqICeOWnjuOg9y4PvCwpKTpmD2pwZ2SLCQc24LPp36Er+PtMO2NVxv/E3Z1TKg8kY+JyVQEpvJOIylB5PqvsSHoNxy91h3mIiG85m9EpFjTkCRtCeMWp/2Kr74Nh0TgjrXfzIB1o1zPz6O/2zSMCvscsz6YgjcHzcRvsheU5kP0065EHIX1PhsQ9GsUrjFdMdHuLzHfN7IZI6S0V+TxptiZh2zklzaXtEkJSSZi/5vNFe9fLcTNdj2Vpg+baaAGpfns9zZTGceMiC8i7CA3eMwYlhhFTeZCZKi5cx05CeEI/PxDTPk6DW9Pc4SFwvtQu9IApifeCjJSWxRPDgX5kClWrFvK/R5qHQJ3IclWtVKrIQ1lk9UVt0ncGmfmtXNJSL4aiWueNKxb7M4OTwmI7cpT5LbK0akaUnpmG1k0xpZYTd9Eoh/lIzBgu7qHkHyVn4Wif/Q5zMXSMNSlOmdEI+qSiJ9V0+uDOzReWdVG6GQzSjQkbFIe4qotIvGHthGfKbZN26WlQ/AREWarWEdJ7Uot1BAT/SMVBRFX5scz84kmjXKWSdNJkKspgWsQERkid9JTjrxdTYlrUDrRvfkekKL4cBKyfRX5wFpR7CyI2yJ/EvJHAiliBU12m4giD5Jda2YT60fPsSVTfHaRuKKnIf96a+hbTBiqLxI/mjOjVeTJrtQQXR3Rr121hJTcjv6GjFC+LxoJT0BMakh+yFzmhtM0Cb784hAQe79LzLMomtGQoXEc8UvS56VYTVICpvAiYUHG+SWQqia9Mxm5l+RPnJnnCEZ9ToSXbhjFJLB+MICYPEqO5Uh8osv4OkpjNMlEqQuGsisVcHvvLIy2E6HBnIm+uIOc5AzGy3XG23Z/4etYpLiZcQkXYIMJDpZQc/8rpQFyCxlnUwCzkXCwNtAOX8FozJk+DD2UJ/7Fp7DJeyvK521DVLg/PEe+ouEObGOGD+PzhQNe1ps1dYLAcT78/frgX+v2IZkmYVJCBknybqzwBvz858NReeJdn7SFXXHUoCgiBFtPFgNGmnir7cXkXg7Oh6UCLqMw9BXFW85tpMXFQ2LqhrHDTfk6itpUXkVceC5MP3wHw/WZtIeUISuBjZrEYPcmHC0Vp0LlQrJu7lpkT96NM8LFcDbraN2AZ2Ex9u9Y8Y+xjSZudeclOC7/GdHOEZj2j33IooLyCJk4Gt+viIZz9M9Y7mjgTJSGsislSMV5bP9aiFz2QUtBK9sxbS4m9YUixBabwvU9J1hVpeFcJp+/gBcZwcRRGPxCAU6ezEN7XsfVviC4J4pHWKUVJjpb44X8MziZe58/pxukTITTEeziS+Vlyw9RlrQbXrO2gSzfi11fusGsSyOXhaIrnV7F2PV7cGR4DKb+IwiJYuO7weiXWogTt2H+6P3ovekXrB+rtFJU7xjOrhpzF2n7f0HisHfhyD1uLmhl+6aNxaQeFfmZSMFguPUuRvCOLPQewOYWIHiYdRFHiwWwHtEVVzcfQ+0QC3SVv4jSKtXIungBxbDCiG4p2HzwPob0bzkgi3rIUJ2djNPKYV6kt5F6YA1m+2TBbddefDvVGgKqI4ahkxmcvvgFZ5f0wH9OiPCU7jxRD6kIJ/7TA0vO/oIvnMza4OZlKLtShPHui05hx4FX8cXqjzGKG5QpRUpBuU5BN58EbSwmnfCChTWcBWk4+Hs2bD5xh81z7F2IoI50Rk+BBLnHE3Bn+nxMNqezJupTz7Tg84zvcBXHY+ow3Ws8zPXiJdzHn1cucaHB5WFeeqG+LBHBXh9g8Zmh2By6AbNff5GGyjc4z8DM8WN85zmiA81FqaDLCHh+9zEczdoqA6Wh7EoBUoa47TtQOs8D42zM0fdVdl5GjPTsUqML26J5CHpKx6E2BYFjxmLpBcY1cdmIE5teRvjyXbj/8b/ww+K36LAWhaITBPdTt2LG/9zCqjO+GGta9DgNxXghsk94YlCbT0RojxF9VEpbQ25kI4FLKsQ4Jg8O46tJC7Djan+8M8GBCgmFoiukBDE/H0a3L/6G0T07y/PgD+EDfRrhii4qJpRmkKIsLR4RnK/tgoUe09CPLUqOwi84HhXUn6VQdKAeFbE7sTrvfXw7ZzA/P9wN5gMHgFuAXH0TZXeMa4aMigmlGaqQnZgMzi8xHQW3v3nh2w0zmAtdgqxtW7E/jV+F1x6QiZEcHobD/h4wnxCMHLqKltLeqRHhUEAcRi+ZAbtuDV5+V/R6bSAs2aIkH3mlhlg5ph4ycTLCw36Dv8dITAjOUmsxABUTimpqi3ElWsQVBe844vVePWE3ZyE+tWX6TZJT2LrjFIqk7cA9kWUh+NMtuJwbjiXeIRDz1RRK+6UO4lN7EGDigWUT+iosYDHB8+YDMIxzTYohKqzEk7AwWc5efPrTeeSy6ahDSvlaNeD2wVMojVBIpwpT4hJwhcgzPNwj2cKP+PwQLmRl9E3mmeojq0ghMakNeSr0TEPQPxrPitLOeZzLhdOKZg510ndLSUXSWZJqoHAymsY+o54JRQVMz+nKeURz8yX2mOxkCflizG6wfn8J1o5jJwkvYFvAEWTWsNd+6xBJGnYv/ydiq+gYFKUjcx+5R3YjfMxvKJUp5lDij/qrYDpFzPMkKBAVobxZ86qHRLQfyz+NRpVJ+1gMQ8WE0hRShrTTifJ17qb2sB/A+d0cJj0cMHfJ+7BmypKjO7HtVAnXlWqehyhL/R2+c2djQeQQuNkbOPwFhdKOIeJo/OQHeC97F2aqNKBTL1gON+eKkvR8lKpKX6xTEkHDQcWE0pQHRUg9x2Z+ZJztic6w6624Va4rzCb8Havc2WnCZAR570RsRb38VBPYPN8/wmfDdvx6NAsCc8Y78VoE38jWBIhCeQohpYjy+wGx7vMxw7obX6mMAH1tBsiLBXkoLFcKKtWOkwhSMaEoQVCbm4TjGaxfYom/TnJomna5qzUmzpsELvJD1n4EHsluJo4aKzyrsNXrHdTCAu8u/Qkhe3fCt9GkI4XSEahHZcKv2LTHEt6ezujZrAE8gz6WA8EOdKlc0WXSFxN8N8FrdC/mwVgs3RKMvbtXY4LZkw8+RcWEosRdpJ88jgtcWYA+pt1U3Pi7os/QkRjFlQsQ/sNOHCtqLsXsAxSKUlAMB0x0NKciQumAyHPZ//T1FsQOVo683RIFuJRZ2rSjVl8KUWwW4OoKx37tJ+wUFRMKTz3uZJ6AcP0yLP42gq/LwP5/b0TgvqNIKJaLBbmTiaiDQvy4PRxsLGGO3AB4eKxAwL5QRGVWNB7CkhUh4Y9EwN4Vo6yUjEiaDP+BJjAx0eRYhDBxhw53SDEqalB8dhdWfLQA38UWA2nHsFt4qKmdcPYXjdB9m7Fy3X5+iTvbUfsO64Rhj+yPRXYtEX+cq4O9+0hYdeYreaTJ/hio0m5aODzC9LKknsbmohgUIg6D56BZiPwsGlmbxqIHX6932P0mk8ZiAdYbXUwjCkV9pBCHeWHQrEv4LDoCm8ayw12GQZYTjEk23wDCGJzwtG3V86AmRzEg9ahMu4BwiT0+HDvEcEJCoXQY2m8SQSomFANSBdH5C6gUOMJ58HPIP3kauXXUEaZQtKYdJxGkYkIxHA/zcfFoOmBthW5XQ3CwdgD6d6VT8BSKdrTvJIJUTCiGo64e6Mm44rmnEXNnDLwm9zNAcqdyxKwcCZPOg7EgSgxELYBNZ3O1g9NRKMZDGyURvBuDleYm6GyzAFEQMyY1GJ1NPkRwTnMrNuXQCXgKhUKh6Az1TCgUCoWiM1RMKBQKhaIzVEwoFAqFojNUTCgUCoWiM1RMKBQKhaIzVEwoFAqFojNUTCgUCoWiM1RMKBQKhaIzVEwoFAqFojNUTCgUCoWiM1RMKBQKhaIjwP8DWwplX6vaa0kAAAAASUVORK5CYII=;" parent="WIyWlLk6GJQsqaUBKTNV-1" vertex="1">
          <mxGeometry x="442" y="352" width="243" height="45.83" as="geometry" />
        </mxCell>
        <mxCell id="1CRE_iQsh6xUmbvRWO65-58" value="" style="shape=image;verticalLabelPosition=bottom;labelBackgroundColor=default;verticalAlign=top;aspect=fixed;imageAspect=0;image=data:image/png,iVBORw0KGgoAAAANSUhEUgAAAGIAAAAyCAYAAACnKw75AAAAAXNSR0IArs4c6QAAAARnQU1BAACxjwv8YQUAAAAJcEhZcwAADsMAAA7DAcdvqGQAAAikSURBVHhe7ZoLUFNnFsf/KWoAEW0rRVxFFIko1Ky10HZF6wORQdkqukPr7nYXO25l3cfodH0t7lhfsyhu6xPRopbiDJYFSn0AuiBGKtpGSgygAQURSJBHBBNiwCRnb8KlpWnQoFhSuL+ZDPc79ybMfP/7nXO+8x0eMYCj13mO/cvRy3BC2AicEDYCJ4SNwAlhI3BC2AicECZaUS/+FKtmC8DjDcH4t3YgR9HK3iNoi49j19la5urZwQlhnGhZEtZsLYH36k/wTX4qtvpfQ9SWs1AYZ57qcemkFjMDXMFr/8Kzwbih69foS+n4hmMkVelYA4OhkfK3r6OEW1rS30qiqBPlZOi4paqhinotO+o5uBWhaYNb2AL4ONmxBgbeC/Bf7IsbhTchzahFQKA7uxo0uJ64EqFxBcyVJfRQV91ElVrPjq2HK3F0RctFbNshgt2wOfjbqtfhyJofBSmzsX52GvzPfISwkQNZq3VwK6Ir+I7gH8+H42xfRgSCTnEee2P+jbUROyCq17EPddCCioupiNu8GQlCDxgun4ekwfyZR8MJ8Sg85+HNiYOZi2aIk8rgFzELLrJC3LxnPsmDMXb6TPg422FGyBIsDguCcPgA9p51cEJ0ASkVqJ7pB+9BxujgAK+3F0NQkon4IYEIGG/f/lBnDHUou/ICZr780hNlV5wQFjFAVSRGw7gRGGQa8/GiG6Hw1Fm4h7+GEXV1UJtH1qZKXCsVQDCKD11tJaq13Qu9nBAWaYIktwL+3i7fv933ryHrcyHenzcAmYfzoDTFjQKcu6qA0VHpq2QQvSaEl9Nd5CRcQKOh/WvWwglhCb0cxXnu8B3rwBoYBo2Ab6AdSpKzoAubg9G8VpRn7EDY3F3IVurxnPsrWOLwLdL2p6Bp/luY7NhNB2XaTXD8EHkaRW68QM3ssGvUVHzoIGU369nxk9OLK+IhFKdWQzBkEfZI7rM2G8FtIQ5sngFndmgZgrY0CxlD38SvnJ9+GrvY0DH+r16CLxNS8LVhDKa4A3dKCG/8JQIBLt1Ly7pGj3uXD2L1x3KEbv8nwsZZs2Xqu1gQwhiE/octkekYs20bInyGgu6kYHngJgz8TxYOLhjJPMNs5atroB0xGsMHPEmy1gUaCY588DEutFgZ6QbPwuqYP0DYXX9sixiF+AFtMkp4R0hzY6XUxpoMqiJKO5pBso7CmE5KsQFzaWv+vfaxOQYV3bleRaqOShnHYzETwkAt+dvJF7+heNkD1tZddNSYHUXCiBSq6WUhjO/Zz+FjxCzKPMDtwisomhKAqZ4Wdo9ohSLnMGJi1iJiUy7qjT/TGW0FLqbGYfO60xBO0uJyhgQN5s/8hBi1+Dl8jJjFCA1KDi6FT/67kH8aBjfWaoTU5ZBWVSI70x7vzriE0A3P41jGMgjME4aWi/jXxKPw+SoO4aMfVYG0EKy5GNEB45oK99DcgD1U2Pq9XzGopHRi+yESyetI3lBDoo2zKCj+OlnKnvWyeAoKiKXiTucslmkj+clV5OW0kHYXPj5j7+v8OGuiZmb3+BH2XHXBLH9n3Ku4izbXVxG6aDrGGg9P7udgrfdBTMg9gBBne7iOcOpU5NJDmbUWU3NCIImeBk2FEsPGusGSk+ttSJGOqIwJ2LLM2zbKCyY5rEZPzdnryYMJxNW3U2iz6QhRS3JxLonlxuNDNRXuXkjhSRWkv3uWouMKqKX9izaGgdSi3RSd38SOe59uvgw8DBrlg0C+FMnJeoSFuIOnr0BG1O8xNzoXSubdd/cLgENBCvZ/dh/zl0626mTrp+cBKq8DQoETO7YBWEGejjYpHYo5b0VtxkYwVFLKhkSSPX2JqMfoAfeoRmlaHoaGvvqY2owNoalEyVBPjLGJ4NBO/2ke0NVBcioFpwruYTDuQMqfhHENNeDPicCK+d5w6u0M2LQu+jgGlYTiI35LG0+WksrwgGTxOylF/pC5UU0nI4Mp8uSd7/qWegsbWpzPCKrC6TV/Rbr/GmxY4AUn1KHolht8XQcw/sAVUwPHIHbvOZR17CFJjerbjaZTt56G7l9BzNsHILHQ9tTHhSBoriRifdIULA+b1L6fUd1C8fAJbHzQQ9uiZmJGG3Ssg9ZfT8Q7oYcg1lj22KSuxo0qtalIZDVUD8kXsVi39I/4h1jz3f/qTB8XQoOyr0UoCnoDQtM5CqG1rJTJWz3AN96mBhRfKoJvsBAebKOf3aQVuChdj9ctlU2oDue3/gk7vlGyBivhuUC4MBLbPnwPnqzJnD4uxAA4P/8iwB+I9mOTVlRKWzHFdxhzTdCWnMbhvGDELPeDo64aOXt3IWbtn7FJZN75zTxbkYfUuO1Yl+CCSYYCZEjqu7cqHkMfF4IPj8BwREpEyK9pZeZTgW/LXOHjwoO6NA0fbpNhSdJ6BL1kB434DCR+izHLpQb5N5vMJpkH+7HTMM9nGGpnhCB88UKECDt1ePQA/SB91UNdno0j+85C5emAkq9aIRxvB7XLdPwuYh4EpuZjgq6xDs28G9g9LRYe6cewTGBeIdOi9MgyvNe2AbkrfGHyZIyrunz0OPKUXTQd203Er1eGQGBqUmMy6Ksx8A4HTtz4AFPNT5xNuVO/wEDa/H20RdTIjs1pr6O5BcWTrPkuKTq36Zuopcy/B9Oa7Hqih3epvErN2q3noXgneXruJDGTOZvTx11TZ9ogL3sAL48h7NgcJcRZYgS/Px38zCSIjG+5ToGr5wqgMKY5+lrIRCPxipcj6nL+i3ON3W+9fxT9SIgmlJYOg3eX7fL2GOX7Mvgl6UjWzUTI6EHQl2cgKmwZorPrmJn6BfyWOKAg7RN81jQDSyd3o6BjTF/PpCI5UwylUozM5FScMQ/27Mro++gKad+WnG4WJg3UVpxIMUZ39IzpP7WmJ0F7A5/vL8EvVy6CwP7ZFqM4IWyEfhQjbBtOCBuBE8JG4ISwCYD/Ay7/khyZ9P0HAAAAAElFTkSuQmCC;" parent="WIyWlLk6GJQsqaUBKTNV-1" vertex="1">
          <mxGeometry x="666.07" y="659" width="55.86" height="28.5" as="geometry" />
        </mxCell>
        <mxCell id="1CRE_iQsh6xUmbvRWO65-62" value="" style="shape=image;verticalLabelPosition=bottom;labelBackgroundColor=default;verticalAlign=top;aspect=fixed;imageAspect=0;image=data:image/png,iVBORw0KGgoAAAANSUhEUgAAAR8AAABNCAYAAACfZmAFAAAAAXNSR0IArs4c6QAAAARnQU1BAACxjwv8YQUAAAAJcEhZcwAADsMAAA7DAcdvqGQAABWsSURBVHhe7d0JWFRV/wfw74ihIqKYkJAobrzIIr4iLom8au5mmqagZQqWYb7/bHEpyCVetYypVF4TM3AvRMFMU1xABRSXgZdRQDZBQEBA9gFZhjn/e+GiMA4oOnjv6Pk8D4/dM9dkzj33d892zxERBiiKop6zNtyfFEVRzxUNPhRF8YIGH4qieEGDD0VRvKDBh6IoXtDgQ1EUL2jwoSiKFzT4UBTFCxp8KIriBQ0+FEXxggYfiqJ4QYMPRVG8oMGHoihe0OBDURQvaPChKIoXNPhQFMULGnwoiuIFXcnwJUNkMTi04wIquuThvMQAC9d8CAejdtynFPX80JrPS6UAV/4bhM7Orvhg0Up8ZXcJTu5/I4s+fige0ODzWJXIDtmGdQfjUcGlCBtBReJhrPsxBNlypahSFosT13TQXZs90EE/+zdhvSsQwbcraz+mqOeJBp9m1UAm3QX3UCssm2OO9lxqPVJyBeIZmxEp5xIEQYT2Zu9g2VAJ3LdHQdYw/tQwB3EH8PvV/NrDNp26oDsykVNQXXvMvxqUSDZjhjgSgspSQapBYYQnxjoHIptL0TQ0+DSnXApfjxy8/6k99EVcGovIkH7ZD+vmL8SKGCHeJlrQt1+I97N2wvd6CZfG0HOAx82L2DTWkDmoQcHN/+Gq+WgM669T9zmPiCwNlw/+B/OdViOGS6OawZTNfWu9cE56B7k1XJqGocGnSdXICtqFgH9Nh31XLS6NVQSp/x6cSNKGxVBzLk2ARAawd7JEwJazKvt0SGEEvLcWYsXhz2Cvx3MxkEnhv+MkknTMMNRcn0ukmlaORH9/XOrUESiU4b5y81pD0ODTFMVtBO/Lw9xxZqjtInmgC2wcl8J1/ttwGPAalyZEImhbjcHcpMMISmrcW0Vk17Hnh8sY+NNGOPeqRI6M50enrg0cv3TF/GmjMODVxrlNKSOQpwfh96q38MmI7sDtdGQVaGbVhwafJpA7UTh5YyAG9e3ApWggLRMMmnQPf125wxTZOmzg+WNHAuzcP8dbfdrh9hEfnMmjPSwag2QjeE8uJjnZoX+ffzAJBSgq1czrR4OPSgqUJktxfqQ5erVr2NnDM/kdhHhtxi/rF2GW12VkJhyH18Yt8PXzwRqn+fgu7O6DIFNHB6/364GrMekoZQ8r4rD//xbiveVzYNWpLUSi9ujjXglTw5e1tsHUIrLPwUu8BesXLIKXJBUJf/6CjVt84bd3LZzeESNMUIG5BgXn/sDlkTMxTK8t2nXUhT7yUECDz4ukGvmZ6WjbywB6XAr/CMolRxBm+T4WTx4AqdtHWHrKEAu+XgYXpwVYMqcj3Nz+xM1GNfC26GrcE20TMpHPRqX2Fpi/KwrsvNIHP+nrMKqjgALsc1UMyZ5oWC52xmTrFLjNc8epHk74epkLnD74EHP0fOAWEM/c8sJASq5iz0VrLBljyDSqtaDXrTu64i6SsxsMKmgQGnxUqkZBTia09XQgnLm/93E7Xgdjh+giIy4at6wXYvWHdtCrjRtylBYVMBUdbbRtFEdEaKejC+2YHGhot0DrqslEfHs7DOmUi7jwDFgv/hwfDunK5BpDUYaiu9VMljI1xNqT+SZDnN9FvL7AAYbcL6RlaIIhTFm9X/XoxSWyLNy+1xrzt9jpEFvg5CV95qBMX69QSYZI8TQ4Qoz45bZM/UEVObID/w3jlf0giV8OW9Un1VHcQuCKDTh670kuVyfYLvHAp8O7csfKcnDqs8lYbrANV9xHMA0rBklHoMtEeFjuw5XlQxoFTHmkGOaOwMHH/Y6CkIHABWOw0vpgM/leR5EaiBXrjuIed9wsraFYsnkJhjc1qldwCp/1+x4GJ47AfXiX2iSSHQgXM29Ynj+M5bZ8138Jqm8dwpptSXjVuMHVrUjG35t2IGOtRCm/yhHn/R4c81c+LCON1ECWkYpC/d4w0W04kts8ck+Ko4d/x2/iXxDvev6x1+ix2OBDKSsjsdunk76eElLNpTyqmmQFfEzQ15NImj5J/YqDyUojW7IyOI9LYKhK41RLPElf++0kVs4lCFo6Cfig72PyXd1qmOz7mhgZfU2Ci2uaSeORIp0c99hFossUXAKnWkI8+4KYrA4lMi7pSSjyz5JVNktJQGYVl9ISpUTiOVot14g2u1TShr5hd9y6kYY8LkUYCCqTonCq1A7DBtQ9oVWn1ZMjLy0ZOZY9YPDkD7iXjAxJURKUThyCAZ3qbwdVaXxhO5n9IRk5BQN1lBqAbTqia18jZKTloa7Xp74D/Xuscv4BoY90lpchNSwQOzw8sNfGFIrL5yC9x19nNQ0+KrWFofkg2N8Q2uzRSqRJr0L6hh2sXquv8KpKq1eFwtw8DBpkiqYacS89RRakZ1LwxigLvFZ/b6tK4wkpDMcWHz3MHmXwaN8TE3y6dGcaVSm5KKwtp8WQ+CXBznkMDBKikVyoHFg6oveo0bDU04LDlHcxa+YE2HR7pobTM1FP8CFZCPtVjDUL3oBIZIyhC9zgKT4MqUxRfwKqUwPwCduZ12ko5qzcguOJMu4zYdIytcEkxQ3EZ1ZxKfUqkRHyG8Ti77DJ9wKQcwRbv/2eOW74fVtLMVKv38GEd4bAtP7KkVzEhEXD1MECvZSvJsnBjdAaTLfrCUFXfBTpCNkmhniDJ3wv5iDHfyu+9WSOD0qZOkgrK0rD9RuD8M4wkwc3A8mJQ9glIzhYGPH3dK5IxHHxcjiOnwuPa2ew76+bKOc+qrufTsOLyy9E+2Prd14IjJOjv9MsmMUFwafTONj3U34bkaHIRdKVrhhtzY6Y1SH3LsNXzOR3Ez8/H09kHmOtgGt+qUEFSdn7HgHeI3tTKri0egpSnXWabFy1k1zKUv5MqIqYtu1s4hyQxvz2AiYLJatNbMiyoLtcwkOKzADi7LCVRFcK+hsIjILJ0rXERP9LEpSvER1lSvJI8Mo3yASfGFKcnUNKlS99fhBZZsr2ZclJdfZtknG/pWVDkH0+RUiMjAHs7WHbs+F4SyXyJH9g8zEdLFy/CCM0ZuGqzhg8zwmiA2eRVC3cAcGatFicy7CCrZlyf085koKCIFo2HQO1eW47aJT7SIuNRoaDDcz01VFfrET29bhHlzdpLSXXccrfBh9PbIugneEoqO0HisKZyOzalQJqMhIQOswG/XVzELL3AvJbu7LeDPUFn7JEXAyUwmSMJXrVXzNSjDj/7fArccBni0fCqPEkFMETGU+C+5xb2B2SzVxCIapEemQ4wh8J+Oz7P6fhHTUO7tNMBDJPRUOQLEQGxcB+0j/RUy0Zl4uIH39FRN5z6jzU7g6rcVqIO3QK8plvwkRUiZSTP2Dm+B8RXFCDNj0H490O/8ORbQEomso8mJQ7sZvBDrWfCAxE0NVMFFwNwqHA08/WYc3VgJ5ZTYIPmQBz8vGxzLqE6gwS4r2NBMQWCbvZ8jjM9zi78T9kf0IplyAkbBXbnozfEknKuJRa92PJ/q9+Jmc1pokrIOy0BZMZZEt0MZfwrNjpA8tIQNbznI+hTEZif/UWxrSBBtRU85EjJ+YaLsEaQ826MtW8cHgtmoFPMq0wzqKzZj952/bAmysWw7qiGEJZcuuhbhi7KQynPx3cYCIZQfU9AusvluBNujZzy+mNxab0I/jURjgv1jwbdmXLUzjZ+V94g++lU5SoaYbzPYSsmoQ3T72Ls779cPViFV7P2IYFv9nhWLwYbxm24nAeu+DX8s24UPaEjdeOY/CFeAFsWlDdpKinx87a/hH4XoyZRvwNawuReoJPjRRb7eyxrORNrNq4Ht/MtkSbqJ8wbsh2mPqdwQHH3qprP0SGO2mV6G766rNN06YowaLBpylqCT4kdR/e6eMO4nMaAS7mdYGkOgbeUydgCdYi9u/FsHjl0fBTE+eN0Y6F8LzyFYarqIkQ2R0kFHbBP0x0n1vTTSR6eWtETRYFNb6b9iLkr+p8IkwlfA+W/3QOZVxKnTKkX4wFBg9Bzw4Nmz1t0PFfn0HsYqPi3SvNy6enCiNs8Hk2cpIf9CXRx3SyPbZht2clSfNzIbqYRDwlRVxaCyhySPCqycKfZ0NRzRJCh7MwqaHmU4CwNW/BYfcEhN5c22htGJJ7HJ+Yz8X5f/+NKx4OD9fGYRfF2n4QUXduQTZ1DdY6dG9QsyGoSL2IE6cO43uPQszZ+g4s+o/EZBsV08tZtM+HEjTa7GpSbQh6FvIbZLu9PtH9+BjJ5ZIeYoeCbQn0l5FjOfWRX0HKInaQnyJSicTzbTLB5yZ5dACQm2Xq6EfSabWH0mi05tOUpx97Izm4vHszPN088FN4IV65cxa7xPtw+cGkoyJID+6E/9VcoNAfHivWwiskHWz9RLv/dHxgloajPh3gaG+qYqZjJTKTEtFrtCWMaQWFol5MXBB6zrj1Uib4kITiHJJdqvwOzV0StGxS3fo01TkkJaMlq5UIgCKDBK11JlNtjQhMN5CIClp9a+Sp8oddP8mT+CTc5441RWvUfNh3JUPIllWryYb1X5DZo2eRlT6XSFa1ZpUznmYdFUBySoJJH49CuyA/hNau8VmJ7MgLiMyuBGruIiHUGIP76yA35DDO5AtqXYvHE/XAxHVirJpiCv3ptjAT0iL0QvBU+VOC5LgOsOilaRMnDTHiy8UYocYFlUjhRYi3FmDG+m/h5i7G7wcWospzHhZsvoqSZx67fn54Cj7t0cPKGu3ijuKQfDSmmGgzAScVJ7+Zj/GbzqOgzeuwe7cDoo78hn1FDpg3UANnm9ZkIfZcLhxs+4Jug6dCS/OHOf8mMdPAQN4ORgMt1PheYxUyTp9B23fHoWft/1OEtsZj8NGywTizcQ/OZgtvHn6TuBqQMFTdIL+KzxF1vVXDJ0VWAFmoO554Sl6Eb6N+Lc0fRdafxE3l4MTLhu2SGE2mfvUXSamqb2YpSEXEBmIK1UurCBVPNR9VZEg8Eo7O04YIaLuap0VQnnwdwZ2GME1HXS6Neqil+cOen4bOfC7uJRhtoaMnx4UrycivrG9jiaD1ija0mHuosKxVlv1qFQK6lrowm+OKOWYvws3KrQnzDxmidm+F996dWOuyEvtii5nbiCHPgcT3S4zt1wki0QBM3xjcYL0XGWJ3euP0C73XzWPypxaBPC8af3ptxJoNYmzaFY/q69vw+RebcTyx4Xkvm1cxyiMMpSGfY4hu/e1bWbedku4IjBtkWJekCWWMqwFR6qRIInunm5L+C3eTmNqRvLp5S6Yz9pJbNaUk3mcJmb7SmxwLvUwizh4g6x0nkSXH0pmzmDPzQ8h3W681XiLjRdNs/rAnyElpzG7iPH0dOXarmChqbhIftz9JFpNBipxjZInN5+RY1tPsvPCCui8l29+2ImM2hJGC2paYZpQxGnxaA7tUpX7D/oz6NvnHxP/CfuK2I7rR8paK4ktk40cHmBuvgtzaLyYH0yq5D0pJRuq957iNzHPSTP6wQ9KKrL/IEvO5ZHtM3RpKjft72KFrq0aTUxWlmSQ1rzXWLpKT4mubiePWaOa/hIoNNAuJ1YNATkjNrYNPXsbYQJ+RRvJ4GKanTWi1IyiLjUBg+4b9GVXISorDbSM9aBETzJxtBd0Ggx8ivX9i1vAsRKdLcTJlIMaxo3+Mmpv7MXfar5CUq25ksC/exmfINKwJ0lz+dEWXjiW44vsT/EbPw0wL9nMFSm/eRjcb47o+AlKJsuL7KK+Sc9+7HDf3L8W0HVENFlhviN0gLxkZspY1MdhV+/70dsM8p28gqaz/t4SmBoUR3lgVPhp+Xu/DsnYDQAXKZcZPXMaYQob9cz/EDklx3bEyIkNG/B3IWiEDaPBRu7r+jMKGez6Re4i9JIXuxOEY4eAA20fWBm6H1/trQ3ogGFXj7dCVKzRaFq4Iu/G1yjf+2V0rzq1fjB+uFXAJmqK5/GHSdDJwNSADE0ZbwaD2a8uQJAVsuEBF8uJxKdQEkwb14Hbk0IGF6xHcULkzJ3N+wXmsn7YZ10patlixqJsNZriuxreuQ7gUoWEXCTsI932G2LCVCzzyAmTnV0N3oP0TlzFoWcE17PSDnVobY/cM24RpP1zl9gVTLxp81E6B+7JivGbZi7t5mGKSfQWBBw3whcsodFcRR9jRinY6VThwQhdjB3eue/HW60eIV32CdaF3lZ667Iu34QjcsRFf7TWAhSIKJ6V5An0yq/KY/NHqCP2eumj3ilbdi8SKLNyQ9YdVbaCSIS7wd4QvXIWPhnXWqA3y1ItdFD4YP+8iWPrDe1yNh6BS8gd84hov6PGQUhljJ/WG7IRYvArO684jT7kAVaQiLHAHPL76GzYWFbh8Uop7ai5kNPioXQf0trYFSsqZy8sgeQjf4Qci3owV9k28mV9LhL6OozCAqQ2XS05AajcLYwwyEZFcpBRYRGjfeyQmWnbBXYcpcJw1A1OaeuNfkB6TP6JeGPfhWEjPRCJTTkDuxCKpjxkMUIzEQE9suD4Vfh7jYSjSrA3y1InIbmCv+y4U9dNGwumjCAwMZH4CcOBICoxfU1X/q1dfxpjSUv4/+Emt4DzGEAkRKShUDizte2PURGvo3R2EKY6zMXOKDbqpuZCpaRlVqhG25iL2wvluFjBOj0PBYGd8Ot28URu8MTlyj38Hn26f4uvhepDn56JYFI8tI7fD9OhuuJgpb/5WgURfFyyqcsN5VythbwioyuPyh5Qg5fQe/DeoBH073cLFyj7ox+SRgYMTnKfUn1eJ/GwZRMn/xcj1Jjh60gVmyo9SRTx8J3+Dqp/3wtWi7qZkN8jbtZvdUkY1LfO3sfQtM9T1iMgQKZ4GR4gRv9xWIKttFkIiXogxK/5ifjsl+l8iKHkTJnZVVSIaljG2ds000YorkLzlfaw3/QUnXcwfqYkoEn0xeVEVfj7vCovWKGS13c4Uz9ilRz4nfun1w8cv+Iu3T6yIRGzaQkJlTY3EaM4GefxTLmMMdqcOo9nEJyGPZGeX1g7DP1S3SKDpymBSTCpIdkoWUfcrvbTZJQRlN3E+3BTmxq9wCS/4i7dPimmSJRW9DtOmFn7ToA3yePdIGVOgRHIW/pOcMLFdKHaG5jFpDcoYU7vOSLiFYYP7QDc3FHvP3GX+hnrR4CMA7K6j4fZW6P2gavsSvHj7JApTkGjUr+k1nTRpgzyePVrGRNDuYYlx7W7g0KEazJzSE6KGZYwpgz3t7NEhKgDb9pVg6ryBKkcTn0ldBYjiD7tOjRtZHXqPO27GC/Ti7ZOQR/uQ/7BNyxYR5gZ5/BJmGaMdzhpDhkT//Yge9P4L8v5ba2DnvhzBtmgLLJ1jzjy7qZZ5vmWMBh+KonhB+3woiuIFDT4URfGCBh+KonhBgw9FUbygwYeiKF7Q4ENRFC9o8KEoihc0+FAUxQsafCiK4gUNPhRF8YIGH4qieEGDD0VRPAD+HznTuPLfsXwEAAAAAElFTkSuQmCC;" parent="WIyWlLk6GJQsqaUBKTNV-1" vertex="1">
          <mxGeometry x="390.93" y="171.25" width="214.33" height="57.5" as="geometry" />
        </mxCell>
        <mxCell id="1CRE_iQsh6xUmbvRWO65-64" value="" style="shape=image;verticalLabelPosition=bottom;labelBackgroundColor=default;verticalAlign=top;aspect=fixed;imageAspect=0;image=data:image/png,iVBORw0KGgoAAAANSUhEUgAAAOwAAAAbCAYAAAB/RGO1AAAAAXNSR0IArs4c6QAAAARnQU1BAACxjwv8YQUAAAAJcEhZcwAADsMAAA7DAcdvqGQAAAuCSURBVHhe7ZwLVFTVGsf/BOGjwVcJYXKxEMRXQ/hAlBQfKd1VaVohdRMpS617o/IqXr0qmde6zUia18yrmJLc0ESXq4eQgDIqjwRzVIQBAXkOMCCODMlj5nz3jGwQhsHAZmCm5rfWLOb8OWf4Zu+z9//79j4LK+KBBQsWzIL72E8LFiyYAZYBa8GCGWEZsL876iFP2IHQg1moY4r5oEL2QRG2JBRDzRQLbdEzYBshP70P4vWBGG9lBbuJgVgnEkMcmY5qk612zTFmY6CBSvol1krGIPgld/RmajN0MxXieVuRbrKjQQC3lxZjomQLdkpvoMOu4wqRsEOMTctmwM5qCCYGroFIHIkUxR9gmGsXnfShkYXTbLjS4ugC4phm6phjzAalNp22zQ+l+Co1ExhcDRUkf03rn3MnuIgorZHpJgpXFUer5/+HLtTerRcbqDAqiB/Tr1BEXh3Tfv90kBJrUJV9AUnwwJNj7GHFVNPGHGM2JI0ojfkS0dPmwmeQNdO03ID00H78kGOLURPdmdZF1HJcvCjvtjTVapAXFk47i20xRR27LJTIOX8REHpg1BBbpv3+6WDAKpH1UxpUTqPg+kgvppk65hizAeGuIf4rBQJmuaHt7TsAQv+3sezV5zB1pAPTuogiGVu2JEPBDo2PAGNmTUXOrjjkcEzSpf4azsfK4DjHE669/jjTs/4BqylFxsksDJzvjdEPmEljmGPMBoSKz+P4pcfh4dKHKeaNtYsH/LITkFpQz5S2UGkmzkgfwlTPx2DHtD8CegcsFf6MmDMCTB3ngoFMM3XMMWbDwaHmqhSnprjDuYfdhqqTsX3Dp/gs5B2Ik3OR++M+iMVf4KuorVi+cDPiSxXIY1rE/g14+fX9yFBp2NWtsH0Yw72KcDm/hgmt0aA6WwoJhPAda0rljwaqKwfx3vQ/wcrKSv9r0Lv4ruLeiws9A5bv/PxM/ITRmPG4o5nUguYWM+EX6T68FRiIwE69gvDWXil+YVe3pxFVJYWwcR6MfkzpGeqR/0MSHF5/E897qvBBYAiirGfh3b8vw6sLl2DJ+DgsnbcWJxzmYQWvLQpcghfUu7D9VDm7vhVW/TDE7T7ISvStFiuRcTYJ1U4eGO1sOhkFKU5hy+5KPLv3Mri6cxCviUUVNaI0+iN8kVGrXeAFXd+KZ+xt2BX3QNPaU2uUlCZ6iuD4D4pXapjWEWqqKSogRWNPr8maSMxcFZ0TBdNnF1RM6C5q+O/vSy6iNOp4AbiRSqOX3tsqcWk0LVoUTaXssGPKKDbsMOVqFBS/agKNWZ9IypZmLqOY4HHkLfqJaplC6ku002ccBceUMaE1d/lOmkwKn+1IA4NjqIpJLXA1VJRfeZd2MBb1VBh7mCQV2r/MUf2Fz+mNiBz+XRVJNmyiGN2Vex6upoTyFV1b4W4/1LlSSE9chmDOMoy00zVgNRSxe/Djo4vxiltvPgPIxIGA91ElOoS1kwawc1pBKhTJbmDgiKEQ6Noel4sjK/+FY5V60qF22GHc8o14Z9IgdqxDd8XcIWpUSo/j8P/CIf5EiWVp5rr5exPSvR8gLLGSHTNuFeLseSA48Bja+tlDmPb+BrwmbPZ1B8x+bwFvtGk4Egv8OWwU+jW3YW02zh6xxaxIF/RlUlMZ444Fbnr64S5Q+RWcTgIm+DtD90pN5gEE+FdDlLoak/q270BSFUNWPQAjnATtMjEu/whWhh6DzrfXj/VELN+6HJP6Nd9vtnCavQBOt9+rkJl4DZP8hsKKu4YcaV8I+7VeudfyCzIPvA3/qlVIXevd0iZ34NPronxUD3wUToJW17KBe4eKb2mpwJFmh2dSO6/iCih6zT7KaOiMO6mpKv6fJAyKphJjG7CpxNyYRiIXXxKl1TChu6iljJ1zTcBhm2jaDw+iqMIGpvAtm7GTfAR/o28rmp2mngqiXiPB7HCS6U2KtA77FPnsvMT3Sms0pIz/BzniKb6dlUzrJFw5xYc8TUHG3qevTaJN08WUVsf/FZWE1gm73ubavegQ4dsUXXKnDbXo2BGhNisNP6iGwcvVXqfA1eBm6iEcdfGC+/0NkCfshlgcgqDQU1DoGkpdPk4f2YWNq7+HcFQdUo5LUWk00zHPmA1bw9pioP3DyL1U0I1bLx2hRvnlc0jymYixQ+5nWh1yUxJwZrIH3B5kbsEVIDEqCZP9J2O4+iL27EhGbdNvGNUouKTC6KGD0Nab6lCcfQVyx/HwdBUwjUddjITtWyAOeQuhkjKdupf47j2DI7s2Y3XEYIzizuO4VKFzjqFQoyLhIPZMeKJpu+mmAgWFZai82ZxJEtTyk9gu/hghQZ9A0u7prFrknz6CXRs3IkI4DFzKSUgrW53DBi6jaabGwBU6OTdf98miKWT6KxQuu8WflkxhYUlUmSYm745mSO3M4tR2ljUOJhRzjzksc7AnttGF9qUSo7scVlurCslpnYRaKnltlrPYnYSic9RSsWk/Ey/yfaMipWQnhSXrVKO369v5tDOjpeJtgsuhiLlOhLkRlNdikxzfvbv4z8jnXfk5/ZkWf45KsoGc/KOo0Jj22pBB4XO9adm3xU0ufjv786VNydW3f01UTclhuyi5MoVE3gFN92Y7+Lp33XTyj8pvmwlwimaH5eu8lEiIRaEIDYvnj7NwfM+nvBuJ+dcmrHrJG44jFmBH/znwHc7XgbZuWLjIGVeOfQ877Qyp49NauJIcpDq3nmUNTXfEzNemKV+xz9T3+hzfZbf1hZ7CepgQftwlZJU0MKWZehQl7OFj/Qj/3psIlB/FZx98zB8fhlTV0VMJvwFNGWSSBxDgOwIPMAkNFciTjsBffF3Q8kjLYE+88K4A2fER2F/mgze82q5PUEkGJLXemNC8r0zlSNm3FaL1H2J7fBEEyrOI3LIHCUVN+7S2rnOxyK0Ax8L7wN9nmJ7tj3qU5GTD2Xc0hnR6baLraHIk+PLKk5jn5dBUIz84AlNmKZFRUM0cvQ9cFy6A25UYhNvNgo/23tSFq0BO6iA9W1a3dB22CyjjaZWjdoZUkFxeo1MT8LVgzAoatiqelPycKs8rJX3zSLdj7Jh70GGJbvDu8qJx6rMu1rC/nQYqif4rTd32M1/pdhZW22qzJ2U5yWt0Uw2t8/vRqngF30/llFfU3Sv5rdGuok/mM4HLpJSXU41uh1XFUPAw7Y6Hmhrl16jo1p0T9PhMZ+BwMy0Oh/wWYk4vCXZLtJVTPeTpiUiXa2e8OhTJcuHl+RgEFRJEnCjjr+hpzDHmrtAfni8vhFVkHHIaDVydDfbGihXeGMwOjU5jDmIibRD8wmidxyzvxnWkxabBb+mT6BUTBcl1vmZUy5F+4jzkar49bjv/EL7u7cvXmIdxoqozuxNG4uZFxB4SYukcG8TsPsNHztMqVk2RDBIvIVwF5UiISERVqxvROpSHve8S/CwF2bksKOQP4ZmASbC3zsU3S+bj1azH8YafGwZwpUg4mYni3D6YEzQNj9je49xgQIwXs3ZbJw4xiRLERp9Gif1gWKv4+3z4w9Czs2A0rOycMRbHsFc+EjOG2xnuAZL77ODgYKf/sTiDU4fCY5/j8MgleMebb0em/jocGsuu4NzVEsj7z0TAlCGwzv0GS2auQdaE+fAb3h/c9bM4mVeAXBtfBM1wgm039k0b6BbKZOm4qqhG/2eexxT73uCu3on16VG9cD1BgrziYtjM8ceMR3rf6cvbPmsoGi7Rf8Un+ZTSjDDHmO9GYxHFbf6QDsh6Ii3/rXB0S/Y1rd58gkoN8mALRw0ZB0isTYNNns7FasBJU4Xso2fQ/9nxPfx4XFcwx5h/BZuhmLnyTYytU6KRSeZDPSrrPPD+yplwtDGA/dXJcPR4Hzw7+UEmmDCdjNXyXxMtWDAjer6wtGDBQqexDFgLFswIy4C1YMGMsAxYCxbMBuD/rpznScjrieAAAAAASUVORK5CYII=;" parent="WIyWlLk6GJQsqaUBKTNV-1" vertex="1">
          <mxGeometry x="631.04" y="306.27" width="145.41" height="16.64" as="geometry" />
        </mxCell>
        <mxCell id="1CRE_iQsh6xUmbvRWO65-65" value="&lt;span style=&quot;font-size: 14px;&quot;&gt;gapL= demandL-offeredL&lt;br&gt;demandL = offeredL&lt;br&gt;&lt;/span&gt;" style="rounded=1;whiteSpace=wrap;html=1;fontSize=12;glass=0;strokeWidth=1;shadow=0;" parent="WIyWlLk6GJQsqaUBKTNV-1" vertex="1">
          <mxGeometry x="435.26" y="405" width="170" height="50" as="geometry" />
        </mxCell>
        <mxCell id="1CRE_iQsh6xUmbvRWO65-68" value="" style="shape=image;verticalLabelPosition=bottom;labelBackgroundColor=default;verticalAlign=top;aspect=fixed;imageAspect=0;image=data:image/png,iVBORw0KGgoAAAANSUhEUgAAAVYAAAAgCAYAAABJo1DrAAAAAXNSR0IArs4c6QAAAARnQU1BAACxjwv8YQUAAAAJcEhZcwAADsMAAA7DAcdvqGQAAA9rSURBVHhe7Z0NVBNn1sf/ETYoAhZaqFhArUqVr1AtKBZRKipry3GLWtC2sNrztlXrsopVKnXLelq7XcJRZC1+4VupW9EKymtbggoqUpEW0YhgIcj394eAfAVD8rwTGFaEAElIYrKd3zk5ZC4zk2fuc58797lzZ4ZFKMDAwMDAoDLG0H8ZGBgYGFQE41gZGBgYVAzjWBkYGBhUDONYGRgYGFQM41gZGBgYVAxTFaByxGi6FoWtR29B0rNsieWhYfCzHduzxKCLMH3KoBiMY1U53ahO2IYQBOO4rzUtY/jvoQ03uZtw2fMAts0xomUMDE/CpAJ+dxB0V6ciIuwMCoS6cE4lEBacQVhEKqq7dTEG0DV999GGglPhiEitoEIFBkVhHOvvDNKWjejQLLgGvQnbsSxaSkMeIIu7EdybbbRAG2BhrO2bCHLNQmh0NtqG9E0PkZcQhc8/fA3GLBaMXQOxK+oCikVPbiApT8bON6aDZeyKt7ZH4ocC9R6r7um7DyPYvvVnuKZFIJrfTJ0edJWnZBfSVACDKhGRqvggEhBfRi9rEy3kduQHJCSllkhoSS/dpLU0g8T9zZdMwyISntVKy7UISS1JCfmARN5uoQVD0H6dfO5gRIz+FEvui2lZf0SFJG7LLnIqv3mADuSllWSFB8ipIx3WN42k8RIJ8f0Xud2unLa0BrXbxZMwEavOIZ1a5uFOdRe9LD+k6hIi4+3h725OxYF9SNDGP4tDP92Hod3LmElLtQ6WOdz97REfeQlVw4VPhrOw2P8VtJ07jyuFQlpIQ5rBP5aAzveCsdp2Qj8dqAed1jcNy2wu/Bf+jEheuQ5HrRQatgvGseocYtRnHEZERh29LC9dKE45j/trPOHA7m86Y2DEWYXgD9+Gj4cdnqWl2gcLbAdPrBGcAU8wYGA8wQQ4eb8BN6TjVHoJfRVfSheqfjyCc5P98Y69+p2q7uu7DyM4eHlAcOgSBI+VqYNo1i4Yx/p7gVTh16QaLHW2hh4t0jn0rOHs3YD/y6wYJnpiwdBxMfznC3Eh5iJyHknXFFNR4glEVS1F8FJr6PeuqF7+G/RNozfNGd4FqcgsVXyWpD1o1i5GdqykBXmntsPTmAUWS/bHbMMPqNPKeYJ02nwFh7gHwN0QiLC0GnpAEjzKPYRlzl/iRocmGt6F6tQj4H79dwSuPICsyrs4FxWOyGPfIfZv7+LNL6+iXt3NaC1G9pXJmDV5PC3QBhTViyFemG6FX+6WoZWWyIQ9HQv95gPXk3H1XjtlAymI+skaf1nvBCP1h6q9aKW+achDFCVHYp3rJBnj2Rl/Ta6lV6RhT8T0ueW4Wzys1lVIF+r55xDxSSjCY07iVAwXnx1IH/0Y0aBdjOBYu1F/+QiO1C7DsepuCLO+xk4e5ZwkpYj/OAa53UR68QsPot+Ahcoa9hD8Y8EIDAyU8xOMY/yH9LYDIBXgHS7BvI/ehrtVEQ7/mEcPyE4UXkvChSlWeH6cBkZaRzaOX5uO999/A478XVi76TKsArciaP1aBGx4EyY79yL+Xge9snogjZXI158IcxMtip8U1os+zCbZQD+/Eo3DDrLxsPPywRJcx6nzJ3F4fzmWb14MS31NeVUt1bcUKlDK/d/teOc7Fvy/4UMkqsEv+9+GqRsXWe0Sajzfxr5lz9Mr07BMMMl2DPIrNVEdQJ1sU7j4n8gWeIfuxsfv+cLNtBQnQ04js0FMr6MsmrOL4R0rNZ25VTEPO6kfn2rUid9+rsBM22eoAVGKO5IXMHGQzVChdUUZGkZVb2gCzvoIHD9+XM5PBNZzTOhtB9BUAMGMV+E4pgS//NQK77nTYSyVkwb8lnkf7t4vw6a/TkkbKkoaVV63Jy4pwdjXnGBcnof0+3Px/q4AvEIPOElrM2rABltfvVkZ8YNa3GUbwdBAc85lJBTXCwsGhkZg363Fg2HHGAt/mLkQ/kvH4vq/BbDZ/A44RoMdHGmrQkmDeqa32qhv6ojRcScWW/aa4/O9m7DMzhz6+s/DZZUvfDKu4deSTnq9gbBhSA2xu7Ut1AhXJwSi+2cQvDob3ttWwb6nz6iT6Uxv7IzbiEXP9fah8v2mObsYPq3AssHSAJve748KcfXmDHh/ZABJoQD8iRzKBQ5AfA8n1mxFY/hphM6jHPBAKMdVnt8M05esNDMlM1uMLWupaT//Xzh1bxE+caemPlJ5ayEyk43huX7SE/kv8b0TWOPXhPDMEMwzHNxA0laB/KZn8JK1Ue9+5ETPbg3+Spnkg2Q+0hw8EDKrT3PdqL37K65zXLFnsgEt60cHH8e27cNVKpJ4jASdZVnIRgUCEwdMM8d7Yis3EBwZbVctXShO+BxhiWX08vDozdmAfX+ZN8helNaLPIja8KC2FdarfeA5SdY+OnDvxCb4NW5HZqgbDGnpY6ggobwYTaZTYS1j8GkW1ehbGiilHjwObPoGC8weHxMRtqOF/q4skuIEfByWiAZ6eVj0XLFh3wbMMxkYTLTgZtxRnHR5F2Ez+2xbD0Z2r+PPdvTiaPtNU3bRW3U1EhLSnvEl8Qz/lQip721pnxFOeBYR0f+Vj27SmPIp4ayLJ5UaLYlrJ7nRK4jph+dJLf273bnRxN00mPAau3sF8iCto9zxR7IuvnSEOreh6ljrScr2OcRyewp5XIkpSzYSytXJ9hzztHCSNVynVcWTAI3XVSqmF1FWOJnmHk1yR+g6SVEsWQEOCeLV0BLFkNZv7uBsIvGVj2hJH/LVsWqlvltSyHZLbxJ5u40WSBGR2vNBxNRhD8kYslZVesxLiHt0DjWK1Uh3Dol2tyQvR95W+neG7rde1GcXTyLf/FN6pjt+GS6zp8CA8tgP62tQVtGAx5lN+iIEdwfWhV0ZnGQWFuNawiHsDvkRHDshbiTx0TBktkCFOdYeGvFbRgk85s+EeU8gJ0JVzi9I9+DA1rQZ1/adRF5XBVKjIsDdsbHfBa4+CNX8dCQc2oOQWHPYSbKRxK9XPNfUVYLs5HYs60tHSJElUxN6phZ48X4hSuu17AZFhfTSjfrSQtTaW8F82CBSjKYCKgqGLZymTqBlfUgvaF5GFPcf2LHun0gbpI92FF9LwKHduxHLmQLJjcvgNyiuM63Ud1cHWlonw8qiX6RGje30hOvw2LICc4ac6TShNKcN9lZmGqhwmADHQb9DRYmCPBQWp46y3zRnF3I4VgKRIBlHE2dhgYN0es+CPpsNUUo2CvquqHfcQhzfAes8LZCfUYSmgV5n7FQsWOYIkxpnLPdbDd/lHDw35GxVhTnWHtgYbzoeY9l01kNUjCuJ6Zjmbgfr1jtIFU6Gxa2fwHdZCU/zSmQUDkzQs6jmv4pl9s+gxmM5/Fb+Ccs5/Qu+5UNSegcX+Y6UDi3+s60smdqwsIWbewUq6rSrZEYxvTxCU109nJ2nwIyWyKYFuT9fRxPHFZxBqYQWZMUJ4LLOE+b5t1HYNHBwjMfUBYtgb6IHj+WrsNJ3KTjPKVGIo436fvYlvOrVQLWprw5YiLKz+xFr/QWiA2bhD7R0EOIW1BVZwvlFGek9VaJnA7fV9iiqaKR6ug/KqeadQxSvFIJzhaPsN83ZhRyOtROC1PPI8/PGXHPpjvTwrJ0LvCqps3GDqHcVti38AyYjL/FHGPvNx3QZe5VUCpA52RWOk4bsPjVhgYUbN8Ms8TCOxcWAG3kDlu9tw8LcH3D4cCEWBM7GMzNWIMC2FIkx4+DnPkWGUrpQKSjA5EX2mKSUBxSjuTgPOUsXY+6Uvg6l84hTnGGnbB5REfSs4OwN3PitblC0LSlPxQFuOL746jh+Rj5O79+DcO5+nOI302uoCwX1QmqRkybGChebISKnLpSnHgX3izB89V0OoJ+DxKgjSC7uX1kwDjP8V8I2j4cYYy+4T5fx6D9JHQSZZljkOIoTnjbqe8x0rPl6Ix59w8XBuFhEfbYb33b648gur2GvjJPKXKS1u8Fl2jhaoi5M4LQ+DJurY7Ar+iTivz1IzYK/xtlaZ2z+6DW4Kt1vT8Eu6JTA6OnJ36wmMfn1pLq6ddC90Y28YDKlJ2cmJNVFVaST/o92IKaa/wmxXBpD8ltqSXXrwAxPDeEFeZPtKfWEiGpJUXn/HNVA5M2BNpK0XW7ENIhHfVMEZZ9FICHtWVzirvEct6IMrRdJZTxZ57Gf3O4a7QFIc7jzydKYu6Slupa0DtxdI48ETfmEpLR0E1F1CSnv7L+CvM8K0BV9j8QjUhn/EfGIvEW6aMnTYzT9Jg+q2798OdYRkeBh1iWc9vbHMoM0HEmrp2RdqL55FTd77mkXojz/PubOfhFGdWmIvVjT75YybeABspKz4P3BAhjw4pAmreXprsbNi9m9j6oT1yA/bRJmzzBEXeoZXGxUQdGJuAq5l+vgMWcaTGmRfOjB3O19BLtZ0MvywoLh7NXYwuKBJ1BvzeyoGFIvHRDweGAFrYDTE7eIKsHDO0g+zcEHy/TBO5JO9b40v5aNizerqXiZakJ5PtLmcjDDqBapsVfRqJSx6oi+R0IkAO/f+ghaZQ82LXpqDOo3in7jdNT9pkK7UJFjZYFtZQ8vgxx8/70YvsttwBIXI+nTd7HkqytUA8fCxsUd47LjceDbh3h9rZOMMoanyVhYOTjCIC8R33cvwnJrNsRFSfjUdz2+SqmjtPQCXFaNQ/bZo/i22QNrnYbL6coHKbsFXroDvOfQJWByw4K+pR2cLJVIH7Cs4RPqhVvfXNPSO+WG0gtl4GUXcDDbC6E+1grqSwbsiXDw0kPe98no9l0Ma1YXipL+Cd8lEUihTqpjbGZj1bhbOHsgHs2vU45c2fI1HdD38AhRdv4kst/aCB+Np/BkMKjfKGfXb5yOut9UaRe9gauaeJRDDnMvK1BKpE1IyKPcE4Qrnf4rhDxT9d7Ug/USalqr8cexCUnVpb0k5ESulqVjpAyhl85cciJkL7lUJaQF6qCN5B4+SE3zZD1Trj+KPDZQijbrezgkpDP/JAnZc5FUiTRto4qg7DiVF3nt4klUFLHKog0FZ9MxweeVwYXKuoAwH2eTxsFnvjqePzQGJq/tQdmFzRoo5h+IASwXb8BWR4KGAQ/7ffrI0guBqIHAcesGLFYmSpcL6VsKkpE0YSHmDypaHy3arO/h6EKD0BlbP9bsrcAKo9ZxqrxdMO+8UjnSd15txoKoerxqI717hHnxnO7T/2WC3WjMbcCiQ/HMO68YhoRxrAwMDAwqRo2pAAYGBobfJ4xjZWBgYFAxjGNlYGBgUCnA/wOA71TBbwFFGgAAAABJRU5ErkJggg==;" parent="WIyWlLk6GJQsqaUBKTNV-1" vertex="1">
          <mxGeometry x="558" y="635" width="240" height="22.46" as="geometry" />
        </mxCell>
        <mxCell id="1CRE_iQsh6xUmbvRWO65-79" style="edgeStyle=orthogonalEdgeStyle;rounded=0;orthogonalLoop=1;jettySize=auto;html=1;entryX=1;entryY=0.5;entryDx=0;entryDy=0;" parent="WIyWlLk6GJQsqaUBKTNV-1" source="1CRE_iQsh6xUmbvRWO65-71" edge="1">
          <mxGeometry relative="1" as="geometry">
            <mxPoint x="370" y="939" as="targetPoint" />
            <Array as="points">
              <mxPoint x="470" y="939" />
            </Array>
          </mxGeometry>
        </mxCell>
        <mxCell id="1CRE_iQsh6xUmbvRWO65-71" value="&lt;span style=&quot;font-size: 14px;&quot;&gt;Firm bankrupted&lt;br&gt;&lt;br&gt;&lt;/span&gt;" style="rounded=1;whiteSpace=wrap;html=1;fontSize=12;glass=0;strokeWidth=1;shadow=0;" parent="WIyWlLk6GJQsqaUBKTNV-1" vertex="1">
          <mxGeometry x="426.19" y="838" width="143.81" height="42" as="geometry" />
        </mxCell>
        <mxCell id="1CRE_iQsh6xUmbvRWO65-82" value="" style="shape=image;verticalLabelPosition=bottom;labelBackgroundColor=default;verticalAlign=top;aspect=fixed;imageAspect=0;image=data:image/png,iVBORw0KGgoAAAANSUhEUgAAAR8AAABGCAYAAAD1oZDGAAAAAXNSR0IArs4c6QAAAARnQU1BAACxjwv8YQUAAAAJcEhZcwAADsMAAA7DAcdvqGQAABQ6SURBVHhe7d0JXFTl+gfwH0qShAtuhQpiilsqKrlvpEWWlts1tNLS7C92XSo38l6Xv9etwAqsALtgonYlHc20xBTIwdwuEIggO7IOOwKDojPMc8+BgyHOgMLIYD7fz2c+Ne+B8bznHJ73ed/znneMSADGGGtkzaT/MsZYo+LgwxgzCA4+jDGD4ODDGDMIDj6MMYPg4MMYMwgOPowxg+DgwxgzCA4+jDGD4ODDGDMIDj6MMYPg4MMYMwgOPowxg+DgwxgzCA4+jDGD4ODDGDMIDj6MMYPg4MMYMwgOPowxg+Dgo0vBSXzYzghGRvp+9cWCw6nghbPZ446Djy7txmKZx2LYSG/NHXcj5qYG4nr79/8qQ25sCOQn9sNttSPszMRPisFuzxO4quLwwx5v/O0VtVEn4/DSWZjpGSq8scbr7oewf4kdzIwqNz8oUiYiaO8OOK++iqmnjuAfI9pKWxh7/HDmUxvj7pi+aTuch5oLb67hp7Ub4H4hr95dJiOzHpiw+Asc/XEi5L5nkcNh33DU6Qjc4QK/OKVUwO5FKIs7hI07AqFQ6/9ibb5RIP0/08LoqW6w62+MS36ncE0Zj8Dfm2HkG/bo+VR947YxWj07BEPSjyCo9VAMbv+EVG4YpAjGt1674L5sFmas+AnJN3ORGJYOk7590bnlX7RtouuI+GYbTtotxd+HmOOuRJbyEfr9Lvh8sxaTX1uHU1lFyIsJwblz53Au6Ed4bRQCVnprDBxig/Ytmt7xocKz2DbZBbkODujbqqH7ZwTj9r1hWy7DmuMtMXFYZ7SoZ9avldjtYnXQFFK4+ywyEw4XYEY2TjJKUWmkjfWjKcmg5Nwy6Z2BlV8lbwcLMntXRpkNq9YjQEOl4V/RDOfTlK+zrirKlDkJ5/st8k2qcY5UmXRmy1Tq8+4+ir3Z1A5WEYW7TRP2exK5hSulMj3QZFOA8yLhM4ukAv3gbtf9MGoL2/c3wM1RHH5WIt7TGc7/iYeqcmu9GJl1hnUHE+mdgeUn4NI5YNTYfnhany3bQ6RJC8TXrq5wveflDr+I69JPaUFp8Hf7HeNnD0c7nXUtRkJ4BJSDh2GgVY1zZGyBsU6LMenkBmw8eq2Bdy1vQXE5Wk9dGoIq7jj2n7uFVsI1WnJTLZXrgVFHjJn9HGRup5Gpz96XFIRYnTSkSpGRk42ZePgJZrPIPbxQKH3UaUgp30CWGEnr5PlS2V9XeaIvTRvnQVFqqUAbdSR5jDEni9UBQi6hTSrJ5vUgs0XHKEcqqR/xc5aTLFMlvW8AVQL5bdhD4Wc+pR7oQfNkqdIGPak4JnPIO/amVNBwnPncN6H/azUZ6z5fjD7iW+VBrF31HUKLyyu2PrpuIiUqHGnmozD6uTZS2V/VbaT/9zdEOgxCj+ZSkRaU+gf8z3bAy8N7ClmEbsrTMUjVY4JRf2rkBBxDxqQpGGjTE6NxA1nXS6GRtupFc0sMmpSHny6mNzDb+5Pegg8pr8DvIwe00jqxTnwNwOLjGXrbccMwQefJq7Br/QsV75SnNuGDbUHIfWiVuoGkw67Y+u12OM38AvIrv8HHdSe8PVbDwWEr5Ll6uPIpE6H+YcA4W/Qyr+UvsskQuhdJP+L/t+6Ei9N7cJWHQe7jBnfvnVjjMB0b5Vm1XGNCdyosCaP7dhHOpC7lKIyLgByDMLZ/p7sHo6uUFyEnqQCwMEPLJtBNpQI5PC4MxDvD28HI5CmYmyuQWKDn4ANTdOnZFZeupKJEKmko/QQfUiBox35kv+YBhaYIIa4u8M9XQ5N5BKs8IyFkuEL3LhIeU7poP5n1VowInxV455137vO1Aj4RxdLv1pPY/12xDS4vWQpvCvHf7eux9edUoe15CG5cxpG44Vgyzx6WYeux8OsCvPjhB5jR+wlcu5aHYn2MFZSk4sqlQgyeMBBWj8R4TxFCj2RgwpK3MdYyDqsW+iLvxUVYNqMfcC0DOcW1jMTRdWTEAt06PiUVaFOK5MjLKLTsB5suOkJUUQZiogphbtcdzxg6XlMBLu65jBGLx1WOYbXugK7tgOwEhXB16pMx2nW2gnFsBvL11dhK3a8G0aSepj1yReX4x60/yO39/ZSkEccSXGiFf1bFz1TRZP5GrvNGkvlyf3p0Rxg0dPOKF71uVtHIEmwW04HEUmmb/qijvqcv5HmkSfKlqZhMbuEl0pYaNCWUlpxHDz5yoKGyEBeyhR2tDsiVynRrEnfo1Fdo9xfBVKSJJ9+pPWiU2x90S9pUJ1UIufSwJ5cQHcdRJN350319Vo2R9SenY+mV13y9NXTMR7wO99AGv4Q/z70mmQ44WhPmyShTKiJNBsld55Od+QoSkgKp8MGphGulRw8XCtHDEJVIzzOcCbcjPPB+6ATsXmCNBB9n/GS7GSsrnyuQFOHCllnYbvUNjsztqTsTIiXSYq/DvHfXes8ofriELpHfSkya7YF44Z35mwcQvtcRVnofRRP688dXos8nT+OXi84YYXrvwSiP9oS9YyFcdGwnZTpiC9uit6VZjeNdhjifeei9vD1kcTsxw8JYKq9Euafg8qsVVr7VW0iRbyDa8y045q/GxX+MFJLwmsqhTEtGoXl3WJrpSAc0iTi8aguO5t3POFkr2C3ehGUjhGZcC8o5jg/67EDXX3TNFNeyP+pQuPZZCfgdq3FN/okUh7Gg14co/CZQ+/VJWTj58auY5D8V8ovrMLa1eMLrqjvhRsQerPw8SMirqitF6u9RwJDnYXXXnKpmeGr8h3BdYKvlOFejisP3632Q3r5DtS6MEgk/+8ArbRlCYlbCruKUEm5d2IY+2y0ReGQuuuv8e6q9HupQV/RxFA7fnc9toIoQpDeFdH7zfKFlEe8R5JN83Zx7W5mKlmUmeUTVlimoKT/gn2Q7X0YZTfl2kiqJZE52QvAeTPMPxNFtqVi/cilgtV0td17qIM7RWPMKzZelaGmlM+jYoj4EB2+KLZeK7rhNGTIX8oq6v/kimvzTtMb27yTLeDhH4W7lVBTwCVlYfEIBRffseAWt+1Nxx+alWjIf6XN1zpPR0O1Yb5pqNpI+8s+4czzrX/eGZD63KfP4l+R5z9ybEgpxsSdYbiC5smoPb1Ks9xwa4xEp/GXpVlc9KjKfMXXcKXwAem2nKecs9vz7GQyxEVuVUuSmpCE97+5YT9nRCD6XgMADe+G7dRmWyhLuni9Tlozgw17Y5PwzbPuV4cKJCOTpzM0MMOZTDZUVI7dQgxe2uGPHGzZ4KHOVb11D2MlS7XdexEcEdu6A65oPtAy0knAoz+Kw11Y4+3ZEP00YTkTk3v0zpYm49EsMLIfboEuNK4GKQ/DdkQ6w72MKtSIIO123Y838z7QMcpciOfgwvDZtgq+tNTQXghCR97BvASkRHxaCkpef1zKLt5b9ad4GnZ4tQGSKrtGQMqTHRUNhMRj9u7eUyv5EysvwWf8Vij/5DOscOgtZkSHqXokKgrErZABmDWwtlVQxRqt2HYG0LORW3YmlHFwJ/gPZgT/gO99tWLxUhqS7Hmy+n3qohb/nBGQ/1xUd9TXOJQUhPSgVouubZOF0jLIrAq7Yqvan/pvPCVuqVPaXrR33UaI4QzhTRvP6b6XzpTXaZKWc1lnOpwOpjdGK1pMqlfzXvKCX2c61KRdaWgfM0jK/QkOl573o8/PJQkv3Ojl4XxXa7Zqk8QnHA5SqZRfVUR40Bra0vOa4XMlVkq15nSZVfKaQzX7uRefzLpDLSF3zPMQs9wVyPJB8Jxt4qCqy5x466izStT+lFOUxjQa7hWvPACrGkSy1zPRWU0miP7k4OtC7nhco567z3ZC61zPz0eSQfP1SofegLTsTZ2cvEiLL1D97F+Lfk/W75Jsonjvx35xMm88XVm67o656iMduRp3Z04PQX+ZTnoTA3dfgOM0OHSv6lO3Rb/QgZESlVstcxDklkehqb4tuxkbQlFxH1jUF8krvvimoyYjHxW7DMKCzYZ970kl8NshjBeaEvY7vP50KK6EuD0c5ridHI9JhIoZb33vnpYXNVMzrlYKj3i3hOMZay63LW8iIj0M3++fQudouUu4FfOe6DWs3euKsOEZw4t/S7GAXbFk9G0Mt+mLm163xpn134TNbwmb2TPSK9od3qxcxpueT0qdUo8lB/MV2sB+g49a0vl1PweXIQZg+3FJLnQU696clrAcNE1r2GGRUb/jF57n2u8Fl/b+wMyANT+TKsXeHNGPaZT2WTZuBhV4J6LvpB/gsGo6O1c93o9ZdibjjbljtOBmvbpIjcK8/om9Uq4gqCSd3bsenPmeEN2Hwc/8MOw5HoyQlCkFdh8Oum3DuNKW4npWJtLwblb9Tpa56UDYi5eWYOtQK+kp8GnmGs5gNTZJm0qoo+9hyspjmS4l3NV9qyvdfQdYVYxxlpEjKFHqsTclNSpEtJ5s+q+hYhqGfzZLGKMQxm6JsUpTUbJOyyH/5pMo7WapsSkqr7/M+4rjTKCHTuEJFimwqqdk05vvTcmtx/EVNKsU1SjP0M0+17U/pJXIZs0R/Y1MNqrseZzjrpKacY0vJep2cxLOvyT5GThZvC1lQjWu3jnpoMmQ0f5w7hd/S37nVX+ZzX1rAtE0rtDZtIUS9TJw9koMlq19B92a3oAg9g1DFLeFnypAWm4jhQ56FWY4cvqey9DxZqiHKURziiYVL8rHi4D8wubOhn80qQMjJEExaNBYm/gcgLxD7+NWOZXkWYuWdMcTGFDmBh3Aqv56zsYsv4+QPtlj0sjH8vz0r/KsEtSIMp0IVFfObytNiIR9uCxuzbAT6nkG+gU9YrftjOghvfmSM/f4NezavSsPq3gkjV/wfRuptEEUbI5iYmsGstSlMhBorzp5G0pJFmNJduHbVCoSeCqt4tqz2etxAvL8/jJZPxUA9PtbeyEtqtIRFNzV+3H8O2RG/I3nkEix70QommgQcXDgDc2MG4v1JvdBWk4nAoKtIT2yJl+ePR5cmsXSBOLP2IJZM/x49vb7CylGdGpR+kjITKcUt0Na0IfcsNVBlReO/CRlQtJmIOaM7o0X1Y/lKb5gU/I6gpBQkGttj/gTL+i2JQDeRFRuKhNxCtJkyHaM7AYkHV2Hi3CgMfX8ierYtR0GgHEnp6TB+2RETujzZON0vHYxMVLXsT3O06tkD2COD4vlRDVgapVLt/1ZdjNHq6Y5o1exhHi0h+FhYoNWPh3AhOxynku2wdtlEdDVphvKEg1g4cS1ihs7AK/1MdNRDaGhSf8G2Q92wctlItGuux32tTICagNuRtMs1qH63kxuBpiCYtrwwit71jri32/GgNPl0fqvzvamvvjTKsVRS1C5Pnbe6mzYNqTJP0Vbn/zTBZTEak4ZuR+0j19ommN6Mon3OX9DpTP1fq00hpRAoEXfkLNq89jxq3jhsEsqise/jNTg9diO2zhvQwEmPQrco8BusvzII48XUV+8a41iKK9ydxIk24zGqYpLdo8YIxhYTserjQSjLE7v6j6myWBw50RKvjWovFdQkZPt5hAEfL8ZEC/1fq7yGc13U6Qj4lxOWpM7BUY830evJ+kYeIX3NDcfhrzZj7aY4vHTMH9/o/Vk3xh4dHHxqQ0WI2r0Kf9tnDS+/1RjX8QHGZ8THQyJjkV2Ui6T4GFy5dALfe/2KRHGbxScIiNmMCY9k1sCYfnDw0UnoHgW44K1p6xCk1zXGzdB/8686no9i7PHBwUeX21HY+7ErTpfo+75xB4z/eAMW2DbJ0S3GGg0HH8aYQfCgA2PMIDj4MMYMgoMPY8wgOPjUREqkX8u/jzWZCaq0C/DbMhvt2s3GlgNnkVxWNXxWiuTj6zBh2Htw+eGPWtYjYuzxxcGnhvKr+zDntV0Iqb5UgVZGeMJyBP42ZRSsC9ui7/gR6H5nAqIJnmrRFXO+3YGVbwxGB55JyNg9+G5XXagIccfdservF9F9iT26VoRrMwyY+S5e7v4kkHscTs/uQM/f/lwXmAp+w5f/McV7HwxDaw48jGnFwaeKuCSphx/C0hOhnLweG8Y9I+Q2pYjb74pDbd7Essk22p/pqliU/G0kfBkAzymdhciTi+DPZcCC9zH2kfgeLMYMg7tdFQg3Qn5BxNCZeKFjBs4nXBdKBAVn4XneDgt1BR6RcSc8OxqISi9AubjeT+gxhAyZgTHmzXAjei8WPD8F7hF3r2PNGOPgc4e2JUnVyVfwR8l5+FYtqXnn5YmTyWWVvwhzdBvwDKJiMlBUFoXDwVZ4y15citIIpr36oV9pH/S21LL06B1KRLgvwPrgAuk9Y48H7nbdoUFx4D/R59Oe+O3gFLRu1h4dU70xVz4Ke53617JwmAppfotg5TMAh95qgeb272GaVWWwoTQ/zFlYik0nFqCXrjBPCdg7fSvwhQfmPpQlNhhrmjjzuePeJUmb9xyGEceP4lzVV5BoVfk1spa/ekBm9BImS4FHDGYl8RE4dzsMJ/Z/h60f7bjna2coLwK/7P4WPpmtURp2ptG+doWxpoCDzx1Pomv/ATCJPoqDanu8atlC6IvZ4oNvhyHgw004EByLPK3fjS50r7r2gN1UZ2ycXf27u24i+Uoq5qzbiOVzp2NCh9PwDlZI2yoZdRiAMdbNkTFpJubOdIBtB318DSRjjwbudt0PdQ4iTp7Amau5uF1RUO1Wu05pOPzONqg2u8HxmVh4vv41zL2+hKOVEYquq9G6rakQtooR6roQewe4YXv3VES1s4MdByD2mODg89CooPB3g2dKJzyTHIUbry7D8nFdYCzOC+rth9Eh/8bcZ28hwn0pviwZhiFd7DD7nRHSd54x9tfHwafREUqD90D29GzM61Vb5sTYXxuP+TQ2VTx+DrXASzYceNjjjTMfxphBcObDGDMIDj6MMYPg4MMYMwgOPowxg+DgwxgzCA4+jDEDAP4HJHJyNKI8m/wAAAAASUVORK5CYII=;" parent="WIyWlLk6GJQsqaUBKTNV-1" vertex="1">
          <mxGeometry x="257.5" y="957.5" width="297.25" height="72.5" as="geometry" />
        </mxCell>
        <mxCell id="1CRE_iQsh6xUmbvRWO65-83" value="" style="shape=image;verticalLabelPosition=bottom;labelBackgroundColor=default;verticalAlign=top;aspect=fixed;imageAspect=0;image=data:image/png,iVBORw0KGgoAAAANSUhEUgAAABEAAAAUCAYAAABroNZJAAAAAXNSR0IArs4c6QAAAARnQU1BAACxjwv8YQUAAAAJcEhZcwAADsMAAA7DAcdvqGQAAAGxSURBVDhPzZNdKENhGMf/m8Lk+0JuJiUXFJNEU4R8XEgitZJcKYq4cqFIreUWF1oupHbFBZIbN+Zj5SNf81Fi8rG1RBubkdjZeZzZq52zVtRu9qvT2/N/3/Oc5/k/55WRACJEztaIiJ4kEk94mxH6+SN8sDhILJR1ndCoUlksJVqM/fqthOC9WcbYnA0JVjNk7b0ovTbBTHLY541QDOsxWpkJGXtNiuO3EjcOl+yo6etAhfIKg10GOGq70d+aD9zZ8fTqDRwLB7mExw93TrPjJnLzFjI051D55DF9/mz8A+8BBZIw+McV6kmrIt3OC1NC4chjtZDVw7FYQEgiMpaH53wby/FqqPOTmSaFnjega5rA/ivPFAFZnHg6b7AcHcDTUIK8pNChvePWtIhprRYGVTb43XWcOLjAVkwK88SP74Jm6nOofuaCfEyS4qStkWrSzN0Sz5QA76J2XPc4PStCS5ky/M/DP8Gyl46qgoyQUStElfyFc5UGsodozc2R9+GObB/BesJ+NBw+2yW2ylTITXyE0bAJp8jbfyeRZxWjTXGMpakFuBqbUZgQbCpaLiDwDeb1bHOlekxmAAAAAElFTkSuQmCC;" parent="WIyWlLk6GJQsqaUBKTNV-1" vertex="1">
          <mxGeometry x="637" y="983.75" width="17" height="20" as="geometry" />
        </mxCell>
        <mxCell id="1CRE_iQsh6xUmbvRWO65-86" value="" style="shape=image;verticalLabelPosition=bottom;labelBackgroundColor=default;verticalAlign=top;aspect=fixed;imageAspect=0;image=data:image/png,iVBORw0KGgoAAAANSUhEUgAAANcAAAAqCAYAAAAgcc5yAAAAAXNSR0IArs4c6QAAAARnQU1BAACxjwv8YQUAAAAJcEhZcwAADsMAAA7DAcdvqGQAAAmpSURBVHhe7d0LUBT3HQfwL2JDwCOKigYVhQi+BqGR+kCtEhN8dFSsicWa+iDVKraGiRg11leN2mmITWDaog1gJIHqKDAGLRg8UEREBQMKDZxwKAjHQ15yIMixv+5xa/TwwDtl8cD/Z+aG29/eze3vbn//x/53BhPigWGYTtdL+MswTCdjxcUwImHFxTAiYcXFMCJhxcUwImHFxTAiYcXFMCJhxcUwImHFxTAiYcXFMCJhxcUwImHFxTAiYcXFMCLplLviqToZf333GMaEf4HFNr2FaPfV0/Lp8bhCJAQdw7kr0fg0rAFLNnthkvXPNPuaFLhy8hr6/G439q+fAZveJpq4gKrTERESgwunQ3EozQFrt8yDw6vq1xCaKrIgvcLhbd8/w9dzDCTab306dXE9n1rKCFhEEsylgAylEOvOelo+L4v7lBuyhGDzCUlrW4SYBlcWQz42tuQRkE71QkwLd5siVzkSPMNIzgmxVhw1lyXSPo+ptCosm/8EwzznsJDQLDuF8JQmWEKJuvsqId5ddfN8VApcv65Ad/8Vnk0tCq7LgEljYW+pfVqbDHLBOx6vIP74FdxqEYKPa7iNDKkCb85yxnCt3skEvQf9Euv8puHM+gM4WfhAiOvn+YpLJUd0hArvr3eHBRSQldwTdnRT3T2fiks4cOASKoTNl0q9DBej8uEyfSyGtB2+cfWoKW0ABvSBuY4zvuV2NhKLRsPDaShMhdgjpujvPAUeyhQkXr8rxPTzHMWlQrk0BsVz58PZ0QHT0IDSmnpwwt7up6fl83LRFMhIuI+3hZkQ0yA0/HAawd/3hfeKmbB7Yt7UhML0ZCRLJmLy2H5CTJccnM0xbFTwzMVFVUkISnXGysn9YWLWB1ZWCuRXdd+Tsafloy9SZuHYR7NhaWICE52P8fA5VcyfosZMKBCMgrN9XyGmRvxI+Sz+9nEwXt0ZiH0LbfmBXls1kKVnAVMnwmmw7otXLdXlkMMKNhIzHe9v37MVF1Xh8pHrmOIzA/3Vn/baQAzrD5TlKVCteUXna8hE6HpvrFy5Ur/H+q+R2aDnKfEi8jEGpEDigXCULQiCgqtF2uf+iKtUgSuJxscHb0BFBKIbCJo/1KCTquvVoSArB7DqBUX6aURFRfGPE/gm0A+Llp2EzY5T+G63xxNXCls1FeHGuXzYTnbEUJ3V0ILaojxkYzhc7a11DBs7IFzYMABH97OO0K5jedQsRIgroKNedoQVkVQihIgeUElSAK1wdSXfuFIhZoyMKx+uNpX8vf5JGfyZbbCSSFqhdcwd4wrP0pEkBf8N8Jp+oIA14STnOFIm+ZOfVo5G/ls2XiV/FwlZ+cZRpRBq1VxGGd9uJLe3PqWzJY1CUFtLbgjNhksHeVVS0g43gpUvxZT9dIboxfB1rmYZInaG4s6AgY91e0rkqdcJij5EWs4muD7sXZtSsW/MPzA8IQTL7bVHwo8j5R3kVvfDaFtJ17eQxpIPVSDz5AlEBAfis5zfa3/uE+4hM/Qv+Pv5NhPs+4W4eA2YMG04zIWQxkDM3LgLH7i8Jmy3RXiQGYQ16bNw+AM75IVuxXcue7HJVSLs5+mZO588inJrYDV6WDvrQk0oiNqL3ScLhe2Ombr64MsPp6C9I1fjZKGYN3o3zMMSEL3cQfs753IQOm8WfAd8gexwrzZXA1VQRG3AqHfr8C+57ryo6gw2Or2HuNWncXnPDM1xPDVHQWuJ6Y1vwU59SQczaoXth+oozd+dYLuLkpSPFgpaW4XpQZTdUSvMlZF0yzzyjrytaUG7lPHl05zmTyNH+lOaYY2khoE91yPVdGmvN/mnqb8HdUv9W/55nWaXQK/cSUWV0u3k4h1JxV32Y6qoPGYDSbCEQnJ1rERxNynM05ag89grSLrZlfBmQDsjhXrKDVlGkjFbKO6nXkv/HA2ac1HVBfw7bTyWOLdtR3rDsr81UFSKinsPFxJUKMu6ipSyczj6dTD2+2xDpLxB2KdGaCxIRtSh/dgaZo1x3DXEZla0P3EWYc71QvMxIlSejCPBr2OCo7qnqkfF7SLcuVuv2dnqabnzGgtwIeoQ9mw9DZdxjUiNzcTdLkm+FjlX0qB0mQSXEW17HkLzzSRESoHZ70+FQ9sJU0spZCly2Hg4wf6JyVQLlFkR2Lm9Fp+EbsLsQfwwwtAchSJ7Oq6cknZuoKBsXXctNPON5lr+Yzz5/Q/XwNUtoAd5heXye9X715HT3pQ2K+Tq8f0usvU6SoVd3W0ZaT5d33NpWmebdTFU1nrMxRSz1qlNbvrkzlMm0Q5bbzpa+EAIdAHVDQqabkU2m6WkPf5QUV1+DO14y44cV31Lufef/EE4eRh5wpFWtR1lcLWUH+dPXm5r6ODVUj7jxxiQY7uj+keUkJ0KQXBYOIKOP8C8B3GYsWMxxlkIg81mOc4cjEDsmfP8Rj2OBX6G+tm/gY8nh+xES7gvHcb3AyrU1VTiVlEl/wrAovWNak0ovinDCPf3nlz4E00X50PlSD0cjuQqXbcG8EzHYuEff4VRr3TZF6CtRY6Ew7fgtd0V1q2HMADjpv0cxbGFfKvsppmjtJTokTs/vSm+icsjJmHpEOG+PjFRGVKP/AcXfkzBV8nNkNjE4dDn14T5lgr38s7jvzJ7LP1TNC4udIH1Y1cKNfcTxiPnRgyk4DAz6RsckGt6Pbp3i5+31mD0nGXY8/1HGCXR7tIMylEoss5XHkNr7YQ5C3eHYta50aIwGWnf9VVKcb5zabO0ovXKjrzIiO/l66J8Xsyc6yn0yp2fi8T5kV1rD9JICnmJwffiGT/Dcny2dS59mFmgr0QCCzMTkOIyouW/xub5b6CXSoH0+GtQqPhRFz/mzU0awo/1LVCecALxle207sagO+Rj7QY/Pzfws8XO1V7ufE+tSD+PdEUT/6JGFOXmY/KENyApT0JYfGkPXIA3LEfT3Tzheecys8YISynCU+XIjFfAbdsf8M4wc3B5x7H67W3ImbgYcx36gqu6iET5beT3dof3LFu8qNHRU4mdj/pSfOwZnE+OR2RCCQbZ9YKSGwiH1/vofzm/lyUGD7Z89ttu2tNO7iYteTi+ejGW5zhjzdxR6MeVICHxR9zJN8cc75kY+op4bfeLYQozA3J8Af/lhND8vwgEls6B36yBQqw762n5GKg5C18F3oWXn3uHa1Evo65vWhpzER1rjgVTBwiBbq6n5WMQJWTRyei74BessHRg/5+LYUTS0wbFDGM0WHExjEhYcTGMSFhxMYxIWHExjEhYcTGMSFhxMYxIWHExjEhYcTGMKID/AyKMgZf1uKMUAAAAAElFTkSuQmCC;" parent="WIyWlLk6GJQsqaUBKTNV-1" vertex="1">
          <mxGeometry x="261.33" y="1012" width="205" height="40.05" as="geometry" />
        </mxCell>
        <mxCell id="uXu_tWn5-189u8rHyBv3-1" value="&lt;span style=&quot;font-size: 14px;&quot;&gt;second balance&lt;br&gt;K=L+A&lt;br&gt;&lt;/span&gt;" style="rounded=1;whiteSpace=wrap;html=1;fontSize=12;glass=0;strokeWidth=1;shadow=0;" parent="WIyWlLk6GJQsqaUBKTNV-1" vertex="1">
          <mxGeometry x="250" y="921" width="120" height="40" as="geometry" />
        </mxCell>
        <mxCell id="n1kMUdzWRj9xPfAeY8Ex-7" style="edgeStyle=orthogonalEdgeStyle;rounded=0;orthogonalLoop=1;jettySize=auto;html=1;entryX=0.432;entryY=0.218;entryDx=0;entryDy=0;entryPerimeter=0;exitX=0;exitY=0.5;exitDx=0;exitDy=0;" parent="WIyWlLk6GJQsqaUBKTNV-1" source="1CRE_iQsh6xUmbvRWO65-37" target="1CRE_iQsh6xUmbvRWO65-40" edge="1">
          <mxGeometry relative="1" as="geometry">
            <mxPoint x="130" y="43.19999999999999" as="sourcePoint" />
          </mxGeometry>
        </mxCell>
        <mxCell id="_zRx91GoixDhQrTPMXNZ-0" value="" style="shape=image;verticalLabelPosition=bottom;labelBackgroundColor=default;verticalAlign=top;aspect=fixed;imageAspect=0;image=data:image/png,iVBORw0KGgoAAAANSUhEUgAAAFkAAAA5CAYAAABd/4f1AAAAAXNSR0IArs4c6QAAAARnQU1BAACxjwv8YQUAAAAJcEhZcwAADsMAAA7DAcdvqGQAAAdGSURBVHhe7ZoNUFTXGYYfAiUKK5afGjRgKiSKEKWKmqholKapv1GZqjGdmGomHWOqZipRZyraUG3VVZNqM0JTtEAjCl0yEzWiBomghiJG8IcCQVDURRAQAQFh2dO7cLFiMKyyuxH2PjM7zP0uu7P73LPv+c7ZayMkUDArT8h/FcyIItkCKJItgCLZAiiSLYAi2QIoki2AItkCKJIlRPExtrw5Bpf3DlEh10yJIlnCpu/PGDtQxfgAb5zlmimxMslN3PxaTdCCBIrlSjP6YrJTnJgU0A8buWRKrEtybRYxa7eTnHWV0ia5JiFKskk9mc/RPTFE/3kpSzT5NMrnTIEVSa4lLy6Ok70c4WYNdbrWfTFBbf5Zvpr6PhvW/Jb5CyZQ9cd4Tteabt/MSiQLdEWJ7G6YxuLR7nCpCG1F61Cu4/KFc3hM8OcZOxv01ZVcv1RM2W29fL7zWIdkUUxSVCmTXhvJc16DpEIFldW6lnNUUpBZy0S/ftiioyzvLOdeHomvq618vvNYgeQmKpJjSRsbzAtOdjzpqJI6iBtU3JVsj0PvXjg52EsXQ8vxz0r53YrJDDChmW4vWVSlE3ViCO9M7CN1DrY4ubnjwnXyi6vk/3BlzFsz0cbvInpLJLnT17D0RTfTdhmGX0a6L9XifIRa7L1cJx8LoS/aI+biLeZriuSK+enGPz8JGi/Gs+bjb3Ht96Rck6jP58DGCK6szSAnJAA7uWxWmlV3R/RFYn/YLpF5Wy8XZBozhNob4RmaImrkUqfRl4tT6mViW2b7r9hNM9kw2cWRMXYKQx3uS9cnHHHx7suVyzdoTeVmRA1Xcq5S81Dfa6kbydpH+KqFvPZ+Fnfu9t5t6ZaSxc3j/DXSidnjfvLdCUyS/GN3Bygo5ebdVZ/homxk+qb0tuI7xA43/+ksWh/KIm+51A7dS3J9Hvs3hzD3F/MIO3WEmM//K63zWpEyuvAw29er2XmiBDLj2PaX7SScOUtqQgRhqw7g71tP2sEsykw9S8mx0QENQpuyS6hD54sA6SmqkfPF6k1qof5XhqhoE3l60ahNFtvWfiSiYv8mVq6MFbl192Xi40hNigj1XCD2FDXIhYekOecnCHVGtVxoy0N1F/q8nUwetIF+mi/ZGdy/nV6ynNQ1m9C+vY65T11g24wEnt+9liBn062ezEHz53qrgQ+/WoRv81uVsjYtln8el0Z8uzjg8+qbTBvo2HKoO81mnxDYu4+QAFVL7V6aVRuFTpTuWyJUzBaRuf/vO9tSJlJCA4UqYKZYsu5T8bW2Xq4/zuhEeeJy8dMVSeKWqBfFBVrxoE/3QDoYyQ+RybfISc+gxtOX556+p+9sgyuBKyLRLB5Lj6yPmLI4jgLT7bOYiXqu5F7kheFeqEpTiD5yHVO/ZeMlN2m5kJyDc/Bo/BzbW3QaoiKISXF6Xl4YwsYty5nU0x47k65PzUEP+o8MpOc3Gj6OqWLq60OlMDAWQwt3mIT4RNIrrpGemEDCF9+dOI3OZFEYwyyvP0D0UT5749l28riWAs1W/q71YlSfOgqyGxm+aAFBfR806q0HIyXrqTq6Gp+fn2FV5r9Z6i8HfqeoImvnB2w9ViYfd4QbL/1+LQv9neTjroORkqs4vflXjNg6gqScdQQ5ddOFopkwzpZeS9aR86h+OYLBve5/io4bh8L5NK9ePv7hsLGxeawerRgnuTyf9JMwZpwvT90fxkJLakpPhg344bPX8KV8nB6tGBEXgtupHzB4/GF+k7KfsHEuct1AE1VpH/Ju9jSiFvq0XDHDRktuJc6DPFB9b2dhPZlsMN4Bt8WFHTMEzstFYrlOrhnQiepcjVg58df3LE6kxj5ptfBfoBHXusBq2lJ8z0iWsjZtL1GpWaR/soP4spdYtmoCHs3DtZ7S9M/ZEX8KZkaTpXkDr4ZCUr84iGbDP7g5J4QZvn6Mn+yP22PfJ5sfo/tko7idyprBu/A7EcFczx/JRQXjJj4j0V/7lv88M4oh/RTB92JCyU1UFmaTN2YgHrZ3uF5YLIWKggETSjb/RktXxYSSO7PR0r0x7cTXZWmiJi+R8PBk7vgNx7MknTTVLEIXj6evnY3U+pdSgivuqkf88cEg2bqpF9ov/yRemfeJOFctrwP0xSLxvQni9T0XRZOoE7mRaqHRNracewRM2l10PQx3ex4g7J1MZq2ex/OtI9XGmYHDn2Z37Aku38nh0EVfAt0f/TYYK5d8i4yY7YQPmEKQz73bt7b0cFTB+Ut8c/AY9nMC6dOJRZV1S266SmZiLsOmBuDdnomSOKLzRzBnaOf2S6x8JBvozRAPF2nstoPzqyx7+0WcO7k1YN2SbfszerYfBVfLaZBLzZ1GwVHi9p1DZe9Mb0cdxWfzOnXDi9W3cKLmPPHrIzjdfwyjVLcoLKmj17MTCQ6yJ2mlmjODh9HH4xXeDfaRVgKPhtInWwAlky2AItkCKJItgCLZAiiSLYAi2ezA/wBATLZzPwmuPAAAAABJRU5ErkJggg==;" parent="WIyWlLk6GJQsqaUBKTNV-1" vertex="1">
          <mxGeometry x="129.99999999999994" y="97.88000000000011" width="70.46" height="45.12" as="geometry" />
        </mxCell>
        <mxCell id="tUkHc_xTFzyi2Ebl5Laa-5" value="" style="endArrow=none;html=1;rounded=0;" parent="WIyWlLk6GJQsqaUBKTNV-1" edge="1">
          <mxGeometry width="50" height="50" relative="1" as="geometry">
            <mxPoint x="724" y="659" as="sourcePoint" />
            <mxPoint x="754" y="637.07" as="targetPoint" />
            <Array as="points" />
          </mxGeometry>
        </mxCell>
        <mxCell id="tUkHc_xTFzyi2Ebl5Laa-9" value="" style="group" parent="WIyWlLk6GJQsqaUBKTNV-1" vertex="1" connectable="0">
          <mxGeometry x="654" y="600.0000000000001" width="112.92999999999995" height="27" as="geometry" />
        </mxCell>
        <mxCell id="tUkHc_xTFzyi2Ebl5Laa-0" value="" style="shape=image;verticalLabelPosition=bottom;labelBackgroundColor=default;verticalAlign=top;aspect=fixed;imageAspect=0;image=data:image/png,iVBORw0KGgoAAAANSUhEUgAAACcAAAAlCAYAAADBa/A+AAAAAXNSR0IArs4c6QAAAARnQU1BAACxjwv8YQUAAAAJcEhZcwAADsMAAA7DAcdvqGQAAAeISURBVFhH7ZjLT1vpGcZ/vl+w8QXbGNuAEwKZZCCFhFyqLCp11VajqupiFqMuuui/UHU1m0pV/4Quum817bRSMmlVZSKlmWTUTtJJIOGWEDA4NheDbXy/HNunr7kowYZoCkM1i3kkhHV8zvme73lvz2eNKuAbCu3u/28kviV3VHxL7qiQaq2rDaWKUi5RrpQplivkCxUwWDCYrHRYLVitJkxGPXrN7lN7aFSpVUvkMhnypQblug5zhwWL1YrVYsak16JrfeZ/gJArqbnVJdanHzM9P82jZy+498UianCM4NAo18dGGb8yyNBpH25Z6U2p1XyUZGSC2zducvdZltmMi5Gro4xevsTo6AhnPSac5qMHR57UoTfbsfl6CYQD+O0azK+miMe2iBeMOHvc2G2iguYACXRaVK2WelbFZvfRf2GEc2dPcUqecVt0GHW79x0RbzThBlQXeX7nBrd+/Vs+tr6P4/qP+c0vv8+ATUi2CdCgXk6Qjkd4eGuScnAQ59VrjPnMuEzHZLWLN5YUZfRuHP5ehr97mo7cJqmpeeZWK6SLQnwf6hLTEluLEVZmlim+O073yDCjXjM2w9HD2Ir95LQd2Nw9DFwaJmDMw/oCE5E0G7kqr2dcg0YlTyk+R2wzR1T10B3upzfgxmXWYdAeowJa0LJNIxZnN8GRMQbcVTqKy3w5t8ZautjUagdSoVVRdXNuguWilnX/BQZ7nITshub2vla0kJNqtDow9r7L2QEbQXOa2QfTvIylSNRVIdhASS+SiM9zLxnG4AzzvUEHTpP+ayfWRFuCaAwd6DrDhAd7CHlga2qa6KsN4pkiSmGNlfgmSyt19N4+enp89DmlB0oD/L+QQ2OWwvARHAzTG7KjX5phbWmNyEqKUnKO55EKLzd9jH8nyJneTozC6iSINdFObvuStIPeAcJhP8PaCOnoYz7/9wR3bydoWJycu3Yaj82E+aRY7eIQcjqs3f0E+kNc9Ocory0zN7fKat0pzdrHqX4XNumwbeOs2TLrFRQZh8Wq9MHG8XzsAeSakMJwBvGE+7g6YoJUnvWVhjTlcQJngviN2nZiTah11GqOYrFAMl9DkSI6Dg4hJ1AVGeoVitkypqCMtZEh3vFa6ZJedjDq1MopNiZlzt67w+8eRFlMl6ntftuOJnGp/nyGwlaaVKkuxmH/Zg4nVy1SyRVZ29DT4QkQHuolaDdiO1CyPaioEsqGhLe5zFt1k36JkmRldp75iUXieYVCy04OJacWUuQ38sxHvbhsfs6H3HTIoD98akoOWrx4r/yM9374Ez78wSne8VjQ737bhnpOXM0sj2/e585Hj3iRrpBtVa5Vyj25q1ubJFNZntd86GxO/C5Z6KDRJAXQyC8Rmf2CO/+4zSd/+if/erTAmqKh2iZdc0ZXyK0tsPj4c+7/7Sb30hs8NaiUowukEtLsxRfuUdK2F1TzgkI+uc5GKkPMGsDkduFzGhB31II6daVIPh4lEYuw9GqBZ/ceMjO5SDRfR9KoBfJuVRavFshtxHn19AmrUvXFgA+XRkHfqKMI/z2fpLW0WdVm4EukVmOsp7bIh8J0+p10O/Ri31rvVSQ188QmEqgaE/2XwrirGerJJAlxMtW2qEhSSJPvDPTh7+slZNVx5vQAwxfHuXL5Auf6PPit0gl2RdDueEhJYLVKYWWOyMRn3P3073x6/ylfzsdQdBusRWaYm5hmLlEkXX7TPkkOipW3nz6D1yGeL7/KPF1sdXgJufSYDyweaVO6mqinkn5lxSNNPdzjkqOAGaNet8/Wa3eW2pFbKW6Rk3CuxNdIKzZMXUHGh524DBUZXWkypRqVfWrIy8wduAb76TRKDOOLxDq6qbi7RRV12wm3OsHtteoFStkqq8sO7Ho7AbcRbV3OI3UJa5PK7p0aKQjVtC2juI5qebu7V5Qa1VKJak2lqjVhMRnkz4TBLLuTre0rDLVGo5Ej9uBjJj+7w59tHzB2/jw/H/dgsNswGgzb8/c1ZOnCNFO3n/KHDycZ+tVPGf7RCMONDGU5LjRksw5RvKmg9nXOygWjRU5PDhzOLrw9IYK9vZwK+vB7XDjscqISl9tesTV5SZJkTCE618lgwIpLV2Lp8TLprJzolAK17Cor62nxheVtJRuFNNlahXlfCI3DgLmSYnlygURCGnKzIHZejHbvw5EhIwslQy6tJb3eRdBax1zLsrQkxVSSI2cxKbk8xaQs/mx+g5xEQ6nI/NU1yATt1HQFKql1lpZTZHIVKazd9wq0lsNnxFeEJJbkTWe3BW+/QmbhpRSN2Pqxs3R2mtGmpPv/5xM++v0t/viXJ0wVVLIWOWY6bVw2RsnPPGVmfpXcuRHsfh/dhp2QNnH8n8Ak52hkWX8RJfZyhWKneEBvAIeErK9T0iC7QPLFQ/56Y5OSd4CLv3iPEUMS7UaC2Scr6BxmDF1dmH1hgk4zXXKk3MPJ/z7XkOFf3iJy/wlpnY3atesMiRH0vHVG7+DYQX07pANIzlXWZ1hQnaStQYYkj+xvNrO34ITJydlCZ0Zn9dITDhEKenBK1CStvhJOPqzHwAkrdxzAfwGpPjwakUVy5QAAAABJRU5ErkJggg==;" parent="tUkHc_xTFzyi2Ebl5Laa-9" vertex="1">
          <mxGeometry y="1" width="27.41" height="26" as="geometry" />
        </mxCell>
        <mxCell id="tUkHc_xTFzyi2Ebl5Laa-1" value="" style="shape=image;verticalLabelPosition=bottom;labelBackgroundColor=default;verticalAlign=top;aspect=fixed;imageAspect=0;image=data:image/png,iVBORw0KGgoAAAANSUhEUgAAACEAAAAkCAYAAAAHKVPcAAAAAXNSR0IArs4c6QAAAARnQU1BAACxjwv8YQUAAAAJcEhZcwAADsMAAA7DAcdvqGQAAAW/SURBVFhH7ZdrbJNlFMd/vW/t1nY3doMNuXSMMUEciAN1RGcUowIBURPFa4zGGI1GP5io4YMxMQZjTPxARAQcoihMggOUjYvcQTYG3bXt1kFHd+tl69Z1a1+fbh0MsxVEiV/4JU2TPud53/973v95zqlMEvA/I498/6/cEjFCFE+ECPhcOG211NSbqTp0jLMdAfG7THwSMN17P4X5JmbmTyFFG8TdZKWpvpLDB05hbumgl3gmTJ1NYXERhbOnkR6nGLrqWETJhAy5UoPWmESyMZZBxzE2by6h5Ps9nPIlkT05g9RkA7FKuYhUoIkzYFB103j0d3b+epxar5qkrCwmpuhFTFh4FMKZiM6g5HNWSaXvF0nI1JLKUCy9vdMmeQJBKRSJCBP0XZBOffeB9NzSZdKK1z6VNlXUSA5v/1Ux43EdnggSDPTgdrpE3lQoJ81ncUE62qEMDBPqvcjZvb+wt7KHjKKVvPzq0zxWaCI9Xn05JhrXFhHsx9fRjPl0C3K1luT5c5mZpEY+dPUg/s5GTpaVUfFnB7o5j7Bq5SMU5WWgV1+/568ZGQpnobmO07VeVOoUbr9bPKF4x3KpH7e9kvJff+dApYfkwkd5fMlC8jL0qK/n8UdxDREhBn1uHNY6qv0qVDHTWTAzDVWgC/uZCsp27+NQo4rcpat4tCifbKNGWPSfE12ENECvp5WG6hqcCg2q5BnkJXowH9jF9h9LOdIzg+UvreTBOZkYY27k9sNEFxHsxeOo5+zhRgiXWWqIS+Xr+PCdb6if+ixvvfwQcyfq0Sj+Yf7/RlQRkr+bLruNansfSuFEQ+Aw69/7jO0WHalTJpKoUUYM+u+IIiJEf3cHTZZazvh16A2FPLn8QUx6FfLeCjZs+QOr28/gf9CDo4gI0ONy0FRnoUepRTvxbhavWM2b7y4hUdlL05Zv+enkRdz+YCT+xhlfRKgPr7MZa5UdRZwW47w8ZqSnk7/0GVbnxKPuO0zJlv3UdPTQfwPZGL1lXBEhXxdOSz1VNj8x8RPInTedNKUadfpCXnhjCUZNgJatX1NSYaWteyCy6zoI9uFrr+G4OHdGGEdECL/LicVSR2WfFr02l0WzMggfwnKVEdOyV3izKAudoooft4qGdsGNLxTZGo2gj87GI2z7fB3Hu69sGEeEH0+7HatZ+EGhQ5tkImeSbnhJpkCZVMCK1Q+To1Pgq9hB6cE6HO7+4fUxEWNB90XM+zbx6UdrWXsslVlT4iJr44kQit0OO811TmQGPQkFeZiSlJFFUZNyHdnFT/Ls4ikYZGZK1++g4nwrroGxzCGqrL2BM7s38uW6H9hVfpo2fzVlX33B+hPtQ94YU0SopxOHxUp18yD6hCzmLMgZ6hdXkKFKyKf4sYWkGmR0V+9m18FqbB19VxluGBGrz2Ra/l0syEmlX53NPU89z4tPPM4D0/VDXXYMEQN0X2rCXHOeGr+C2JgEJqUZ0ERWLyOLI/uOueTGxBLrt3CodDf7K+20+/9uDuEjjYgRFaYKhQjG53PfogJyTVPJShi+6igREgPeViyn9rCt5Ad+KT+HKD68rgaO7ttL+Ylz2FzhKpCQxPxw/sQh9h+rw9UXCNsY1/mdbNywgU07fuNojV1UTHgUHMGPt81OY60T5eR8Zk+O+CvCqBlTEtXjofOSHUuDBZvdiXdQqNSI0zIzh9unZZKSmkaKTugOuLl4oY2uthYaau10+gNishDtJTGLqbdlMSkznQmJRvQjTS1wCXPZN3yy5mesD3/MtjXFpI1+B0Pz1U0lJA10npP2rH1VKpy1RHp9u0UKRFZGGNOY/y1BejtbsVqdePS53HlbHD0tDtyjrHPzRUi9uFptWOvbkSekYAzYqGpyi8Z3pY5uvoigXzTCTtqdXgbE+dPV5SE4IYPEUTPIzRch02DIzKWgeDFFc7JJSZ/NIpPxqhvf+lc+wi0RI9wSMQz8BWrPEc9Gx33SAAAAAElFTkSuQmCC;" parent="tUkHc_xTFzyi2Ebl5Laa-9" vertex="1">
          <mxGeometry x="95.63" y="3.5699999999999363" width="17.3" height="18.87" as="geometry" />
        </mxCell>
        <mxCell id="tUkHc_xTFzyi2Ebl5Laa-2" value="" style="shape=image;verticalLabelPosition=bottom;labelBackgroundColor=default;verticalAlign=top;aspect=fixed;imageAspect=0;image=data:image/png,iVBORw0KGgoAAAANSUhEUgAAADsAAAAkCAYAAAA3pUL9AAAAAXNSR0IArs4c6QAAAARnQU1BAACxjwv8YQUAAAAJcEhZcwAADsMAAA7DAcdvqGQAAAhbSURBVGhD7ZjZb1xnGcZ/M2fmzOoZT2bGju1xPB7bSZrFsVqVlpICLYtQJYpaCe4qIW64gjsu+BeQEDdc9AahVkRCiIoKqFrUkq5USZvGSerU8RYvE9tjz77PnGUO70kHKTHUCU1D65ZHPrLl7zvnfM+7PO/7HsfFixctviBwWILu3597OLu/vxD4QpG9dRhbJjTTrGYtlkshpsbDhAMuHN3lvYRbe1bIdsorrG+s8t5KjVpbyO9R3JKs1emgFUo4Oga+wV4UVdmTXrVxC7IdIatRyRo4DCeD/V5U995N81uc3KDTaVHMO7B0lYF9blTX55asLmTrZEse9JaXmM/JHnbsLciaLTp6gawrSFvtYZ/sdu3VhBXcXHosQzxYp1EqUm6YaO1t9MYar0wHCIcj3H88jjsUozccJBJUr1tqL3G/maxZprS+xPL5dzh/tU6hUkShxKorgasNcVFk1/FHuHfqIA8eiuMVpnspqj8k22liaVkun36bq9sttmMTjPX58JeuUV+aYS11kkgkSNLcZuXcBYrRw3hPfJ1vpyS0fUr3UZ99iGM0WsVrbL53mum5da7WPIQSY6QOJRkeHCLo6GN0ZJR7jh3m8JFxRr1ZttYWeendNJt1DXG4wA4OSQFNp9USURP7fSrThZRJS8+zPrvK6sIWZTmE0V2y4cSqUFyb4dypZzmv92EcOcnjU/0Mhwy0pslGvpeQWyXi8+JSwwyORynX67zx5jwr1Ta166w68tOiWq5SyNXROrdDVvbIpk/KKJbVETEtY1SvcOb5t3jjpfdZk2M1b3iB08jMsTyzzKm3kvRGDjA5vg9VjuDQitTELpvBAXxuj3jYPpmJoWmYbU0Cwq7BXVJajU7mLK89f5pnnnmHD4rSiOzWVZptyZwC+VKNUk2/Q8LiO3FYbuk9zr34HL/71a959q053twyMO0jd3fZcNa3rpLezHCGcXr64iTjPpx2GFYLaJZGrb8PVVXxYGKaTcq5gpA06Y2HCLoV3PZTHJINSoBQJES8rwev4thFuDSahTQb51/lwtIGSwUx3B3DidPlkYZHwU9DIk+n0JDur7v6LzgruU0yzQrXjqYI9IeI2hIrIWEUipiGhms4isvrxilharQKrC9vCzEXqaND9PsVvKaObrrRQ5OcfPwRnvrRg9wTkbzfqVu2AUXNDa1EdukC5/90ilcvLjCTbWCIC+yQ/nhwibGDRJOTnPjK13jyew9zeCBKT3f1RjhVjw+Pz4/D7cLpFI9IuFpSb8vbujjBwUjCj9frxKxtU1u7wtn5BL7AEZ54KEGfv0l+bppzf3mOF079hj++epbTK1VahiTLDnTaFfStWebOvszLf7/A79/sQc/n6FQ3uJSuUm3fKCV3B85APMHgvjjHCpsSunXKLVE0q0Y250RvekhI2+Rqb7K+sMj0dAYjOcX45DEeGPTgr6yRq5RIN3S0rQ9YSaeZyTTE091cvgEOp8zAqh+PWaWhd5hVxukbHCS1P0zQo6A47n574gwMTjA+OMJjrQ3YznJNrkotQ1qG9VLJoscoU99aYP5KmukFB6PffIB7Tx4k5TFw5qUOi1I3E6P0q1KE2g0K9Q+FYSdsou7oKEMxyevhGK2jJ0hNTjIlJe7QQICAx4Gpt2nXa9RrMjfvetXlatHWRUe6z78duBwBqadTLp76mZvLqzPM/vUc81EHS4s1yQaFjeosphpnX/8xHv2hRMH+2PVW0SGecMWPkxK5V9qrnD/jxPdQmLGRCB6ZjP7dT7YFDKrFPIbVJn4kQbTHS+D6Rlmz6pTSi6y9f4XlZgepervAK27qY+K+CUbH+omJIN5OXDhtFQ3Ehhi7f4ojxw9zaCjGkNLEd2CY8MF7GB9NMTY2xsREivGxBPt7fQRk9HE4RbRCffQ4WqjVTd5tDdAJ9DIakVQ3O+hSlm6GffomlVxVSrJJ8kCUsEdqo9aSSNJFpBRUuT88IAZNDDM8vNs1yHAiKkaX+fq/CP8d36AsjO15GnOneVH5KuH9o3wn5e+u7YR9m0l97m9MnznDz18f47vfmuDJbyRRPPHr42BAsdDbHVFBiRFFF/ErcO7pp5kpeUk//GN+kKwT87jJtkIciHvxS+7eCaziPMbSn/nJLyWjBo7w0188xpg8MtS1x45yKJOOtHvFjEZQyk24R+3+/z/BVlzJUanR+c0shx5Ist9VRpu9yFypTaEt01M5y/L7V8nkq9SklaNTpJCW2bgQItnvwtqc49ryEpelDavdfTHeSVb65KbBdkYlqLrpDXx0ayBBcf1S3F48XpVQJ0NJxsIN8VLc58KvbbE9e5YXf/sHXnl7TlRaSpmU/JAMGB5vjcLVS8xmOhTNICP7VLzu2w/Hm2GnhzQSmVXWpGJcXtwgV9wgn11h8YMrLKTzbFU+bFx2sGnRbJtkinZ3pNIrofjRsA/nxh9L0J8cY8TTRPGH0MIjpMJyr+RnM3eNtUvvcGl+nQVRd8sRYeDYEAOpAOQ3KDpiuEKDHI3bxt3tXbtBIkw6vWa5QCFfZrPmJhJzEw3pVCXqcoUaVXGgnXQ352wnzeJMhtdeqPDl758gOR5DjrULLEytKXnZomHaoqXidrvxeaVB6UgZya2Qv/w6/7Duwx2f4InJILoMEZpu0Ja665T9qjQzPs+dfIe2jy8dn0xchtbGMNpIu4AlXZ4/6MHlkndIG2l/O9vxpUImoFyDtWWdxMEYYVFeacY+HqR5qGyts/zuZYpDk4SGD3Bvv6e7+Ong5thxhIjE93PiS8NE74SoDcsuJ1DU4sR7ezgQ3U3s/jfYUXo+SUgNFbaaZqKI2CmKIqWnu/Qp4S6S/ezh40rgnsT/yX4+Af8EbSDglgoAd8UAAAAASUVORK5CYII=;" parent="tUkHc_xTFzyi2Ebl5Laa-9" vertex="1">
          <mxGeometry x="47.389999999999986" width="42.61" height="26" as="geometry" />
        </mxCell>
        <mxCell id="tUkHc_xTFzyi2Ebl5Laa-3" value="" style="shape=image;verticalLabelPosition=bottom;labelBackgroundColor=default;verticalAlign=top;aspect=fixed;imageAspect=0;image=data:image/png,iVBORw0KGgoAAAANSUhEUgAAABkAAAATCAYAAABlcqYFAAAAAXNSR0IArs4c6QAAAARnQU1BAACxjwv8YQUAAAAJcEhZcwAADsMAAA7DAcdvqGQAAAEJSURBVEhL7ZO/S8NQEMc/V2PTarDqEKS2IEVEFNRB0EFx8p91dBUcpIuji0iLqODSlv7wR6JNkz5f5LlkS6CL5MODx93BfeHue6I0zJiC+WdKLpKK/yMi/uBFvT480/+e4E1NNhVz+q3i1taobbgsxaGYkkF6rWvVvLjifuDRCU02DVIEe5uDk0NOz/eoFwU7MR8J/KF66w3xJxFBprPUHQsLOBWHyorzK5DcQX7xqZDPbls93bXo+AHvUYbJiQWWy3qjTmOryrJ2l5V0V/+xqW4vb2iPfLphFhHtruImu0f7HJ/tUI3dlRQJx576+vAYR1OyaCC6o9iUyiXKizbzcWhKf+TuSgH8AM66VfoW3AFrAAAAAElFTkSuQmCC;" parent="tUkHc_xTFzyi2Ebl5Laa-9" vertex="1">
          <mxGeometry x="30" y="7.5" width="12.41" height="9.43" as="geometry" />
        </mxCell>
        <mxCell id="tUkHc_xTFzyi2Ebl5Laa-20" value="" style="endArrow=classic;html=1;rounded=0;exitX=0.876;exitY=0.969;exitDx=0;exitDy=0;exitPerimeter=0;" parent="WIyWlLk6GJQsqaUBKTNV-1" edge="1">
          <mxGeometry width="50" height="50" relative="1" as="geometry">
            <mxPoint x="766.24" y="653.7637399999999" as="sourcePoint" />
            <mxPoint x="722" y="677" as="targetPoint" />
          </mxGeometry>
        </mxCell>
        <mxCell id="tUkHc_xTFzyi2Ebl5Laa-21" value="" style="endArrow=classic;html=1;rounded=0;entryX=1;entryY=1;entryDx=0;entryDy=0;exitX=0.971;exitY=0.015;exitDx=0;exitDy=0;exitPerimeter=0;" parent="WIyWlLk6GJQsqaUBKTNV-1" edge="1">
          <mxGeometry width="50" height="50" relative="1" as="geometry">
            <mxPoint x="782.04" y="635.3369" as="sourcePoint" />
            <mxPoint x="735" y="626" as="targetPoint" />
            <Array as="points">
              <mxPoint x="775" y="630" />
            </Array>
          </mxGeometry>
        </mxCell>
        <mxCell id="j5H0h56bUbIma8D8IlT1-16" value="&lt;span style=&quot;font-size: 14px;&quot;&gt;first balance&lt;br&gt;K = L+A&lt;/span&gt;" style="rounded=1;whiteSpace=wrap;html=1;fontSize=12;glass=0;strokeWidth=1;shadow=0;" parent="WIyWlLk6GJQsqaUBKTNV-1" vertex="1">
          <mxGeometry x="220" y="536" width="183" height="40" as="geometry" />
        </mxCell>
        <mxCell id="j5H0h56bUbIma8D8IlT1-17" value="&lt;span style=&quot;font-size: 14px;&quot;&gt;&lt;b&gt;statistics&lt;/b&gt;&lt;/span&gt;" style="rounded=1;whiteSpace=wrap;html=1;fontSize=12;glass=0;strokeWidth=1;shadow=0;rotation=-90;" parent="WIyWlLk6GJQsqaUBKTNV-1" vertex="1">
          <mxGeometry x="137.5" y="833.63" width="120" height="40" as="geometry" />
        </mxCell>
        <mxCell id="NNwZ8-mP0xMXk7h3Y8-c-2" value="" style="shape=image;verticalLabelPosition=bottom;labelBackgroundColor=default;verticalAlign=top;aspect=fixed;imageAspect=0;image=data:image/png,iVBORw0KGgoAAAANSUhEUgAAAP0AAAA7BAMAAABCqpFmAAAAMFBMVEX///8AAAAAAAAAAAAAAAAAAAAAAAAAAAAAAAAAAAAAAAAAAAAAAAAAAAAAAAAAAAAv3aB7AAAAD3RSTlMARLvvqxAidomZZjJU3c3n4gfUAAAACXBIWXMAAA7EAAAOxAGVKw4bAAAEsUlEQVRYCe1YzYscRRT/9Wz3fHTPR+MlHoRd1lXJQXc0F0U0jWQh5uCMsocchIwS8BDFMXgxHnYughJkRwQPIplWPChCtpEgisIM+AesBE9esqAIOeh+abLuRttXVds91d3TMz2xM3PxHerj1e+9X3W9qppXA4wj+jNtoPgwtAfHsUoPe0HbA0rbKLpmek6TezLaxj/AmS1gsZfcKj2k2sj/BaxvAK866XlN7klF6QDoNIEZQJtGCGZ/AI7Tt5eBTDX5xFND1prIuuTta6BipeY1uSO3Dn2H4G8Cs3Zys7SQyt+AepO8zQGrjbS8JveTo+1f3gaMljHvzjeTG6aE1On6mblBa1AHWBgmLcYfFHf6/iO0BCwME5eak71/B0obyNFNMHnRfz9aP/vLh0Sc2Zo8u8xYmZN7k293m1lz8qx9xjUzQ4dgerLuXAiQ/xro3flO4XovQDKV4yDN4H9+aTHGat51bInwL41lEwUH1//K/NLpBoG0+SWcf8qJwvuavOvu0klic/gvEuDP38KLHZvcqfVHMnahOsxx59R3tTkY7TBGc32hX5yREuCvmdBd9tVHsHkKK1tDrJXHAeUAaiOCOfetJ8zTKJH52c90dpdZfIDjbaw3hxiXGjT4Gc6SxU8C9uwQdPyQzH/mT4g0DRtZytiYvGLzKpg0v0u6u5m+hIv8XcUx9/JyUOEHxGtwUDRQFE+RpsHh2SLBvjc5Vk6a1aPHuI6KTN3ymgDlGDHi0fq1wPFA7bNgiUBprk1pklgQdT/gK5g0/+yN6ff0vCaUoIWvH9GQ1l9xG/RCqnKDCmVrkszaUgc+v/JpX50/tIguax8zoCXx62zrrVkcxB4skgSTZp/fOEkJ1aUGA365uPOAMLjt/a/TIxU1m3tZbfPqDf7zGE6a+/z0za+VLA69zcRG+n6DUmONxYBk02RlzvyRVeGkuc+/Ac2qiKl2mwI6Zinx4wl6JfDjT9PgbpZBDweSUNLs8xdbyDprfKpYcTh03ELmXzezC+IUFcUr4ZwurtBQ0uzzFxj1YW9xXGaBl/mNhZPPiVNE/9VwKVd5xZLmkji9bJf7/DMNWhu6NJmMfNdc+e2WQAZKmZ8GQueu2+Lg0N7y+bs0WrhRZBgK0QscG1s83wmeaQEM8XfFB3tOOo0ea4aSZp//PI3NbKjI9kCRuo96wyTkW0DfClqsWoH+k7DwMl0KwaTZ52cnvtK6iNI+igc5O2Aa7axYUZ2s+bwu/iSRdHt5B9dshJLmax6CLZ5+3UThMeDSR542rl6040a4XqE/5wqh1+nl94D32wgkzfmH3KttbmH4wVKHej4cPLxa4qAK7eCOPWDUGqDjKqXljZz2GkNqQ1wt8YhPFk6EdgPHaq14E2/kY68xpM6NPKGDjXVzsF7WWnInpp0JxTYGFlEniK3uRKyiigrt1tdP1KMDIzRfjBhPOtzdwrKz2koKTx23MqctwW2m7jepw83mch3vJEWnj3O/WkrfaXKPivt2cvAdQOZ3r9JjYXpSvql1rOnRs8yiPCgBmdSUZqvI76EwKboID2X0mX18E9FPSrHZg3pAD+spiUYP6uK20ZoSPbRHifny02nR/wuq1my+xanYwwAAAABJRU5ErkJggg==;" parent="WIyWlLk6GJQsqaUBKTNV-1" vertex="1">
          <mxGeometry x="399.25" y="120" width="169.38" height="39.5" as="geometry" />
        </mxCell>
        <mxCell id="NNwZ8-mP0xMXk7h3Y8-c-3" value="" style="shape=image;verticalLabelPosition=bottom;labelBackgroundColor=default;verticalAlign=top;aspect=fixed;imageAspect=0;image=data:image/png,iVBORw0KGgoAAAANSUhEUgAAANMAAAAcBAMAAAAJl5eLAAAAMFBMVEX///8AAAAAAAAAAAAAAAAAAAAAAAAAAAAAAAAAAAAAAAAAAAAAAAAAAAAAAAAAAAAv3aB7AAAAD3RSTlMAEO/NVKtmMrt2md1EIonE3XbvAAAACXBIWXMAAA7EAAAOxAGVKw4bAAADCklEQVRIDb1WO28TQRCeSy62Y8eOm0h0jq4CUZxFiYQSISqac3h0oLikswsk6HIIIawAwqKgQ7H4A+cS0fia1HFJR1pEYeMQEhTCMjO7Pp/jm2sgTLE7O9881vvt7BkALNdx3CrIkn9xEcHCyHEOcfaU05V8e5ipBmCr0WXBxTssCwib7cZvmm21QVNm9I6mZDGZGpf6yTg0jgTAmAu/SMmoJk05LkhagphMz8Stbw4TomKmCuN5RSbrTgyYUQP2XFmfAcYG1x9ryfNeleyFYxo/9WmUpOcjUnwlwWCptogxMNinqfITB7tDqiQ6000JJr6bMkjIWkijR4x+IU0UzlRK2bgmQYwHYJKAeFgJU9wAKJN1L8VFkyA7LDFJgDxkn8hehFCmx+UUHyZBwpda2yUiiRlt1CQ3bcdMGWpzUZgECb3VzN7mtkMe8u43yU3bMdN7lfardDOQc0VFEurg+VOAAZJEPFjPPf59Gkkag+GFh6nXmZuBI4uPIjGZgjpePZ8WhePd8twJabL0Xm6A25XxtLbKjjBu0KbgykkHFlVIqiSW+giww68YchvG3b7yIq2t5umhXWuSn/eDroZPqpbJaVeNxVZ13JK+r5BbNVacFrYdXqS11RbeCGvSVrCJ1I1l6cZYeCto5kwLqs8ey7WxI81XeJHWVjtDfEyitgLY4s9JPEdc50xZtc+2vXoc0qVibTU5E0NK4ONeo7ai72M8/qyuM/VW2T7QP8746FKe4RGNMzcw6ADMHQGehWY0o9ZNbNKkG7TxHbFsS7XaMR9datJWMcioO/t4aEPLNzzgc1iddYosOtPyARvM7TCgLtVLif5cg+JaN1PHo9MJAn45ouTTis6U5w9FdrrbuZQdv8DToQClU9idX82h2dO7fH3QP+sTrU2mnLqGpsXpPVGpNyNHYcdI8uBu3WrdB9t1XLopgVLig3EdMyHteXzbuvgXZIgnoZ85ahB9gFKVv7Mv+1Px51lqq10MY8XOs1QjzJX/Uymv+TZWCXrxxT/W81fXJxlLT9WHzh+5ehC9hVn1uQAAAABJRU5ErkJggg==;" parent="WIyWlLk6GJQsqaUBKTNV-1" vertex="1">
          <mxGeometry x="403" y="253" width="105.5" height="14" as="geometry" />
        </mxCell>
        <mxCell id="NNwZ8-mP0xMXk7h3Y8-c-5" value="" style="shape=image;verticalLabelPosition=bottom;labelBackgroundColor=default;verticalAlign=top;aspect=fixed;imageAspect=0;image=data:image/png,iVBORw0KGgoAAAANSUhEUgAAAMgAAAAdBAMAAAAdhT4xAAAAMFBMVEX///8AAAAAAAAAAAAAAAAAAAAAAAAAAAAAAAAAAAAAAAAAAAAAAAAAAAAAAAAAAAAv3aB7AAAAD3RSTlMAVCK7zUTvdmaJEDKZq90Ryke1AAAACXBIWXMAAA7EAAAOxAGVKw4bAAACRklEQVRIDZWVO0wbQRCGh7Mt4zNg6CNhCToaFFJEIlKsgKgork1lKlpc0uESmkBFohTJFWkj3KfwlSlTUNGABELpIAmYt5bZ29u72/XMabPF7sw/385v770AkjGlg+LVEaObeP9o3VIdMWuXTktXOipcHTGmR3vAFEzZETM3pdmSSMOiwBGjW1R3REhXDNUBe2dsMJLZqmgaAp04YA/0TqkujoiAr6YVB4w3qUR10U1bsYELxpuUQ0902N5pwQXjTT4BiCjtxQYuWN7k+4aQQ0nePJr8YnvrghOWM/E2zs6XV86Wj+IG402Ai5buhasf/4J4us7kISwrZVHOZGIPtqGsS+8xeHuiM7nO/dCjl8nDWFZLo5zJT4CX8E1XWhgcX+LkB1qi1haKBPbFYHMmXfBP4EVSrcXnco9ZaQ0nbtDY+Jv1ZANxxqMRfEyqM3Ld/YtTo+jqc9hK0kad8a08Z33G5Ul4nVQX5Totr3C7K0NmcFhqEu/LHRdAP4Tfqlslkmv/D05fmzKk7y4CU3CBySHAjYLKoVwPbqC+IBY6SiPuLgqLYd7EvwN4VA3xOcbRQAGKvsEsxpvUHsBXX9zKpTJ5Aqgn/y0WrInHeJODNXyThNjI31LPdHsQQtW4aoZLAcabbO3hm6SLfY6FiOQyECIoqT+F6dCwsYn42RLyvudN9psAH3pWr8a8JdCphfEm5PZ+xwvIgila2H+a7Aal0OxHZhZmmnwmt+TE6d5mLmNDC7tgQbIwtjpJ6pZoYLVX4jSyADt9Bt6z/WUZ03wJAAAAAElFTkSuQmCC;" parent="WIyWlLk6GJQsqaUBKTNV-1" vertex="1">
          <mxGeometry x="399.25" y="743.87" width="124.14" height="18" as="geometry" />
        </mxCell>
        <mxCell id="NNwZ8-mP0xMXk7h3Y8-c-6" value="" style="shape=image;verticalLabelPosition=bottom;labelBackgroundColor=default;verticalAlign=top;aspect=fixed;imageAspect=0;image=data:image/png,iVBORw0KGgoAAAANSUhEUgAAALcAAABOBAMAAACQ3Zp9AAAAMFBMVEX///8AAAAAAAAAAAAAAAAAAAAAAAAAAAAAAAAAAAAAAAAAAAAAAAAAAAAAAAAAAAAv3aB7AAAAD3RSTlMAELurdjLvZplEzSJU3Ym/UYMWAAAACXBIWXMAAA7EAAAOxAGVKw4bAAAESklEQVRYCe1YPWzTQBR++WviOE0qygAIUUP5GRgShEACBrIBElItJOaUpQIWsjDA0kpAJX6kWmqHLoiyICQGIgQDEqiZEFsqGJhQI6EuLA1pq/Lb437iOLbvbMdnNp6Uu3fvve87x3l+9xwASVmemLi2LskhhjfaNbFT1jO5IcvggZ9peThlXcuaLIMYH0NlsVPWk0O6LIUYn0Fin7RnsC1NISYY+XdPEEDjf5pz7ryV5uon5t7JiQpp6qR5DiB3hVEcDMnEgXXSfNhyrVmqrNZJ8/NdHmWzq0ornTRf6hLlf3VVaYWleb4EyXv0zLhQbO+XJjUJWDWvGHBusERtBc10yc/LC5hDmYBYqTBF2SplOkUx5NAUwO7iFqj6pEEJx/QoeAlHAzEhP+ITRlpkU6hx9ughPi61xewSFThThl3sh3NukfmFn1KA1Dq8drqCrk8AqL+5wQMLCVDrkP4Be7l+f2O6imP4z3ehuQKDm5DbSJKYMLKNgPh3Nf3UgMxlgHsPwhATzB38SX0XoxNil68npuGQjMe5tseXQhxAb/kiP1so6oYY6+uJ44jYB48w177bRoeSowc8EJYrDl9OHixba6eW1p2WIwPaIZh2WrnrOXh/+6Hr6rihzKiUs2vVpLsni3XKBp5+mPAVrKj9NEGZ2sB3yHEQry6a0v2yGtmlU6CI6itZWPxGgwK0BvSOzOC9rG/lpbUgBZMaJfdvDZQqCTxdD06OoymGbkAGfukgnnyNjM8NMgYVRDFmtEdrwB5uNGSGBpiVP7YgszXgZAslT/Prlo3DWuRZIXK1Bu5smSWgrEdpsUhNLcvSOEBr8JVAJpsmMMg80iJRQVqDWzpuNz0KLme3hkaMQVqD+4dBna6TaFNydVMTzO8M5vBtDZT6jtFRO9uiJiB1mP1bA5bmNlhxwbYULvxbA/cZpqBxIZ/N4d8auMmzRZoMNh7uwr81mHPhzqyymudyOA3+rQGp5jZRF8b66fTd37yHTevRqRrXG91zxOnjrD1bg5ITMA+Vfl6AbjjxnuvHsMg5wYQQ18UJI7EjX4VCH8XA3Rp4kb8AKIhPFi9kAN8pgMGfAeLChChNgLj9oAlDw8dksTlB+523VRoRM/iBYayrtKsYwtBOXY2Ph6HhYlQNm9O9h3uhr1zjkprGuI61HOq5FY+qpk96nicMKVS3iFZrli6pPSZ4+j/R2WdETe1D+8pEiUDw40kENSFpfGR8fTU0DCIYHzE7KsEwsBqAX28teblk6X1r29kvqaBL8Aq/1xJJ9nRLibPj1BZqSCBELjeBruE3gywjird6qJLM1mMJqVaaFGj7Fycy8planbBXyqpBdyFDZORXoQRvcBNpxIeiJ9/K67BchYZ+BhKfiUxFeOU37wJMT0Hmab174dHdFkpZsoiJFtk9J2SxJhktyffmpWUOp6WtRCEEmePtY+GIeCjPbooH6Md2nRv8Fz+9ZgYKrnS7AAAAAElFTkSuQmCC;" parent="WIyWlLk6GJQsqaUBKTNV-1" vertex="1">
          <mxGeometry x="400" y="588.31" width="97.8" height="41.69" as="geometry" />
        </mxCell>
        <mxCell id="NNwZ8-mP0xMXk7h3Y8-c-7" value="" style="shape=image;verticalLabelPosition=bottom;labelBackgroundColor=default;verticalAlign=top;aspect=fixed;imageAspect=0;image=data:image/png,iVBORw0KGgoAAAANSUhEUgAAALQAAAA2CAYAAAButbPhAAAAAXNSR0IArs4c6QAAAARnQU1BAACxjwv8YQUAAAAJcEhZcwAAFiUAABYlAUlSJPAAABIWSURBVHhe7dxXqCTVFgbgPTPmnHPOOeecc5oxgCgq6IMICoqgiA/3SfBBfBMVRBgUBRNjzjnnPGPOOees12/T61K3rK4Op499bOuHos85U7Vr77X+9a+1Q8+kP/5EatBgRDC59dmgwUigIXSDkUJD6AYjhYbQDUYKDaEbjBQaQjcYKTSEbjBSaAjdYKTQELrBSKEhdIORQkPoBiOFhtANRgoT8nDSr7/+mr755pv0xhtvpPfffz99+eWXafbZZ0+TJk1q3ZHy7wsttFBaf/318+ePP/6YnnvuufThhx+m7777Lv/7b7/9luaaa658z1JLLZXmn3/+1tMN6vDCCy+k559/Pv3yyy/p+++/z9fPP/+cbbj66qtne84333ytu3vHI488kh588MH07bffZp/ONttsrX/5f6CmPvicd95583vXXnvttMIKK7Tu+CsmFKEREJE//vjj9M4772TDvv3225nQBjRlypTWnSkbmFF32WWXtOSSS2YS33rrrflZATHnnHOmDz74IP30009p3333TTvssENaZ511Wk83qMO1116brr766kw4fnj33XczqTfZZJNsyyOOOCLbvF9ccskl6eKLL06ff/559iPSfvbZZ/lz8uTJWYQWXHDB7PMg9KKLLpr222+/tNtuu6WNN9641dJfMaEIjbh33nlnuuGGG7JCbLHFFmmbbbZJG264YR6cwQbuvffeTOA333wzk5YiU+D9998/7bXXXvlvF1xwQTYcBT/llFPSSSed1Hq6QR2eeuqprKKffvppuuuuu9J9992Xfv/997T11lunqVOnjpnQyOsiPK+//npW6+nTp+fsOvfcc6c11lgj7b333pm8Cy+8cFZwF5IvsMACaZ555mm19FdMmBqaEt99993pqquuyqqwyiqrpG233TZtuummadVVV81pZvnll0/LLLNMHhiDPPnkk+mZZ57JFxXZaqutchC4B8FF91dffZXeeuut9Mknn2SST6D4nbBYbrnlsu0RiqAoM+aYY46B2Y7aIq2MyadICjI04dppp53yJSOst956ad11101rrrlmLnnqyAxDJzQjIZ7yYsaMGVmhlRKHHnpoVloDVz5E/UwppL/33nsvvfLKK+nrr7/Of1tkkUXSPvvskw3AMNKl5xhsxRVXzOpNERpCd8biiy+e61UC4fIz5RwPmPsQHT4DfkJmWRnRi2VmNxg6oZGM2j700EPp5ptvzgOgymrjqkmc1CPCl1122awklGOJJZbIEay08LsajKoceOCB6dRTT01nnHFG2nXXXbNTimVLg86Q6ditOCEfJL744oucXYkaeB/fKjX6wdC9K0Jfeuml9Nprr2W1Rc6ll146k7MqOhnWoCmvVMTYCE6Fw/BIKzWZEe++++6ZzEqYhsy9g81c40Vok3i+xwMkVloSsnYrH50wdA+ra19++eX00UcfZXWlut1E52KLLZZWXnnl/IzUpL5C9CKkTqRWg/cb8Q3GD0pFcxvLs1Y7TDSVmDJsvxg6oaMmNiDkFKHq4U5wv+c87zmK3CjwPwf89sMPP+SVrVjxCEKb+/SLoTPAJM2EwAClNYPpJt3Ec4DIvU4eGgwXBClWn2KteSQUusG/E2rmKDUDSkTl4T9aoRv8O1FFaAsBsXLVLxpCNxgKqhYDrHAV9xz6wZT//InWzx2hZrW0poi3LWpB3KWwty9vM0M9pAZut9SjDZM59ZOtTruCdvws3VmTtBxnUqgmVl+1u2yNuyz52DlUf1ntcBYk7lGn6Yf+VPVF3e5+YzEmY/G78cTP7ok2ymALDjH2sIn3clY8ExsH/t19xuh3NWMn57nHGKJ9n/oUNvfpXdBujFUwJmdf9CXGbSxxmayZpFk1crSAnfnHypJVow022GBMh5OMi+8vvfTS9Oqrr2Zfa9N5GxtjY0FPZznirMXjjz+e9+BjZYGBkNSWs10l674IVlULMZhTcWeddVYmNcOFQTmvm/16EDye42Drz54p7yztueee6eCDD650gD5z3AMPPJDPK1jc119br0go8PTF+QWHYdR2Zdxyyy3p+uuvz6RAEO2xA8c4SOO9tvSdi7A97z4Bb2x2NZ1XqNvsQVYHrLxj5syZmYDW3PU9iGwtfsstt+yJZGz37LPP5n7ZoQVjD39RSpMzm1t8fdlll+UDSzavpk2bNuazHPru/ccee2x68cUXs4Dx02GHHZZ23nnn1l39oSOhEY4hOQQRGYNDkEeqoAqaQEak9O9gn95evFRSJDan27a+6aab/qfq2uUwCsdoorSKQEVQ5rJylI81tusDFfW83Ul9MAZONCb3IZ2/I5O+6lOcKynuXjp7ctttt2WVnjVrVt6KR2w7lLburX17l38XKI899lgOIKTnOE60tey9RXC4AJO5jFF/BBcyG18Eo3Ydr2V7QeQcCyJWQYDqGzs//fTTub/aQkyffBlZqOhT49eHG2+8Mdt4EIRmV3Y47bTTsjDKyieffHIWoLGeiKxdHwsyP/HEE/kEHFLbZ3dghXKV4ZTW7bffnq677rqcSpDV/TY9KBH4XG211dKJJ56Yf+cUqce9HE0NDz/88Hwwpg7eQzmULAyyxx57dDR0ZBKq4HlBJXgOOOCArEYmJQGEcgrMfYLGjhZCCbTIHt7LFsiPdJyDBMjmb2wQ9aH2vV8QIQlb2hiirEVCI7N07ISbDKBNJDK+4rFJ4xBAThMimzaRVmAKumKmQk5kpsbu1TbyOjknqIyruCklCBGeKuuLzKLtQYHP1c+RZYgITljlGCtqJ4VB5rPPPjur6Oabb54NQAmrEClJKuHg8847L6dLO0ETAUgg1V1xxRX5VB81k/arzo0ghvEecsghWcEosUBF7gCibrfddrl8UGZttNFGmezIrJxiP6SN9im2IEByP3u+vLspkJRA559/fna8rXtHYtm2iDivIvCpPeUVoEpCZVgRgkx/zjnnnHwADJkdpZVJkDmUOaBvAu24447LfaTobDcoBKGVdsAGYzm/UUQtoanIlVdemVOO+phhnYkopvUiODOcvNJKK2XHivKHH344lyODjPJeIdtQWf25//77s2LpJ9WrOjeCdNSeMhoLoiE1W1AWqkdZohQQAD61I2vIAnY92SvaV+8eeeSR6fTTT09HHXVULodC7bWnXWXGNddckwNHZkNYQRD3BdTd/oZ4UXdGhqSwxhvQZ20SJ88Yt+fiuEB5MongsoZxC8iqYwVjQZHQSDzW8xtFVBIa8UwATRqkKBEuNSsfykpWBidLy+otta0UK3VT6Ugxw4CAkqKlcaWAiYia06GmduD8mBAiHEJIxVXByRmCANE4TACstdZamYwBGUFtrXZUVqkXoxST0Tz36KOPZpVlK2lYllB/twMyqO0Fk3qaz5QJyKLEUcr5m2+gCGh9EKR8U0cgJOdLQqYffh4E9EnADfL8RhGVhJayGJUDKRmV6XUSwJGRgpUrSg+rEsMCIlIvpEEQ/YuJbScYO6cidZCVM9pB+55x1ZGxCEFyxx13ZFsJFkSi+nWrIAFkQApBysbKC9kxSix+FMxILrVT57Li/x2IySyxVJfLIkHoQQVMpaWQOJbmwEvLM/FO4MhIwaKR8mh3WLCeapWBYikBEBoRyum2CsbOBoiFePG9xXZQklFA7ZdLmXZAPjZnK8qpdEPQTmQG9ysLZE+Bpn9ECXnUvzFZ5Q/90r9u2h009EGwUWgZiUAEoftVaJnMipU2oXJUDKHuksIYCwF6jWjKF+riZbHqMaw6mrKqS6kUNXBxvHq308VoSO0SAOxDbdpBMCNjXUovQ79kEeUCmyGd91b1p3yxL3vrH5t7DmH002TRMpkauB9hGiSMsbzdPZbzGwICpwStrAmVhGYMy0Bm6RzISL1OCtwvCEIJKJo0OCyVNvBIc4hsonrhhRemc889t+N1zz33ZONZ3VEXU7o6skZ26oXQRfsgpBLBikRVf8qXpTvERg71tOyjD8QjNn34gT+6KbHGC1WEJpayUT/9ovhsZjJs/FBJaOrDqIyM0IwRxOwW8Uyk9JigaHcY8P5Ic1YmqIIJV3xvru6ydGYyd8wxx+Sf44sF7aDMqFo9qIN+6R8Seta3dkzEq/pTvrbffvu8lm4d3mTTRFZpUWwT9KuXPg0afB+EZj9ENk+gzv30i+jKarG7DJUs1TijMgCjIENdiq1CPON5iHbi978bgitIxtm+hIkEtlt7uSx59asodSjaXNuCxu5fVR/qLkurlgcthxXbBMQelv29VwlkjmBHGInVzgjdL8wNLC2bsMdqUiWhpUo1oLQVHRHpvcD9JjoRCNqUhrU5DKhJowyQqjrVwX83BmHzMhA5bG6s/GHsw4D3mqiq95VAsTKjru8XCK1+lm2JDFQS2svUimbOyg7LLL3uFOm0GpwqmH3ruHqpn+J/EPB+u23GZqXC5KsfwrCH1DlopSvaXL/0r59lTv2KctHcx36A8oUf+KNXPw4Kal0rHHihL2MhtNLV/oaDX8aIX8GrSkKbPGy22WY57YlsNQ9S96Jo7lfjiMyoB9U6vUyUBgljcSrN4PWNMcK43QBBTLAojOf9PkhQURs91vy1bdYuNSN3t8HD0XzlOcTlbHsBxk6tBUiIU7e+dF+3NqqDfqmfYw6FgP2c32AbPnC2SJvlFZJKQiuwnU0wq1eHWXJDzl7StPst6nvGzFt9N4i9+n5hLOpLCojI1IIK+rkbIIPNIZszViAGPbkV7I6cshXyWTJlw1iZ6QY2ZZxRsd5uJYcw2UQhJjZqEFObscnSDQhSLwHQDkHoeK/avp/zG7KMpUg7voLdIbniUYxKQnuZVOAkmSN9fkdOO1nSdR0Q2DkGL3UvpTeRKm7zDgKczNjdGtqgKYLVCg4W5f5vPP3sBGNCEKfV/CzjsMkgEXMMtjrooIMyGdlcAHWyOaK6x4TLJoNaXICYCBs35TcBJlR8w4/lA0xlsK0sYRUhAoDN+y23ioSOElRW6jZjR3/Y4/LLL8+BaXJvAqx8CVQSmiqTcctalBUZNUChqDXjVRFJJHup02KMawbrf6sURVJLVee1gyRBTgbrprb1TPQjVITB64xNDRBa9mFU68txnNPz5dSqbWncmBBF+xxRtRGgD/rUS3+qQKEtv3GUDRFnaZCKUleVH+zl35DFp0DQv2Iqp9KOigpktaxz3PzYrow0DgQUUDaj/OzdslmUXAKiG+UOG8o4OME23aw9G6d3RhklqBwqcyYFDwmKlY1yO7VfwcJ8USBdGQCFIvn+TqUQFPkDdhfVNtIehaA0cUKvnaKp99xPORiMonBmuyOqAUQUrZQTRDsyMFa7qJfK3ece5GYkpQfCCr7i5AL0J1TSJ5VzQk4bZTC2/8pMGQPd9KcK3k9J2df72dxsnp39je1jGQ703yaRo63+HXGVVcV3+tnY1NIUUlZiN20hRdmPQR42Rl6ZVSDggOe17xOh+bkuW4UNlQiOPwhyp/jYhtC127lEfFzDC886++7kp7ZkHpnMYbnysdqO31jRsMEjK+MaIEPoiIGIDgZ2n0GrNf3djN1aLyMWSw0D4nS7YMjsGYSx00NtEEtm8CzsuOOO+dK+g+m+6QDOPThFZtDaF6nuE4DIpD5DPsFRhmdMCh3aoRrG5L3GFLtpHBwqYXzSOAf4jPEOqj9lFG3OgTKINpUkAh7pg7CyiovNKbAr+l8Eu+ubdVtLXVRPW9GmZ6raRG5jQ262YCd2kKkEgzPVxQCi4PFtIBkU8fXfsVj8AQJphQOpBVoV9FfA6KegdRaHTdiGbeMbLmV79v2dQgMF5DZwL2ccy0QmN9SinJYBaaXQM888M5OpE0444YR0/PHH5zRoq/qiiy5q/Ut7cJA068sIBl0H26aIyckUCFmRmgr4ZHhfvyp+W0QaHa/+lNHO5mFbpJLNfIlANugGxTapv3EKmGjTXMPqiD67R9ZlHyRzn8szjt4effTR+QhrPIvMgnx66/97Hg94r/+A07jLCt8ToUUtp0sjiAmUwMXJopSxpaEqlQCvi6iNNupAEdSD2hf9VL0TkJLRlRXtUlpAIKrTivVgbNn75CiE5MAixqs/ZbSzub4BMdE3Suc93aDcprZizMCHQVr3yLrsw3dxr4uPiRgbxbPaY8+o+ccD3ksw9bE85p4I3aDBREflKkeDBv9UNIRuMFJoCN1gpNAQusEIIaX/Ar+f5dIcEwV6AAAAAElFTkSuQmCC;" parent="WIyWlLk6GJQsqaUBKTNV-1" vertex="1">
          <mxGeometry x="400" y="360" width="66.33" height="19.9" as="geometry" />
        </mxCell>
        <mxCell id="NNwZ8-mP0xMXk7h3Y8-c-9" value="" style="group" parent="WIyWlLk6GJQsqaUBKTNV-1" vertex="1" connectable="0">
          <mxGeometry x="399.25" y="308.58" width="183.96000000000004" height="31.420000000000016" as="geometry" />
        </mxCell>
        <mxCell id="j5H0h56bUbIma8D8IlT1-13" value="" style="group" parent="NNwZ8-mP0xMXk7h3Y8-c-9" vertex="1" connectable="0">
          <mxGeometry x="55.639999999999986" y="3.170000000000016" width="128.32" height="28.25" as="geometry" />
        </mxCell>
        <mxCell id="j5H0h56bUbIma8D8IlT1-8" value="" style="shape=image;verticalLabelPosition=bottom;labelBackgroundColor=default;verticalAlign=top;aspect=fixed;imageAspect=0;image=data:image/png,iVBORw0KGgoAAAANSUhEUgAAADAAAAAfCAYAAACh+E5kAAAAAXNSR0IArs4c6QAAAARnQU1BAACxjwv8YQUAAAAJcEhZcwAADsMAAA7DAcdvqGQAAAImSURBVFhH7ZfJb9pAGMXfeMEYG4clIdCglCZN1faQS/v//wVVpaqqoi6IooQlQHEwmM2emY7HaY8pPRgLyT/p2YdvDn6zvc+EC3DAKI/vgyUzkDaZgbTJDKRNZiBtMgNpQzgLOQ9W4MESy9Ua3mILz98gapD+KBlI/MwVQAwbOcOEU9CldJXIajziaQgLN5wthqD+EKPRFD9uXXR6M1BRjJRsp0egOA2opSbsyiku6zYuGxZsQ4MqqrtsD8ICn4fTNqjbRrtzhw9fBvh4c49AFEMhJoclQTzH2skraPW3qJ5d4N1VGe9fVlC1dGiiGpn4F/EKLMdg/hjjiYtuf4bu0JMfvpcVKJ7KVbBLJ3heK6BVs2AZqpz9nVaAM8p5KPY8XWOz2cJfBeIsBPs7A3peShOy8qqQBk15rMnn02Q/NGmTGUibgzcgDjHjYCHEbQRKKbYBQxBGF2hM0iecKOLGVzUoQrqqQNfE1UriJN4FwumWs5ULtp7CdT30xwsMJr7MgUjJGhAfWqhCtY9hFst4VjHRqORh5v4jB1iw5HTWBX3oons7wKdvI3z+PpYhto8kVqsXIo2vUK6f4/pFCdetI5RFPxSl8I5JvObUuwOb99Drj3DT+YWvP6d/DSQdZGrpHGqlBad2hjfNIl43HThm3AvtZIDTgLPtHHzjYT5fYvIQSXSnopjsFooNKPkjELMEwyri2MkJGTA0RW6fLIkPgcxAugC/AQqG5P4w9HHaAAAAAElFTkSuQmCC;" parent="j5H0h56bUbIma8D8IlT1-13" vertex="1">
          <mxGeometry x="21.582146606334817" y="2.1336858006042303" width="13.934716347767708" height="8.999504307933313" as="geometry" />
        </mxCell>
        <mxCell id="j5H0h56bUbIma8D8IlT1-9" value="" style="shape=image;verticalLabelPosition=bottom;labelBackgroundColor=default;verticalAlign=top;aspect=fixed;imageAspect=0;image=data:image/png,iVBORw0KGgoAAAANSUhEUgAAAEcAAAAxCAYAAACIy7TDAAAAAXNSR0IArs4c6QAAAARnQU1BAACxjwv8YQUAAAAJcEhZcwAADsMAAA7DAcdvqGQAABCFSURBVGhD7ZpZjxtXeoZfslgLWcWd7GbvkmxZkj1x7BnAA8fZgMwAucq/CRAECTK/KEhykcTJRXKRcTxjWZZlWRxJLfW+cWdVsfZi5T3FbkdLL7LhsUfyfNJRNyjW4TnP+Zb3K1YmoeH3dqplj3/+3k6xCzwnQTKNkcQhpnGEKIoQRjHCkL8HIUI/RJyRMJVkQMpBkSUouSwkSeLMOWSyEuQch5xFTsoiwxnFeFnsHDji5QSxZyO0Bwg4BqY1G4Mxhgd9DDjcnAFPr2GqVzFXzWOeQy/okOQiJKWIerWARq2AoqEixxmJ7aUBdA6caToCswuvuwWHY+vwCFtHHWxt7mHr7ia2v9zAUG3Aql1G1FjBtdUyrq1UUK/VIefnOeZwebWG19ZqaDV0KKSicNaXBc4FOSeDrKRA0gzIRg160UC1qKCs8kLfh92x4FgxIqkAqTIHozaHZnMOrWYD8/UyPamAiq5AY1i9TB5zYheEFX0n9BhaE0SeBXuwgQnHZvsBPvr3e/jowy/hLF1H9id/AuOdn+Cnl4p4b62IhYpOqFo6DMIxdBV5LZeehBivQFg9a0zOo/tIxg8YUm18+I938R8c0RvvwviLv8TcH3+AD9Z0fLCqY6Eov3Recpq9YCknv2SKOPAQTMZwbRvjIItOUoEnV1AwdDQrGop5+auq9CrYC8ARjjUbMUMssE04toWxn0E3KcNTysgbBubKJ3BeFTQv7DmiclHb+C5ccwSb5dwKM7BzZURaEXk9z0Qto6BSz2R/UHAEGApBBPCpeezRENbIhBvzlXwRWd2AVlDoNVloShavEJsXDauIPwIE7gQTwjHHYzh8KdRKyBQIh9WoWJCgUshkf1ieE6dgkLgIHBtW36TnuIjkHHKLNeTnyqn6rVD+5gnmFUo5LwCHVQoMKSQOfAGnJ+A4iBQZ8lId+fkySkUV5VyGcDjhDwsOPSf2GEMWfGuCcd+BOYoQ5yjsWlUUmyWGFIUeJTDz8Yu44ktjF+9lGgK+jWQyYDJ20Okm6I0Uapk8GtUiasU8DIUdOd8qGstXyHFeAE4cIWGVSuw+k7GDbg/oEw4zDBoVwimxC2eIiVdE//SD8pz0Xo7P3soeYeKE6LsKxrEBSTWoinXUDA0FRUonepXACDtnPzNVnNBzYs9hyiEcL8ZwmocplZGjxhFdd80QXbf0SoXTiV1w2AmmUciO3EFgjTHxCScuwJYqkKlvmpUCqizjKj3nWzfRD3OkP45f+q7tDDhiObOWIY5ceJYJs9+D5UVwcgUEhQpyuo6ykYPB+q2wjH87NvPW2YF4CF0eSkBlHk8R8L8oyr9TO8dzWMJFP8Vm07XHMAd92F6IiVRASDiyXiAcGTrhyN8aHGH0FsKJ2ceFzjGcqYDDxvf4Hd+VneM5YikBosCBY5oYdQaYBBH7KR2oVqEVCYctg85+Sr4gONMNT2MmdgexPYQ/MWG7PsZ0BzfiplOPEJ5K2ZB41FNsUfb20NvYQveoj44ZYORN4fG9X8/E+8WYYhrH3EuEkCOiJ0758sn/nmVnw0nEQtkmsFLZQxPD/SHcgBsoG1Dnqygw35Sp+nSmG/lcWTxbQhL5iMwOvMN1jA53sD8YY8OM0eOmg5SOaFNcjjHsoy3sf34bj375CR7e28D9Axs7ZgTLFwC/jp3MyzANfEYAD9py2UCHCOmJbA+/IZzjU4woACeEM9gfwQ2nSMo6FCpjvZxHmYlYZ0jJF0aVqHoCThf+AeEcEU5/BqfvsbsXexZK/BiOdQxn/SMBZ3MGZxzB/CZwxLzcS0g4nu2mcDw/5GfOPPa8GU+HI0pEzH4qtBn3E/ZSPnqdKaKIOaZE4dcooaRT37DLVAnm/GZTnE/AxO5hYgXodyLY49mqChqTOcmmjpfhUjIqh45CYxFz129g9cdv49Lry7jSKGCBLmqIry9e2HggTAmRdQC/cx9725v4bP0Qnz4eYbvvprdcBDbhBmfZOXB87slGMHFgDUPC4TZDBcWigUajiLKuosBdCWV8hvsdm/AIL4VjWTG63SwhSZCpp2tGFgXSldIJhBwoEE4VpaXXsfLT93H9Z3+Ot965hreXS3itIqMimrcXMrFlVj2uPxpt01u/wNbmOn7d3scvHwzwuEcPYt4Rx/b1PYeXJKFPL7fIh80mXbozlBBONRgG4dQMlAoqNMKR+e7zlpxMA+YbeqBvwXRiHJoKc4eCXDaHaj5D74uRESHne/BENXS4Ka0CbfU1VG+8idbqItbqebTY2RpM/mcbgSRcdyLkh8/Pc+CafYboNgab97C9uYX2dgftPRN7A4cFIYQfMknTg9Konk3ylJ36aQlLp6gsEauGY9nMCxnshkW4LOOFQp4nTq9hs5nNzNz8dGefnV7iWTy9A7gcfbYiu5QBg0IJjCeUMhFyzgBhbwPD7Ta2H36OL+/exK07X+J/b2/iV1928Zj5xgxikQHTMDjTCAVTl95CsTo8QG/3EXbWH+L+3Q3c/nQXnYM+w9+lLmOIs1fsHwwx6FuUJ5QKvPw0LzoFjjgBll2q4ljAsTkR8+RuZBAO80FhpooLqpTmmvPAiI+bPgFnQDg7hDM8gcMt55w+wu4mhjs83fU7uJvCuYePCefXdzt4dECPY8YWIvC8EPh/OGxzhvvo7a0T9jruf7GJz2/O4OQIR8+zcrECDw6HGPZsehDhcG4BR6z4SXsGzmxTyVTcTHfgmUNMWP7GTMRDqYapWmLOyaNeVFI4mWPPedrE9WxWGe+x24fZ7eBg8wh7mwNYboxsyYBc1MgmRi624TseesMIgxEriutCBUN5Mqa+GWFnd4z+yIMTTS/2HHFMTOqZDA8tR3khT5FlmAUWYB4y6Ud5VMoVzC9UUasYKOa5B1ZbOZtNIYidPLubU+DEKZyAnuOIbxomrDJTFY4yh6xeQbkk4LBqEc7z8uYYLnNI7PURjbfp3gdYZ3ist03qjCkXxrAsS2xWXR72EGPmob1Rgd7JPKPqeG1eQ525KKFINPsTTCZ+2j4IOEK4nWkZEsnmkVWKlBllNFriO/sqDLkGxaujpLYw31rByqU1rK4tYG2ljpYoLIQkKu5p96KO4fBTWaEShpNIaFNuznfpcuMhrIkLO1YwUZv8bJZwnnq1yM2lZVVcczKYDEWuohKOWULDSQ/eaAudnX08bHfx8L51DIedPOHkZY9JfwSLcPZNHQO3BFU1cGVOQ02bwbEGEziOaB+SGZx0rWfYCRyZcEolNOYrqBGOnqtC9mooaYQzv4LlSwS02sLach3zdYNwZHrr6XCkf/i7v/lF5IwQmkcY9Q9xeLSP7e0NbN67g412G+3HY/zmANgZZdBa0ljGsyRNlTnoYNLrssQfodM5RIfX7W89xN6jNtbvfY47t2/jk5t3qC1MtPsKhuocqq9fxsrVZbRYlmtKwoVnWTEUJFklhaXHB8iMN7E1krEdVeGVW3jjagNvrNELxCaOT/hcE7knGBJuD929EdYf+3iwCxTfuoTGWyuYX6qgyqpXor666MsA6e//9q9/IcD4gx1ucBdbuzt49PhRCmaj/RDrOzYXm0XXz6HekOg5zBuxlYIR+aTXncE5OtzF3uM2dh7cRvvODMz/fPwF2r0ctqbz8OsE88Yy3ro2j1ZJRpHKWsuKB58UyJoMLWMjY27A2+UcQQn76jKi5gqurVVxY8FAVZNSMM/kgeeN+S7xesDkCIesdPe3ErQPlBTM8psLWFii93MinTnh+bTwtPGzGBLi6a2IJS4MEPgMKdGcZTTEWgP56jwnbOLG1TqW5/IkzmTH9wodlL6X+kQMz+NwmcQnIhRcTFwqYT/LJF6E1pxHZXkJtTo9QGeVUukFOQ0ZVj+9wIXXCF1nODK/dTctyvwYqqGhvFiCXlRnt2CpR7JCnF5kIrwDik6h0ah3LEXBoFJDWNSh5nMwcgm1GcM/EnqIVZkhO8uUz1uG+SGJ3TFEaI2ZX4ZcoEnh5wwGcIcUUW4G41iHyVFv6mhwiO+pRD8lBCCzA/8V+YaCyjUROyYsXj8Yu+lIiktAaRnFRgtXV6u4yhApUukqdP8cR8S8E1GbdNc38Oi/PsXj/76F0evvwnr7fchvvIU/bGh4p8Ekzo3JMr1HPutBhdn2ErY8UecOou4d3GJI/eu9Mj58UMbP/3QVP/uzVbx5uQqFhy/7/Hw5B4mSQhKajdeKeZ+cO8MkynzKIslkGovB05mKxMoWP+Hgr6xf9IAkyxIpnvcTcn82xdOL5OK+SspiLvYurDLMkDx2fvjJM4PcnBCPAmqGcJLwiCd9iP0vNnDrn+/hs39qQ37/XRR+/keo/vgGLmk5rKk5Js5c+oyPyiHseUCz85/6JoL9T+Hv38TNvQT/sruIf9tfxF+910rHHyzpmNqsppMAOVWBYuQh59W0eRHjyXmFMKA8yDHZU9IrGitGHvk83d0owSizz6lWUa2WWRaLqJToNTpVcj6fjvxTo4B8wUBBXFdiya9QT9TrqFVLqJVmT3gJXZHj581OicsQPKmnplYfLsOgl1WxWVrCxCiiqAVoSkO2eBb2hy4ORwHDVEg1hp/vUr+MZg81sPcbezEmIXslkR4IPBRhTmUfMexlSo4SSzaXDY0aCu4A5sjE7pGD7jCAw2tnWJ+3C/Pbb89m5X9KyRCNWPkYjl0tj83FS7B5EHrBQwMdSoIRtroOdofUPcxjwssjyn9v3IM96GJsUsE74l5PjICeKjSagCPanjjw0wNpipKtJdDiMb2mkz7wuXHg4GDgs32YwZmt6Gn7nuAcL0PAEcmTitinB5mqim5zDh6FpiKxtIdDqmYbPTtIAXiRuMcUIGR+dHr7GB3u4ag7xM6QKnsSwg2p0fhHPBIc+CwacUSxmUFNZ0hmA2Q8fg5VvwDaMUMMqbH8J+4uPhuq3xOc42WIkJZVZDUKQIZlRYmxKI0gOzaGRyEO9gU/Ba1mgWpW3K9mWMUmJp0NHLVv4tGtX+Hm5/fwn3f2cGt7hH2LLQhzXJbhna810z5QZYLO9rdg7nextTnB9iHzIcO3tVJGsyU8VD5TInyPYSXYMOWxpGfzxWM4ERYIR3EmGB4GOKD4xFRO4cw3Z3ASwrG7G+j85ibWP/sYn9xuE84+4YxxYDGkUjhFShDKEJ0eGE0g9Z6Ew0IhqZhfqRCOkT7QeQLnd8RzToyeoxjs2eZh1BaxvNjCj640cXmpgQaTuWGwGBQNNEsqEzqFIktvhm1CTtWgsYEVN/llAZjygzFFcMxjhCMValDra6g0V7E418TVeQMLzGOlUpnASuwPOWeVjagh5pxJg2fBCPsaT5P+FiwVbCZFLb3BdtEZhhwssVTNCsWbpmkoVEQjSRBUggrzhjz1MN59kI6dQxt3e3V8wXH9egvvvbOA61dKyLkjSN6QlSxAxwa6HJpEELnc8ZysquKLAkoLVdywO40M7fuF85VxCbO/rEazV566G5LqohMTwou9UzzAgLu+3/bT0brUwJUfLWDxMrtwziRznpNrnp+Tv8z+nmvfc1idmFgpAXCIx+bEEL9/NdL3iB2K+9GsRELBd4ZwhhamFKbKAlVvvZj2aLPbtk9f//ycF4MR9jsC50VsBicRzybaNuyDPpvfEZMrw2KJ3kKhp+TZxPJdzyrdb2bA/wFzRc8V/TaUiAAAAABJRU5ErkJggg==;" parent="j5H0h56bUbIma8D8IlT1-13" vertex="1">
          <mxGeometry width="20.61176793107307" height="14.225022938346203" as="geometry" />
        </mxCell>
        <mxCell id="j5H0h56bUbIma8D8IlT1-10" value="" style="shape=image;verticalLabelPosition=bottom;labelBackgroundColor=default;verticalAlign=top;aspect=fixed;imageAspect=0;image=data:image/png,iVBORw0KGgoAAAANSUhEUgAAAGYAAAAzCAYAAABlnH0mAAAAAXNSR0IArs4c6QAAAARnQU1BAACxjwv8YQUAAAAJcEhZcwAADsMAAA7DAcdvqGQAABQUSURBVHhe7VxpcxzXdT2z9sz0TM8GDHaAIk2FkiWVbSVKeUtiO6qkkqrkL/kPxZU4laT8weVEZTu2KFGWSIrEQmIHZsFsPdN793TO7R5IoETIpCxAigq39Dgi0NP93j13Oed1NxMhDVf2lbNPABNi4nsIAw9B4MPzA/jy6XjwXB++P8EkleFII82RzSSRSSeRSKSRSKaQSqX4d45Mij/jyXlGGVf2/DYFRrAJEU4CeONeNMajAXr6CL3RCP1mD73jLnTdgV2ow1brKJWLaFTzmK3kkcqUoqGqKmZqBdRrKrKpBFI8q4wre347A8yEmeLC6uxy7OCkdYidZhu7LY4Pd7B3fxvHzTH02jWMai9gbnEWL66U8Y3lCjL5OWTzDdTqM7hxrYbra1UUmDlZpks6vs6VPaclp580qT1JJDM5pPNl5IoVlEvMiFIKeTCThhZGHROOl0ZYqEGpNlCdaWCh0cD8TBWNehH1cg6qwjLHOpaclrIr+3x2psdI4kzg22MEjgFbb8HoPca4u43f//JD/PYX9/HwsYHk6z/g+CFefHEJf7mm4fXVEpKpXDQURUGxqKCkZpEiMoL6GeSv7DnsXFYW2h2Eww2Egw386t/v4Rc/u4e7WxaKP/l7lH7yd3jl5VX8YFXFG8uF6Pir7Phi7SkBLTiRCJCN+ZYBR+9hZHno+Xn0kzUkciXUygXUilnksnFrvwLli7dzKg1pMymzb40jYMamS2ByBKYK5LUImCqByROYK1Auxp4CzIQjoJ5x4JhjGP0uxpaLEXKwshWk8io0gqIVYh1zZRdjn/CslDEBhgLTt2GNdQxPBBgbTiqLQNWQUfMoqhkUchSX1CpXdjH2lJAPOHwCY02BOYFhUlgmFUzUMoEpoMhsKSii+q+AuSh7CjC+UDIErgFzOMKgOYTlMYsqKpSlOtSqinIuhSJBEQF5ZRdjny5lYQyMT2CsoR4BY7vMokoRyjKBqamoKASGhCx71WIuzD4NzMRlNTMioTkemOg2TVhuAmmtiOJCFSUyshIRKfCbV5Xs4uxJYERrejZYw+DqzJaeh8NWGqadY7NX0agWUS5QvyTZX3j41QblxdlTgQmtQQRMv+vhqJ2GZSsxMDUBRkE+mYiAuapkF2efKmUTAhOYIziGCd0CWk4RbrKEYpHAVPIo5TOkyclIWF5VsouzM8CETJgJW4wD3xjBNk0MvRROwjK8rIZSqYhGmcDkMtEG5RUoF2tTYERYCiObkCaTkZk6LNPCyEujm6jAVwQYZkw5F2WMAPPFmlw7HtOZfH1N1jgJor3ISRAgmNDnXPBElj89ROwMMDw49ODaBtlYHyOdrGyShJmrAWoJhaKCMjlyjuLli8MlnmTguvBMg9e24Xo+HMom/xMT/f9vItxdrlWH2dpB7+G7ONp8gMeHHTzs+2iZARxZ9NSeAAah+zEwozGMIAUrXwUKBEbNoaymkKfiT34hyMg1Y2Ci8snS6To2J0dgGFUefy1R9PUxRhsDP3BHMCJg7kTAPCIw6z0fTXMCW1JnalNg4v2xMIw3Lke9AXSdAjOZhl+tIVXWoDJjtFwSOYqXP44LHe47CKwRvHEfpvQr28eY3nY/uvhpBI1hnrTR397ByUETnd4YHWvCYyXFnxcZOX4SZyEBlodIfE/KBUnN9LeXZxJ0LFeeRU3I1jDsYHhyiM7BNvY2H2P9/U1sbR5iv6WjZQUYuSF8meTUpsDE2RJSWNrjEYbtAUYDC14mjfRCHfl6KborqaWBXCq+M3m+yfJDgqLD6+7DONpCp9PC7sDGoTFh35q6h9dDOIZntHDy6CG2f/O/2Hr3PtYft7DVddExgjMgPqvJyqR2u3AsG8aQ4th04MrTPtPfXg44sQ9kh94zenB6+zjZe4Cde7dx753f453b63jrdhvvr4/Q6rlgm2F1eHJmsY9DiV6HCJsRMDqB0an6/UwG6cU6cjOky4UMgUmAlewzMiaekLhAgHFP9mEebRKYdgTMEZ39ETDMFgHGNdroPlonML/D5p372NhuY5PCts1jHfHmM1t8XVlLELBXmgIMs57AOMwaKd+yysux2A+hTyJldGETmO5uDMz922/j9u2NGJgNAtNlZeHhgot869SmwNADTLnQGcGieOmfsOyMkkil86g1KqhW1Igm5wlIhuP8Sian9jjYxG0HQza1Xmcip4ZCUKU/pT+6VSDPz+SRyddQWb2Opde/jbVv3sQLy3VcY2rW80lMb5A+g8mqCIjZg9ffRp9ZurFzgN8+PMGDoxG6hhfN6pPM5+JM1khJkSKDzWnIlmahzS5gbm0Fy9eWsDSjYUEBaskJcuc4MwaGtRA+gbEFGJuKnzV+lEI6k8dso4xquYBiNg2FJxHFfz4wUiwkEyzYtod+P8RJJ8U+kiKwKWh0tiLIiiU4s0SJk15E46XXcPPNn+Dl772OV28u4pWZLBZJNJRnut8TuzrqK8YJvM4GuvsPcX9zF7+828EHe4zKsRuVMsmYywFGjCU/nUNarUGpraC+dhPXvvkKbr32Mm6tzeFWNYOVAlAShz7FYmCY+qFjMOJI5UYOunToyMwSmAJmiW5Vy0MlMFkeKkF8rrsYtaEA7A1hscb3xgl0xjl4kwyBTaKUnSDD3hI4ZGC2y2NYriYKkvUFlG69gtkbN7C8UMNaOY1aPhU9NHi+xWUrugXuWnBJNIzeMQaHW2jtbuLR7iFB6eFxe4wu12S5PnsWBbToCH77YgGSeUvG0IdRxjRQnlvC/LUXsHp9DavzVayW0phlbBbOqQoRMBOPzjLJoIY9DE0XTVdBN1SBbAEzBEXLZ5GVR2GjrzzN4qVGTIw11TvZgW4O0eTEDos1WEoBeSllngEMj2Eer6O1fQ+bD9/D+3f/gNtkKL9+7wh3H/dxPGRP4NlOm/VTjUI42gWfUPswSwbtPRzvrOPxg0e4994eHq03YbFXVrQA6YQFY6Dj5FiYpgWT1IffPP/cXxEjMOJQMgNmi6sTGIPAOFn0oCJBYOqlHIHJMHr/2P7YFJixALML3Rqgmc7gqFSHlcsjz+g/C0xTgHlwFpjDCJgmSYJNnKUnnB/VAgzhC8ZwDNLQ9i6OtwnMw8e4/4ddPNpowRzrBMYnMCQBU2CGBMZi1pCZXiIR+HxGYJjeHqPUYH8Z9jG2JxiERViZKrJqEbNl6hcysvMfvBBALPppAHt4gu4hGdg6KXDHhEcdlKmyjxTYyBm5E9eInn9udgKMxzYSvoGkp0PvD3Gw30eLZUc3yah41s9W/gyPBOeTSFPsklBkQs6P63BCGN0EA4xEJVPEHBnl7EwZlVIeRZKXHLM+JU+Jxmf4ShvnSCrJSBdgxoMBxgwnI1WGnyNNLhKYihIpfillT5q4TbxHh1DN+uMmxp0DHDxqsZx00Tq0kCYwjdk8SoUJOZgOh72lM05ju19l39EIegHLNTqRhcvoGRgNWWrIkU8j+lxgolcJWKCTKpSChkq9gsZClfOsIh/UwM6IemWJDOgaVsiCVldn2bsqqEuvZObLLfHzwuyrYsmQVNlj8zTHQ4pKZoxEXVKDl6siJ0/vsxGX2IgzbFLy0OZHQ9S0bKdM2HxtubF2xJKyj72tJu7+oYfWkcMyksLcTIHAsNYTGNux0CUwuwMCgxKByWO5kkaeTdzoGzDICG1p0pzYZzMoujVJKpJSmY0llGtlNOYrBKaG3KTG8zVQqyxiaW0NK6sEZrmB5flyBEyBARbf5JOgOrOeL2R81pyfzxL37/4m7O/cQ2/9bTTX7+F/HtfwFkdqdhXff/NljpcwXyCDYPPWIgYhl5byZ1FEUrlTSHY7R+i1j9BkKTpoZrHfymD1O6/gpR9+Bze/RaaV1aNh6S72DkPsHweoTjZQCTYwGBv49dEifn24hFsvLeNH31vBG6/NMYuochjZf/RtAbdNdr4Pu0/d8p8t/Pa/mjAzFVz7hz/H2j++jiXy0SXy/FpE02O3TVwTAaWBTyY3JDPULR+2PHDy3CbnlEGwC0VkixozuBgxUJVpmTmrxMMuL9zFYHcH9372Nu7+y20YSzeBH72J7Pd/gFfracqEDGYpKcRSP/6b13/6eP0hGc06myYZzUkCR9QwFBEUloCa97joDsYnHfQ7LbTbTY5jHO1t4WDrHnYf3MF7776P3739Ad5dP8GWoeEwew21F1Zx48VFvLhWRYU9QEpIMpFhoLPWq6Te1gH8zib6vQH2E3NoatewtDqDW0sabtRzUbn5TGp+au4QsDrM2A42d3w8OEjBKtQw/80lrL08h+r0iR7RYDEw0+0ikhC7SzbXbGF7/xj7R7K29nOODkc3GkObWQ8FbrrAEk4aLJn5BN2nyhZ9Nxyg/eCQ4wieVgdeuIHU6irm2Icb5M7qVOclHcclv6cITGtIqPOoNhq4/sIMrq+WSZXTLA0uGzQFmss+5Miw40+bFzENWIYB03JJGmRTR0GqXIO2soLqfAN1ecaZjilk+fNUAVklj7KWwdys3Jr2MG6bGDQ5YUKgzWso1VXkGBBpUtokS2XiGepCdF/DNuCT7pt0+oCEZayVuRaySaKRS/E8Afuo5yOIdIxAIxudfsRGfa7N/Whtn3+4LMHxG3gEPrrGn2aJO++8FRps+ma/B5O0cuirGAYq0nkV9Vn2GI4sU1KAjLWQpDwvzkbuS+TRIT027d7QhBmyAGnL0VhbruHmahUrc/w+O0ZWxKc8fcMI98jgHv3qXTz67zs46nnQX/0uRq99DzcoLr81k8OfVXPIyGuEbGzn35SLlx4MHsFvfwC9uYn/eFDm0JAszeFv/2oVb/71Ggos/BkSigwRScm7O0qGApgQUmf51hADw0ff9ClA/7RSllVZxjT25WIJJUXEtGwpnZn7c5ayhGUZ4YSRFDKqomYeJulGea9S9soSjPRz9AvZmNyKlq3R6C4cw2QiRyXZWlOkyfJGGR0bvaNJJ0bf9wd0SosR3sSdf/0Qd/7tAZo9pv2b34XKsURqu5ZLsycwU/MkBfz/VPT9p5kAM6Fm2oB79A76hw/x88NF/PxgEZnyAv7pjXn8M0eakRwYDhIeASqyRKp5romUmWtNCqMkYFz+p3Z3n80+nlmCtF3eQxX6nhRKTv8+Me/nBCaZyxVQYPqrTP9SpYYyG0utqrG/FKEVVfYYMhmO/CdHQeX3SiiU+L0y+0ithlqtSjZURI2iVG5BK3SqXOb0CQF56XbCSA2GTegMhGMyv5Y2y7JD9qboyE+G0EcG9roO+gb1DI+RciNZaQ+6MEYj6hwXuhPAZtmY0LEBf++YZqT0EwSqINcuZ1HIuMh6XTjjATonJCUdi0SD5UZqGYNONhiTaQXpbA5KLvfp9T3TkO/FI6dkoUggEnTG8pOgfA6L4blwi6MxpJANxn243WOK2ACH1Rm05uZZ+ghMpgvF7bIkjrDVttEZsfbT+QE1lmsMYXWbpPMD9NnMBhTBFn8X8hwCjDw4Yo3GLLWT6PXEailLsmEhY7dgDrs47oyw07LRG3nwmNmfJzcu2y4JGDE6xPfIiNhn9D4ZTIg+s3RYr2KSA0qTAVKOjpFhoTXyods+fGok2S2wBx2MjnfRbbdw3BvhSHeiO6KeAMOS5Hl0uONRN02iHWxNYdkK2ANHzDJdJ9g2TkZBtKshN6UuzUTbcH7R6/kyR5fBJp9CEvjzaNAnvjzzwJ+fEgi545r6KW16mgs2dhqPcLjSZ0bYH6bR7NNRnEyDwBRYlD0UWVup4OsaKOQxoxIY/RgnW/dx/MFtbPVc3O2nsGPIFhG1CTMj5eksj13qKhOdQEPbSBN8FwXqrBT1ydjPI8yz3NYrZINkiZpypsRelElOxncwI4LEANGHLfS6DKz9Q+zc3cHuw30MM3mY1SoctgyFx2ajf2OB5ZkTu0RgaIxiASXkZ7MfoNsVkepEoIQenayUoc3UMbdYQb3oQ8uSkre30SQoe79/C3d7Cbw9KGDbVSNQ1hqk16HJxq6TEltom2lmFEvbyI5AccYMhpyGYmMGs0s1Kn+F2cQ+QKYnoFw0MAGFrIDiDFroE5R2p4kDaqY9gnKwdQw9nYVZ0mCxxwkoIhMSIYlDNn1ZpWzqgpQSZUSqtISZxgK+sTqHW2szWKLjShr1D4mEbJvM0ulyx1T+9Q1p0FmVBKWmUQdJhgRIkGWFzLQJF5HIUnFr8yjMXie1X8S1uSrWZkqoVzQK2QqKpfid0XpZgUqWl75wUMTisyfIziKmxnWk5KZZVkO+WEdtZQ1Lr72MlVvXsbI8g+VyDnU1i7zQeclmmWMomzyXZPFNNJYeZ4R23+XwYDpgWRJGw4lpZIGVEvJs4EqCrCrBujtgZB1sYHiwjnsnVY46zMws/uJbC3jj2wuoZF1mR5/CWkdnDLQ5XD9JYUlWyFEokz2Wi3QIz8kwzE7/DYKLtdilExIT0XsyLApzy7VhjA2MWjr0to5AKQDVOpKVKgNRof5RUJRnw1XlcoGJLb7c6VVPP2XDODZGy1nHTdiXJnR80MPGQwfrHzokCBlcf3Ue119ZiJ7eoWREhueRU0Wnkz94jo9PGWfJl2PxxKJ5RRZvdp7OMbLpgj/6k/9dIis7Nbm8OD8ekrZR6k7/Pp0jTegTxaHrwO6TrR2cRMwrxbKkLFSglArRzTvZ5Iwk6On5ZMg5p3+PRnS+L8s+nls8pFRxyN6hfMrgzz+eb+yhLwGYZzEJpykwDglAdwB9rw2HRAHlPLKLNar7PJv4KTBfP/sKrynOd7nvQxkA3ya3T2fYg1Ros+wZrMOismUBX25GXIx9CT3mWU1ulU2oAwzSzT7HgLSyHD9LnSuiwk4uQ1jW19G+wsDE0wop1U9fWQgTKUySLF4sYbJx+/V9Twf4P+lNL+NF97ycAAAAAElFTkSuQmCC;" parent="j5H0h56bUbIma8D8IlT1-13" vertex="1">
          <mxGeometry x="35.517350226244346" y="0.27500839207787103" width="29.611272239006382" height="14.805636119503191" as="geometry" />
        </mxCell>
        <mxCell id="j5H0h56bUbIma8D8IlT1-11" value="" style="shape=image;verticalLabelPosition=bottom;labelBackgroundColor=default;verticalAlign=top;aspect=fixed;imageAspect=0;image=data:image/png,iVBORw0KGgoAAAANSUhEUgAAACQAAAAiCAYAAAA3WXuFAAAAAXNSR0IArs4c6QAAAARnQU1BAACxjwv8YQUAAAAJcEhZcwAADsMAAA7DAcdvqGQAAAKpSURBVFhH7ZjrT9NQGMaf0XXdhboL6y4MkIERxAQ/qPGbf7x+MjEkkiiQcJMx2LqtdCvr/eJ7yvCDARuaCInpkzxrs/Ou/eU5pz1vlgpIiKXZz+jAzm6vkkqlyDfncRQfKHDpw4XnebAswCRzaQ6CkEaGzJjicM3NjjFEQIEF39Wh6zpUVYemWbBs7yaxmR+q+EC+TUwaXEOFOlLR6ajo9aeY6A4cGvbIjwvkmYCtwtIG6HcHONgb4PiniuGYUqJhNqFPAmRrMvoXMvb3ZZycjjGcmKCRMKXHBWIK/NC+58Nzyb4fPm23II8P9A+UAEUpAYpSAhSlBChK1H64gWeZcC0DjmPDdAJY9Nb1o16zZhcwzjGSFXzZRWhpWcL2hyW8etNAjkqy5HRYfJdYFilwGQFpIQs+m4PAUS8VBEagy+eYDrpQFQU9zcXlhHZsL4LIHpGHmKgaDk6A/WOgKBXR3qxiZa2MDJUwc2Hxn2IwDDWNfFmC2GyhWG9CKnAE5I+Dq6NdKIff0D3rYK9vki2YbgSQex22H4Zu4nII9AZATsxBaoio1Aqz2923Jti3QujS0jpqW9tobGzhRZlnQNPg+vIEGnkkD9BRndB2VEKOQgkp0CZTHJ0Bh+RnCyJW1itYfF4K0+HJdyfEesmbikK1gdJyG+WlFTTnWUKBEzjTCezpGKZh4NryoZG9qEVk9WgdXUAZXmHnO7DzA1hYrGLrbRMvX9fC9cN8PxBLiQOfy0MQnyE7LyLPzzGgmD21QZHop5Bpvj59BT6T6+063n1cxfb7FvJUwhY2S+khunuKn1AJUJQSoCglQFFKgKL0HwHN0ebIi+ALFSzUKlhtV9BqiigVMuG2ef9O/3fFB+Jo68xQ3yNKqLckbGxKWFstoVoUfjdmD/9/CPgFpJIvI5KsfEsAAAAASUVORK5CYII=;" parent="j5H0h56bUbIma8D8IlT1-13" vertex="1">
          <mxGeometry x="67.7308959276018" y="3.5561430010070505" width="10.451037260825782" height="9.870424079668794" as="geometry" />
        </mxCell>
        <mxCell id="j5H0h56bUbIma8D8IlT1-12" value="" style="shape=image;verticalLabelPosition=bottom;labelBackgroundColor=default;verticalAlign=top;aspect=fixed;imageAspect=0;image=data:image/png,iVBORw0KGgoAAAANSUhEUgAAAKkAAAA7CAYAAAAAe6pnAAAAAXNSR0IArs4c6QAAAARnQU1BAACxjwv8YQUAAAAJcEhZcwAADsMAAA7DAcdvqGQAAB95SURBVHhe7X0JdxvXmeUFCoWtCvtOcJMsU4tlSx47caZ7Mkn7xJ1tTjKT/zMz/YMmfWbS6Ukfu4/bjuMkk9iKFmojqY0rSOxroQpVhblfgbIWk1osq63o4Dv8CC7AY9V7993v3veqQN+YgWlM4wUO//7jNKbxwsYUpNN44WMK0mm88HGIJnWZY4xdB7ZlwxmN4Dh8ZNqOA2vkeunCB7+qehnwK1D9fgQCChR+r6gBKPxe8cHLaUzjq8YhILWIUQsjc4Butellr9dG32ij0+9gtzZEpTqEiSDCmSwzg2QkghQzGdOgp1PQM2noERVawIcocxrT+KpxMEjHA34aYNhpYHdtg7mOWnUL1dYO9hoVXL3RwZW1DnrQEF88gviRI5hNpTCfiKOcyyJ3ZN7LbCKKTMiPdGgK0ml89ThEk8qPA/ArYYS0GJkxg1hSBzGHmGLANkzUazbqLT9svw4tU0Ayl0MmT4Bmk2TTCPSggjDrfGCqeqfxjHFIubeZDrWoSTbtwej20K1cQ2fzPHZvX8Zv/mh62Y+UcOa9t5nfwrGMhqPxEMrxMMK6RnAzgwEPqMEpUKfxDHEIfALMEM1PzGPJLEt6cX4WM8UUZtNhJPQEzVIeqlZGbuYVvHrqJJZOLuH48SM4drSM2XwSOU1FXJ0CdBrPHo+BkJCswxzBHhlk1A46zTaGDp29rkNJJhFhaU9EFUSpOwNTGz+N5xBPwHMCUgu2ZWDQ7aLbaHkgdVjOlWQCkTgdPUGqkTIDyuQV05jG1xmPAalLMh0xhxiZffRbHbSqZFJ7DF88hlA2AS0WRpwOPkqFEPBNmXQaX388GqTiqcYWybSP0YAsWu+gUenCIrkGUtSr+QR0lvs4y3zEz3I/xeg0nkM8nkldgtTtwyJIewRpkyA1af7VtI4oDVJMmJTojLClKUin8TziMUxKkNoGYHRg9QZotV1Um0E4LtlTjyGT1KCHVchavawHTDE6jecRjwapS5BaQ4wJUrNnoN0Caq0wQRpFIqYjm4wiFg5CJTzFMz2Glqcxja8Uj77oedSB21nFuL2Cz//tMj74Xxfx6cfriLz7I4SZx948ge8u6PjPCxpU6tIpkz7PkAt+qLNcB449gmWaTAsjx2WOYbuHD+PhwRHzqV6qwSDCUWYk5Mk2WU2kzXgh4hCQTn40Nluwa8te/uHjG/jnX93Gb//QQPnHP/DyxJlX8XYp7KX6opzRSxliYAnOYQsus1OvYmdzCzsbW9jrmKj2LLSHslT4tEGABnJEZA65cglHT5aZM0gQpbIRIz7jRYhHgHQM16jD2j4Ha+dzfPy7bfzjvzTw4Wcm3vj53+GN//p9nD5zFKfSKl5jTvfon1dMxkJY1O5sMDexc2sFy59fwPK5C7hOI7u6N8BW25w8/WnCFwGCS8xXsXT2NL774zP42x+9gZmQHzNhnwfWFyEOgZZcT+qwslgwZempUUeXxqnrqhiE0/BFdcT0MBJaAOGgH9Pl0ecY7ojmtc+q1kCn2cL2VguVPRN9V4M/PYtkqYzZRbLgYgH5TB5aMEtTW0SxtIAjrx7D4lwRC1kd5bSGTD4PfeYIMvPHMP8Kgbl0DEuvzmPplSIWZ5PIJSLQWeeJ0RfKXxzCpOwYptXeQePKx2he+QgfX7Twq7/o+P2dNN79xbe9PPNaGXMRH+bCk4ubp/Ecwu5yKJoYGU3cWttjVtHsDOGGVTihAHxuj9nFcNDH5m0bm3dGCMWiKB1JIT+nw61uwq1tYGA5qEdnUYuWkaH2nIn6kYkEicaEl8lsCsW5DAqzGWh0wVEO6Ity3cUhIJXSYWLY2EDl3AeofP4BPrmu4P/emMWfavP46S/O4qf/7SzOnCygQO1SCDzZzJv8KRqsKaCfOMZWHTC2YXYruHCp42UfGoonX0Hh5FEU9T6KkTYCZg/L5y0sX7CgZxNYeovs+loGzu1lOHcuoTVwsJE85eVcMoITyQDm9Cfdx55AZDzeHzg+/HsO4SHYoggfW3BtA8NeH916D0PZZopHEZrPQcvEEI8EEKNmefT1zHJy0tYII8vibLdgMC22JWb0gNkxjS9CeseFY9kE6AhGy4YajSH9ygJKJ46gVM6gFA8iqThQzS7sXhMGbHT0CAwtjLFcgcZq6Jo2Bm0XRndMxvVBCyuIkCKVJyl9sk5OyUcah22RtKwR+ubk9qGvtJjwFeNgkNJJCpO6jgGzTy1KkBoWDziuTUBKjZOIqohzIop+Ofx0+Rq2NSZI7REBapgTkI5s/oZmgM+YAvWguNszBOnIIVEQpG2CNBJHhiCdObG4D9IQQWojOOzA6bUwJEi7GkFKv+CBVIhGQNohSHscJ0dA6keYgxZ4otUYHgM18ZhkZVtDGOYIPdOFadNU/zui9OBy7zY4gxpob63hyr+8j6u/eR+XxnO4mP8eNsp/g1+8XfLyVEnnbPUWMg4GqjtkO32e5wB7VQd7e3SofHaqmGDGEQr4vdc+lYmU2c3OG/PRJTM4UoKoHxR2uuQTh0xE2fJ1CIChhYExgknWmkDjeYWUV+pIhYYzEkIoGoaqKt75P9gHd49iDLNVh7FXgdFsYJAoealqOjIhIMPOd+qrGO1eQaNRw7nBAs4Z8zRQOt5ZDOBsEdj5bAXbzI7FP3DmDfjeeB15PYSZoA+ZQzt+AgkPnP06h7CGphXCnpNAd6yjmAh6qQUncuEpep2Nkp7c/fT5v0gZOsmD2joYpFaFFF9B/fYKzv3TRzj3q49wI3IUG0s/QPv4d/FfXs8xsziej+53+yFhNTEeVHiiu7h4ZYQLzKFPw9E353D07BySERU6mZga/slD3C5LkOvaMGwFQ5uD7mcJIzuE2WlP3GEcAHHMYG5tN7G+1cRurefdkyD5XIDqizI1qME48gvU8wt5pBJRz1F/WR7KsIx5mAP2XxejwQAWmXQUjkEJqjQ2LqIBMuTGNfSpOeu1Om6Ej2MtdBy5TBRnCjZOpCzc+fQW7vz+JroW++g7ryP8zmnktBB9hA+pL/3NuyFn78IeNGBUrsHYuYYbRgJXrDns+Et4cy6ONxdiBHvQK8VPNnz7wJe7jk2TQziEowRhBzjbFBVBz6j5DtxAOBikxjrGzOqNa/j0l7/H7375B1Qyx9H71o/gvv19/HApiR8eT+KVdNgDxWHAGPe3vd0qs34D7//WxPufWOj6UnjrJ6fx1o9Po0hNlePBJQ7trAPCHnKGD7xbWzqWymRHBdSJ/NAm0+WJgGq1Me7xPJkXL2/i3IUNrN6usWRObOPzASmdtC+LkFbA0ttLXs6WUsiynGRZng88bo95pHJwmFgxhHU4ahzMEZ9vo7V6Gc2r59Go1rFXOosqM8txWUr0cCTSw+qHG1j7t030bFaw77/GPI2MFkSWzSQO7SiZptSe7S20V36H1son+KyTx2/N01hVjuMnJKifkKiOZCKPJqkHYjLpXI7bqE8yGPRgBaKwgjrGwTAnnB8a++AgqXwASNlQZw0uwbWzcg3/+r8vMZfRK59E+Ht/j8Tffm+yFbqoY56UL3EoSId0poNtjDo7+MvlEc4tk/18Oo69vYBXmGkyqeha7bFTUQ5RdLLD8reHYZWd3m6i6i9gTykgosUxlw5hPhXyVg4O7fv7Q9YejSrYGG7dqWLtVg3bux1v8Y0iYH/ef92h8eDiUMNJlF8te5lN614fPNXCuXeNb585wM6FVWyeu45apQP71FnYJ88gmwlgkY5/xt/ElQ+2cfWDHYI0iPx7p5H/+9PIEqSZR4JU+ppMylLf37qC/vZlrA6SuDyax7a/jLcWE/gWsxCbMOnjOYa9SX8Dd4B+s4Pa7QZqd4iNfB5KuYxQLuPdUZyioTto2eshkE6+9LZCq5ewce0a/unX6/j1P9+B7+hrmPvhD7Dw7n/C28XJVmhJf8wccsh6I2pSq49qw0W1zhOnCk0U4kjmY54mpTQCJ9BjQniN0KERaK9fR2PlAmobG9iIvYZ1ZiJbxNmZCM6Uok8OUm+RnCWfndfpGmi3h+gPWIbkV8znAlLZJ6eKV5QQtKQOnRnev4rsqdYkxxxwp8ls4cYfN3D9k3XsbpuI/83rzDeQzwJFpYaMU8PF31BqMXt2BDM/PY0yq1iOZfrRIJWzF9YbkvXqsHsNtOwQ6m4MfZJMnhVQABrdl1eP7W/xEaM6K2Cd4NzDyv/bZu4gfPIYYm+T3Y/Po0RDJ7tccuPmw3EfSCcHJilboebWZ7h15Tp++X4L//h+E7GTp3HmZ9/HGz/8j19shWYf2NydvFYEsWs7cByHulGWKialakyzAL8Kv0KjQOHxRBekSKmT1QECyhEDxty9cgFbn/0Rm6s3sVl6BxvF7yBXnsc78zF8Zy7mtavwsPwv82Ks06We3uGc3cHFTxs491ETO9vAkfdOYfEHp1DIOki7FcSMCj7/ddXLrhPFws9fx8LPXkcuFkJOQPrA8BFI+2k7kjKGMp78EYfWHwh470rjPbJrDzM5k5hAamKQJjuXzmCLZLqFzevb+PzDHeY2Ut96HcV338LMf3gVc5Rq80xN9Xvt3q9N7z9MhnCIA5szaEix3u/3MXD9GIRTGGty010U6Rgbkh2mhzl+TB0zphi2OuhWt7C3eg3rl85j9S9/xiWC6uLVVZzfqONq3UR1QPH82CUMmckDVogmzOYWGptrWF+5hJXr1JCrBi7cCqJaIy+bbQRHLQyoc7aaBhp9uvTR49r+aw05L058YbgO9XPlNhpGG+tk49uZFLpaFGEOsuZzoTojVjG57WcIY2CwSvBxSOPKvpGrpvjxYLgWQd+Ca+ygsXsTt1av4vKFizj/50v47HeXsHzpNm7ttLFnuuiyDVugcmBMjlF0rW31YFCedXZuo3LzOm4uX8L1G6tYGXSxmtBQUccctzac2h6MThctw6bHIEk+hI37QCq/kJT3fyJI2dDAA6mCQSgJV0sgKiCNq96C8JfX2WRJR0DaRm9vcx+kF7BCkC5/TpBeI0jX67hWG2JPQMo/9eCh3B+T34xHBkHawFBAurWGjdVlrKw8BFL+vaDdRL/XxWZjiEaPIGUPHt72X3PIWe2X4TZBunML9YGANIBb6RR6eoQgVRAlSFSRMxzH0dDAQEDaH2IwtDG0XIy+tM4pjEmQjtrs7x00d2/h1tpVLF+4hAt/vojPP90HaYUgHY7R5evt+1Xil2ICUsfsYdgmSDmZKjdXcOMySebGGlaNDtaSUVQCY04eAekujHbHA2mXxyf7RvfHfSCVhsU2mDy3PnqNNtqNDkHKPxeLwx+P0aCEEJfFYIpI/0MglVnrGi3qlzp6nL1120cdY8Pkz8adLXRbdey0+tjuWOgMZcfpUSc5advnI10rlAh+lhhOgqDTIwO7aPs01JQsxtEUMqk4CikNSR5bhAMUpAH50vx5KYL9tV+t7GEX3Vod1dsVdDt9OCEVajaOoICUWkd0viL9K3LJMQnqLomHpGNQe/dtDMiG9hdUKuPO0i6L9S22u9OA0esLD8L2k3m7bXQ3tgm0GlrtAVoE0UBA/qjhmxRs+Px+ygMSGseFB8EJ0PX+DoU4lAINbzaDZCKGjBaGznMIUUcI+d1TahOwPwRSMScDmP0O2tUmmtUODJ6MS4EfSGreRbHilaQx0SX3gjPRHMBpV2Ex+zzIVrIEK5VDVFdRCA2gUux3aUykHMvFDo+t9gyfGoFCIIbiWe9kSskwkpkY/Lk8zNIcorNzKC8sYHG2hPn9N65IazzZfV3z8gXHx+3B4sRv7jaoy6swKHH0UBClXAwpTtQQQSp21tPkAhKSjjJuE99NGEYPdSEJVjKLQJNx8yogyWk0NNGr9lG71SGgfdBySWTm0ojRd0TIdj5WKtMwyXRjmAfJhQdCYEVwhqKIJNPQC0UkkjTLlCXpKPVwRi5kWcDM/ALmFmYxP1dEiZMsy7GLcYbJLuYkeGw0y35RxZ6x8QyKyezDuA+kA6LJpX5QmOEI9Sh7IOgfeyCYHOf+Z4v6sVP3ytCAzbYTRVjJDNk3gHxQQEr3zI5oEaSyxXr3HA8/V84ogtQfSZEhOOPI5KVECMm0DiWXw6g4i2h5DjNzcxOQFpIeSFMC0pfy4lb21NhkEqSDCUg31uoYtEwOrMpBjiGphz0mFc/tJ0BJZWQli9+3SUhNMmkfDYK0O3AIUiEliQlI7eEQvdoA9TvCutS1uQTSsynExHETD75ejyC10BeQktAPJxlBhvQ/q1+QGjnBNkgqsXgciXAQqUgY2TRBWl5AmWM3N1/G3GwBpUwcmWgAMdnO9RhQ/oAcG0E6aFbQuLOC7WvLWLt0EZf+ch7LV2/i8p0a1na7aLaa3lqi2aIZunOLumIV6+u7NCkD1AwXfYpo73hVDT4tj2CihEwigsWEibRvCLPuYnMtALsbQjaqoZzRvIX3u0y8/3BISMviEEeUIPLmFJzlLnVojIxekHv+I4iylNy9EfClDiESEsGYcmrY6WCvHcBaK099SKbSYuxXVhkSglcuKY8QiMIXjiOaCCKdHyORsTjpyaICNGrT0RcgnbCeEtYQ4eRPHFlEIh5GYtRBsFtn+37cVPKohzMI0JjlYn7oBO6T8cCECcckKMsYo9cMwCIOwr4wilIVtSAJ5VGrrBMpQpDSzd1ZxRZBemP5IpbPncdlgvTK7RpuEKSNdoMg3YNF87J3+xZuXlnDnfU9z0nXDMfTJyJ/fGoU/miepXkGmXgUi3ETGZYaAekGQer0SPM8ydlMFAmynZSjRwNUQg5S9ujZqebkbX4culY1FoImII0TpOytMJ/18oOUfUFJNe7RMNFk7LUCuNHMo+NkvgBpgkzkvdWRgJRVSEAa8UDqIpkdeSBtU3L16fLF4U/I8C5IWZoJ0viRBcRJMnGCNESQdkY+3AzkUQvdBalCdn3SC1Rk/EZehbZobvoC0g69gz+MggfSx0mzCZv6XbmxayRvo2PBIo8PhwRFQKMGLSFWWkRppoClsuzoBEFjz4pjUQPLuz5Tl/AY7tK+TwnDH05wAiehU1dk/TxJe4BO3487rRiGThRJ6pFCnJIh6KmMicPff/3BMTlIV5jUoFzoUPfSjIUiQZb9GAcnyPJGgPIcxnJDGtnBW9t7ZJt/rSFDyRyzmAcirFh5REpHkcyXUGSpnImpLKf7qy4CUoVMGkxAz+ZQOFbGzLEicoU40hHF234kNvZD2iVIg9Sz1P1aMQ1KXAT6TXqMGkiAaNETmLEk+51yi448LHLPNwH5o4ePTEqAyqaJyYa6rSClZASEJjIkGgG76mOl5JjKurrcTCiYEGhPYv/Y/uf/+O//EAhRbyYokjMFpPJl5Io0JIuv4uiJ0zjxxlm8duoEziwt4tTRMo5SPxQLWWST1EAs23LCof0tPR87aEwHOjb2qE83sbXVxvLGGBcbUaSWZjF7vICZvOZdhxr0s7P5Mh8/HT4pZQ+Zs54d1tm8headm6g7CXSiC0BqBksZFUeT8k7SLixqpcGQZ8gPWXl4ePXh5QiCQwlhTPAF9RwyJRLI6VksLGSQT5L92K+yYzM5delcleMR9DR9bOYIsovHUCoVvT33IkEt7yE7CXmBAM9lv5GoarfR3VzBHnXvOuXEToggn83g+IyGxaTcwk7oiObd7+NDK79rcAjbcAZNbF1hW8tddEcxhI8uIn5iHlmWwBQ1c4SSQJa2TWpoHsGE2+9afKm4jm3RM0lJZbKkyNKQK7tF3s/4NcE09imeEJdSIgfnF4BRoPvvu8TKQ4e8ftjGaPc8LOYfrg7xfy5E8a/XNbz37iLe+7sFnDiW5UykLpFkqY4IYO8K1C8FTxJk0L11bP/pEy839VexWf4ueuU38e2SjwkkqUt7wwD6BlmaJU+LKt4VUS9deMwkO0HyPwvGGDEVnrv3/wn4KIMrY0GqkCfzg8xkj1gpRxxLvlRROZ6qN47CuA+WbJZlasexO8TuXz5E5dyHuLXTwvnoO7gQ/Q5OEaTvLkTx7bJoXVZNGiBFUbwt7UOl1qhG37NNP7ONP/1qkn0ljvLP38Lsz95CSbVRcgZIkIyMoIYhU/7nQpTHRcJnTM6DeKOJIdWr4QjpnOI5qtOQJBBLppBIp5FK0uUldCRjUejRCCJhloVggMASXfLFZGKwF3yytGRh2Ouis1snxRsIxKiVFgvQNGpHowl/Y5fasosaZUVnRJfpUFg7ssPVR6fRQafVI9jYBjt4xEFx6WhdW9oEOjUVdi/IE1CR1glEdwC3vYdBcw/Nbg8VttkesezfqxcvV3jrxkF+hBHRyJzJKPuVk50TUsAic30yHPKZg8PnK2oYwSjZS48hSmDpIfYbB+5LmpJ97SNAfU4HRnuE+k4Ard0wTWkIc0WVrtyF3emhtk6d2ujDsBzCmvJq/w3tLKOPXquDdr2LXn8IQyaSlHHqaNfogmoaDRrnVkzHmAiMBenazR561QbqW2yz1cdA8EBciqefxOQ8DmXqpw9BBg/boQvvdNGs0IUODGgUyDNLOYIKCHcoAyqbPBnZuXDQorY1ZbHZ5kl32+yUhrfs1e2bMNicRenggZSaedjxobsXIUg5QP4gUhoZ2O7Crm/z5zuo0/Fumy6a7DM+TONpQ8Dm9DmEDfRbNqpbUTR3kyzFERwtKMiE6FkabWyvVdGoEnQWzexdkLKsy13F7WoLjV1Ksy4xQH9gEqT2ULa2u2TQMWokuxa9hKsp0NUhCBR0dmqo3K6iJXd/EKRS9u+BdBJfM0jFwFgeg/bIiGLGInoA+TLZOeTC12vBqjcwkFtSeBIGS5FNUe2YHfQadeyt72B3q4oaX9uUnQ0etCw5ifywTT/ZNEQdrnp3A0QVCz7OxEGTs7DJjhkM0ebZidAX8T2NpwxPShA4do+AY5VrRAhWHcGxipLuUO+aMHt9VCuskl26dTGpfI3Ig7FD0LbIiNsVVNYrqNY6aBo2egSyvMuKbONa1AR9miUjFoTLMq86xEefIG10Ua/2PGKSFYeD+EX5B8b+188Y0jw1qez7N3e9Rf0eRXvLp7EEU2fQoVMkkOqTUJM5JDNJpJUB4k4N4/Y2bi3fxOU/XcNGpY0m9WorkoKfszRKN6laJnUp5UOzCofCfRgPokeRP+obGA4VWCrbpANNp1MocJYmZev2UJ07jQPDK9t04q6F+kYb7QoJhc5cyYXhUOM7NvvTF0YgkUKylEImq0NXRlDNOvyDHWxcu41rn13H2so2GrRWzVCcILbo41lNFRs7VQeNPYPgHCKtEaR+jmnfoawLYxyjaS9kkM7EEAsF6FcevHzzawYpZ4Jced2ucpY0yZY+NEZ+NAYWAUrRHkjCrwlAU5jNxyiYWwgPt2FVb+MKAfrZRxdxZ7ePZjSFdnLGA2iGR6yB7CwAHexhGALafhf1oYmhqaDvJuCLyAkmsVCMEaCKZ8amb+j7tCHXBcjl3rYH0F69yXLNKkeADsQb+GmUEmmECyVkMjpy8RDHZeABFL11XD+3gnOfLOPKlS0PoLItrgR9SIVspCPUo3usnpUmfNSnql/uGCbBEKC2noWaK5JgYsjHqZlVWZa63+t8reVemqLDDFCox/PQi0eRmVlEuZDH0WwcM7kkktkMdBqymIh+Hkw0QOjy+bL9GY6qSMQJSE2gPkaPonRoyY12NAqhGLRCAZmlI8gtziDPtvJ6BKl4nAYvDT2RQJxtpmgKJmuAU4A+fdCU+SN8iEPL5JB7ZRblE/MozuYJyDhyiRiymTjSuRh0mmHZeg6IqaE/8Ck03eEg4jGFySaoPw3TocYMwFZi8EdzSOXyOLKYxysLWRSzCehheRccElU6QdLi97KlyzbvGsD74+B7nL5S7DOpTf0he/idmne1U5MH2rYJxqAGVaUbjUSQoDZJciYq1CV+q83n17B5dYUlYxW7bhz17Gk0cqdxtqTi7Aw1UXiEITWrwWSFQI8dY1ASKIEIU9qU/4jCNtmu4FOmyxSmTxneFVZyAYuJzl7Lyz51oh0KYhRUoURjULU4QhGCi2QQD8qdvtSwHD/JzeurHMNV7NSHqHH86hy/+byGN4tjHE+5NFs9Zp/Vz4Y/rMLHsh5gm4FoHMGIRrfvZ7sH72R9jSC9L/abnOxJTFbtJCZ/np8nHwz5DZ8l1422bsJp3sBWT8WV4SyuD8s4PRPG6VIIMwnZ6pLW7rU0aflu3N/mNJ4t2LOTD6/Pv9Sx+zLq3o/kOWOO3U24TFkKvGqUvTEspHSOXxhLeXqRydP2P93f5r2v77X5YHyN5f6+kBORnQLvKhzZAZmkfM2Pewcjs9clQO0+HeMIlT0/2l2VtB+kZg0hFaPVurt/571W2rvX5qS9h9qcxjPG3bFj+tnXZLZ7/cycPGMSd1cExN33LVTrQK0ub6kcRDEVQjYRRISsK6+YtCf5cJuT9r5o84B4PiB90vDW2PpwrC46bQtbFR9aLbnULog5gjQdm1yAMI0XNSYkA6eNXm9IkhljtypvohYki4aQS6qIilV/xviGEUDql7U2pu0GYLp0TX55H/4wiizxiaj/EVum0/jGw6vhZFNWRGfsh+VGCFsd4VCEZktFWlO8e66eNZ6PJn3S8IT6EPJmWC0K7laNpUMNIUL3F6Hjkyu0vWtFpzh9McMzWxwzmq22N34mTBZHGbswxzAcDHhjKLezPEt8syD1mNTlhJQLIVwmv6dIkftifEwxenJ+U4y+qCHQmYyhjJ2MoVy6KePnjaGM5f4YPkt8wyCdxjQeH9+wJp3GNB4fU5BO44WPKUin8cLHFKTTeMED+P9LP1e7LF34MwAAAABJRU5ErkJggg==;" parent="j5H0h56bUbIma8D8IlT1-13" vertex="1">
          <mxGeometry x="79.25647058823529" y="0.27500839207787103" width="49.061813807765475" height="17.128088844131142" as="geometry" />
        </mxCell>
        <mxCell id="NNwZ8-mP0xMXk7h3Y8-c-8" value="" style="shape=image;verticalLabelPosition=bottom;labelBackgroundColor=default;verticalAlign=top;aspect=fixed;imageAspect=0;image=data:image/png,iVBORw0KGgoAAAANSUhEUgAAAMcAAAAuCAYAAACcTg2MAAAAAXNSR0IArs4c6QAAAARnQU1BAACxjwv8YQUAAAAJcEhZcwAAFiUAABYlAUlSJPAAABKYSURBVHhe7d1VrGTVEgbgNWdwd3d3d/fgLsECCQR44oEEnni4TxASEhIIEgjyACEEC+7u7u7u7nrvfHVPzd3T0366D5dh/8lO9+nee62qWn/Jkp6Z8O9JKDVq1JgKI6OvNWrUaEDtHDVqtEDtHDVqtEDtHDVqtEDtHDVqtEDtHDVqtEDfS7kvvPBCef7558tvv/1Wfvzxx7h+/fXXstBCC5Xll1++rL766mW22WYbvbvGPxnffvtteeihh8oXX3wRHPn+++/LL7/8UqabbrqyzDLLlFVXXTVe+4V2b7rppvLBBx9Eu9NPP32ZMGHC6LdT4vfffy9//PFHvNfnaqutVlZcccUyyyyzxGdV9O0c1157bbnqqqtC0ffee6+8//774SDrrLNO2WWXXcrBBx9cFlxwwdG7a/yT8eGHH5ZzzjmnvP766+XLL78sb775Zvn666+DkNtvv3054IADynbbbTd6d+945513ykknnVSee+65cESU9vrNN9/E9zPMMEP0Nffcc4fTcBDYeOONy0477VS22WabMtdcc8VnVUz81ySMvu8JHEFHc8wxRyj/0ksvhdcussgiZeWVVy5rrLFGnTlqBJDx559/DoIiLhKL9iL8CiusENF7LJlDu2uvvXYE5R133LEsu+yy4YQvv/xyVDbzzTdfWXfddctRRx1VDj300Ajc++23Xzgkrs4+++xlZGTqGUbfc47FFlusbLrpptHBJptsEqUUD+0zEdWYhoG8a665Ztlyyy3LtttuG0ReYIEFyp9//jkQvuDdkksuWVZaaaVwNm3POOOMUT65cFOG2GijjUIOZZzLMzLGxIkTR1uaEn07x/zzzx/zCh26vJ955plHv61R439AVNFc9BZIN9xww6gwhgHOoJz66aefRj8pMadQOi266KI9cXQgq1XSo05bTYJq1EgoX3BFtB8GlFHmv1999dXoJyWyg0qn1z4H4hwUdtXOUaMbDJMr5r0m/p999lk4A6fIMqvXPgfiHDVq/D/A/EU59dZbb5XPP/88HCLnIP2gdo4a0wzsoXz33XeRNX744Ycy00wzhXP0u6VQO0eNaQaWb+15cAwT89o5atQYxSeffFJeffXVmHeAsmq55ZaLldV+UDtHjWkG6Rw2HMEqquVbO+P9oHaOGtMMqs7BIZZYYonY/XaGqx+0PFtl99IREfVbeqKlsFwO45VqOp3fdddd5dJLL43zVjZc9t57767PVuneRMrGjX7UirljmaLpZ9ZZZ42d1sZtfkcTrGnns3mwjJzun3POOUNG+jgH5gL35P25T+Ney3+pY1U26+fayAvcq23HZBrlagfPk5dt2RjStr7TlpKgUZ5WMAl1lij1cWlHG2RDFDZNXXxPt7QB9KtLQilDF/ZN+2Q7XrVvDMl6ySWXxLm8V155pey+++7lwAMPHNPZKtDnaaedVk499dQ4mmLT0bmt448/viy++OKjd/WGli5F0WeffbY88sgjcQIXGNsFlsdMduw8jgUG7KOPPirXX399nM9C9HnnnTeUzdrRVr9d1Wbntdx/+eWXlzfeeCOM4jJAosVaa60V52222GKLWOJ7+OGH43QoIFPez4ndu+uuu5aFF154so5V2Zz4ZBOkTkJbQ996663jGA3n6pZU2njttdfKAw88UJ588sn4TJ9k9h0dl1566ankaYUnnnii3H777ZP1caiPjNpwuM45ImfgUhf3cHavGSz61SVh4+2pp54K+3JAziioeSU/gpJlGDvjuGJ86U0nzm9M8bOT7dphioOHoghjPf300+W2224r9957b3xmUuNibKmKIeeZZ54QCqFFAIaX0kx+ujl4iPhWFu6+++5y6623hkEpxBH0xZiOv4s47777bhCAARic8ySQyalgZNDGM888E6c+rVzkzqjBfvDBByNqIZs61Kv2RVXEf+yxx8qnn34axqQDQzuSL0AglkHVlktgMOjIwCmtqWuzWWZrBBshEBk5A5s647PUUkvFq/ZlFIfmqgf02NJrMygnyI7wb7/9dsjMJtonK1vm53Qhq4v+dJWZBEGbZ4INmUT5TjAexv3OO++M6gEX2FXUNoZ00jfbkZ+MZOBI9NeXSsPRo7EcPMQl+pHh0Ucfjc8EU5mDDP06yOTMIc0aFFnixhtvLPfdd18Yd6+99ir77LNPELI6ONaSDaBS6uOPP45BzBTdCZTxjD5uueWWMJRSbIcddohDaQmEF2EvvPDCkAmJ9WHAlQAIiviMa5CdvnQ/2fQhgugHyTj8euutFwffMjJm9DzjjDPCQTm5Njmpk8YvvvhiONT+++8fpE0jyzqc8P777w/5tW+QEarV5E8g4cic3G8P9OEEKXkaoU2DrfwgN6ffbbfdgniCRSMQHRnoQl4OyLllPmPqbzbRTjNdOLlgKIu51xkoZGanVqBPBpUrr7wygpHAedBBB0Vw5IQJY8EhkFeQSrkGBXYltyCRwAdOOpDMQWAkPfnkk0MB5Dv22GMj1eqIo1RrX53KHlKX5wwo4xuoTplDxrjnnnvijL9+t9pqq7LvvvtGtKk6IKKqu/XLAAZCtBKh9ZNp2z0ZCTk5kohS/jYInuHkSicyZXT3qg33I48M5W8OKKMxrpIEkau1P1voBzkMCGJwWBcCNwMZOC7HEKVFylVWWSWyRSOyHVHWMxwF8di7SroEmT3jHnKyKRuzE31lESdWBaBmuoAMwA6cii0FQ+PeDFnGKGfPPPPMCECi9DHHHBNjKEhUM6gx8lm2ywb08vkgMgeZZS+BhxOCQCugVHXtFZM1UEJcffXV0QGjbrbZZkFwBEPYxg4Y1UBJW9Jw3tcOCCWKiFD6Eqk9ZzIm/eq3Cgb2GTk4KYhy6mtklhnyHrIwvBTOWTiTAUB0Dow4yqzqoNGJzDKOgfM3QnIMJHLUmXwCQVV/g4p0BlSfHJD9ZJtWoLfoJpBwQgFIGeNzdqki7ep3DkjFOcyXvDYDApCHfuQms/HhuJyETTh6K13YL+2T1UM7XQRBBJcJOBVyr7/++uEY5NBmFfrTL9nIoS9jNCikbenLFln6NuraK0ZEAfMM0cwKgoiLTDwPaTKyNEMqzfgM4307KGMooC7k6ZTyHMO2q3EZU6pHRINGVtGKA1SR8pBZ2+YDiGYiaNBaATlyRQd5EZ1M7NAK+kA27WekFnlbgSOrsdla6cMJOUmuHDVCNpBZZBBRWukmU3UCuRBEEBBA2Jvt2kVmz9CfHTrpwq6is1JKJmdvpSEH6URG/bCXoNMqK/UKtmOfQZ2nqmJEXW+gZAyRFuFEUdGasQYJ9e0dd9wRAy2icypKdLM6giyUVlqIXAZQOdMJ3RxX9l1VBtmEDVrNHyAzlmcFGHZErFZwr7IOSengvYzbSnftCgq58IEAgkuv6EYXhCaHezv1xTEEN3MugdRzuMLGfwXYXLARCGS95IksNVaMMIRJn4ipI9FZxhBpOxG2VyDQ448/Hl4uijCowe+mn4zU5kLkNDCM0gruF52QolNE8x0ZkiQcCpm10Qr5jEv0QqpmGSBBBs5g7nPCCSdEfS6it9Ld555JwnZyvmZgKySRlbvVpVNf5i/K4ozSxoS9vP8rMOjzVMDRLMaEc1iCUzsaCI1KfcOArGSFS0lkIDigNM3gnS4Ci6ZkQ2DPtYuk/eqSztFYN48V6axWqI477rjYJDVJZhPlFpvQ00Art5RQShvjg7D0VYL1ArqzAVt0i059kRNfyN1P+4OGstF8g8zASZXq/ZZt9Gd/y+0jvM0g8DyEzVJhGGBwnq4vyijjrrnmmtjZ7HRZzkUeSou4JvDt5in96uJ+DuL5YYMdTLIto1500UWxu+tf0TjllFPKWWedFRt2Mnq/QFo2GKQu5kz4YiyH0X6vSOfI+SeZOpWRrcAxBCM2D+dQCojAnAREzHYlyFhQ7YsSJptWZPJ36O2uzTffPI4aiLiOG9gPUf61Qz+6ZIkxLBvIEuZ49jBOP/30cu6558YCAHuwhd9Y26XOBYF+BjlBj0HrgkC5iDCM9ntF1TnYyjxNOdmujGwFjmE+LAAIviMUMzBZRiBuu9p5LKj2JUKrwR3tsDHVy2X92k76WIgz3mBX6/GWSW+++eZywQUXxHk0S7rszTHoZRPNteeeew7tuMVYwBkQz1hyFNew+NIJ+lZum8OaIynxBBTzjn7AKWQMbbH9CKKahCtRdNbPxK9bMKoJuL4YlKf2swLzd4TFA8vX5513Xjn77LOjrrW/o4Q68sgjYzCMQz8RbzxhnphyGjt8wZvxhj7xR8DJMi+do9/FAWWu/ST8V62MqK/taCtxRDdpn8LDAI82CbXCwbAmd5ZlewXH6meC+lfBIJovmUM4cmIQ7CP5t5SUh1btTG5l1W5LlDzeou3xhLHDF2OJJ/iSJfl4AoEtXsgcuIQTY8kc5hnpGIK38QjnyDV3WQRZeWMvEcF93RhIpxtssEGs9SO2NXNLgqlcN5D61JmeG5YTDxpsqi52kFMJIPI6r2Z+YRCypK2CTQWAzKzsWx0PxLAJN942UItzaCUtIllgkRV7qTYadekH5hi5K56wWNPreaoMtE5eyOzayJWuEasNNnHUvOpbgltGzA3BbsAw3TiTIwOOYVttQgjRL5csu80CJky5O2uv4+8AQcAknI3MtUwYDUC71TY2VXohH7sai3QUaFylGS/Icg5w2uUmv0DqGFC3Y0EXdqjq0g+aOUc3G76NYGfj49SFzU1+kKcJJs2v/rvfIKJbDRLJpGs72e022SAbtneRzoTkPLFZJlCniprObZlwckykcVbK7nk7cFr3iLyOhZi7DPJ8zjBB9syO3rMRWzTLGAn3KBlkyiRUNTp7r6QaawTuFaIyAtrMFFQ5B67gQCcowZwnsyiB1GSnR7eBsQocS+dgS8FGNiNft6VpdeUwF0aU/bkIMnmBmqIU5jmilcN3FKF8swEwMATTuMjhPQKopw2q5zhXs4wic1iSteJk89FxdMaVQZJEVTCE7xjDK6eSPjP9Jaok0kZG204ESod2XxLZZ80cPNHYl2da9SVTOCYTdeykYOQ59moMPtmOQfM9GGxzEfZ2vyudotkyatVpUq9udHGfvjvpAoKSH5H5t28RUsS1a24OqZ3GvjKwqesdO7G342+fG0+XvwUC8ndC8iF/SyNTcNhOq5f0wQn2NQd0MsRPFS6++OLgOqcwvch2Jh9Z530G0ZcasAsqVZrcqDN9Xx0ImcLk0tIXRzB3yfrT8yZuXhGBMQ1wwoAjikUAziSSMJz2fabPalRVX5ssXXfddfE9J9Y+maqgtGVSSnM6A+xAHGdslL8K+wx+lcfJEYtsDtO1Wz2ic/WYNMOrxZUcjX3JzGxrMNkICcAgOH2bQGKDLjD5rYsVLEQzkMiTZ9HIiGBsaz9E2wnykMtgs61xcaK5nS7aNh9iN2VuO12AUxoj+0zGAxc4M9lzc7baVy6Ris5sbfw5AWLrm73p4Hk88Xc74IP2nAzG0ZwasJfFgmagU9qNM19xxRXlsssui59acGplol+1aiPtOcVvyA0OgvFuhqJwLt155aGpNK93UYZxnJkiMEIaQJ1YPWCsPfbYYyoyMw7FGEv2MSgGMvtiwGZ9yWwushg0BrbLzhkQjwzViEIOl2ctPCAT+UzADJaBEwjorGQjP7l33nnneCWPvRhBg4ENCFllR0SUzfTdri/fcSYE1Kf+fCb75TFvhEsYB7bg1IKG51xIYzVGTcyxZE73kJ0zkZ09RXEOy2bD0CUhEJo3sjnCsqV+yImwnjVGmY0EPATVlxpftcCREFsQYwfy2fDVj2dlCbrQSbkP5OX8+uVcbEUn/4K634c0A33JgCNkZlev+A5+t3PEEUeEzumcLf+BhYyMSK8hyhICacGgMhrF3HPDDTeEQ+XAujzjxzyHHXZY7Fzms42o9sXRQGTK+zkY4zX7T0YQ+sQTTwzCdUrJ5lT+oxRRwvF8R1IYi9FaQbQ++uij45d2yFb9T1LaodoXOyQMMGIgtEipTaRFJMHAe30hIxuSDWEtA9MRATlIRjk4//zzY6c9y6lWGLQuVQg2HBQHyOy+rACQHleQF/H8SAqxjV3yKvnCkS1x+1vAoK/gaRFGlB8WDjnkkHL44YdPHgto6RyMJzJIzbyXoNUal+KpkHssV0rzmst7XSKADhG9MT0nGvsC93oeCKsf6a5xEut+EUAJ144YwLFEXLKLGMjZqR7Xd3VlCVGRkMztUO0r9QDP0tOrvoFO9HVxEH25PEc2Ts++dNSvNtkC6UCWFE3dO566VGHsEbmRA0C/5Ir3bO/eKq/yUoK78lljqk0BtJ89sW6Boy72T572/d+e1agxraN5GKhRo0btHDVqNEcp/wFhE27rZ4ScjgAAAABJRU5ErkJggg==;" parent="NNwZ8-mP0xMXk7h3Y8-c-9" vertex="1">
          <mxGeometry width="75.37" height="17.42" as="geometry" />
        </mxCell>
        <mxCell id="NNwZ8-mP0xMXk7h3Y8-c-11" value="" style="shape=image;verticalLabelPosition=bottom;labelBackgroundColor=default;verticalAlign=top;aspect=fixed;imageAspect=0;image=data:image/png,iVBORw0KGgoAAAANSUhEUgAAAI4AAAApCAYAAADj5BFeAAAAAXNSR0IArs4c6QAAAARnQU1BAACxjwv8YQUAAAAJcEhZcwAAFiUAABYlAUlSJPAAAAsGSURBVHhe7ZtXiBRbEIZrd80555xzxJwTKJgwgiiIKPggiKjggw8XUUFBUFRMqOiD2RfFhFkxYc4555xzuNevto+2fXu6e3Zm93Jn+4dmdabjqf/89VednqS/f0JChIgSIXEyCb5//y4fP36U9+/fy6dPn6xPfyNr1qySK1cuyZs3r6SkpFifRkZInEyCt2/fypkzZ+TIkSNy4cIF69PfKFu2rNSrV086dOggBQoUsD6NjJA4mQCnTp1Swty4cUNVpXDhwpInTx5JTk4Wwv/161d5/PixvHr1SooXLy5NmjSRhg0bSu7cuSOqT0icBAaEeP78uaxYsUI2bNgg+fPnl549e0r37t2VPFmyZJEfP35oCtu5c6ds3LhRjh8/rqozcOBAqV27tpLHDcnW3xAJiKdPn8rSpUtly5YtSqIRI0ZIt27dpFChQr+UBNXJmTOntG3bVoYOHSplypSRgwcPyvz58+XZs2e6jxtC4iQoXrx4IZcuXZLdu3erv6lZs6bUqFFDihUrpkY4KSnJ2jOVPPiaSpUqSYsWLSR79uxy7NgxPZb05oaQOAmKBw8eyIkTJ+T8+fOabvAtkIP0FAlUVO3atVOjfO/ePdm0aZMe74aQOAmK69evy+HDh7X8LlGihFSrVk1y5MhhfesOjDOVFemK4zg+VJxMhtu3b8vJkyfV+ObLl0+rJS+1AaQsqi0Uin/jce7evetKnpA4CQaqpA8fPsj9+/c14F++fFEymCoqCLJly6bq8+3bN015bn2fkDgJBrrCV65ckSdPnlifiBLHXkn5wRCN/enthIqTCfD582dNU1RVVE5USCiIs5LyAsdAHojDeWIiDn2AN2/eqATeunVLT8ZfGImkGSCVsN7kR7Y7d+78Ogbpe/36te5nB+enbHz06JFeg+MYgJs3b+pfehJuaywh/gTjyBgylvgUSBA0RRlAMow0RCPmxM+JwJ3jhw8famlGh5EbI4jkwR49ekirVq1U2rhR3DiB37t3r1y8eFGPZV9MGrmXfkLTpk2lY8eOf7h8znn58mU5dOiQkpH9zTGYtQYNGmipWKtWLeuIEG4gTqtWrZL169drVcTYTZw4UcaPH2/t4Y/ly5drA5C1LSqyKlWqyNatW61vU5Hy109Y//YE3UQaSpUrV9ZyDTbu379fW9qsvNJcogSkZQ1hkDn6AeXLl9f9IRYqwz6oCFII8fiMGzx79qyul+D+S5UqpcewIbMvX76Uo0ePqtGDbEWKFAmcrzMbUAjGCkMLiRg/usJM7qBAIFjf4ngUi87ysGHDrG9T4Usck0J27dqlAaQtjWIgf+vWrVMy8X2jRo3k9OnTuvF/Gk6oSv369bU3AOEgC2Q7cOCAnhvDhuBBSlIYs6NLly66wMZxbHQ6ue7KlSs130Ic1IcHihe4BzZUD1kmLWb0RvpmMpgtreA8KA1xwSCnhThMfCYzmYMswjlGjhxpfZsK31SFCnAjsA/VIDURPII/atQo9S4FCxaUrl27qkJAkGbNmqkqoChcGGDaCPyECRNk7dq1KoGsm0ASPFLdunWlevXquhAHKY2RI83t2bNHCct+nTp1kjlz5kjRokX1+3jAvKsyc+ZMlfn/AuXKldPgNG7cWEqXLm19Gj3wg7NmzZJt27Zp6k9LqlqzZo0sXrxY404siDuVmh2+5tgwmBvAXxijxWCjLAw4pMDbkJogAgRCXQxpAIYLhYF07I/CkLI4P4pUtWpVJZvT/bM/BDRGjdToNNaxgnNzXdItKtm6desM31Boxo1xjgXmWeKVytEVYu2Er+LQfZwyZYoMGjRIVYV8x8zfsWOHDB48WI0s5mnIkCGqRqQXNxBsPMro0aNl0aJF+oAoTr9+/aR///4RB4xUidHmWkh6mzZtVBVQrHiDZ4HITIZ4k9MPjCtKQ1qIBawxoRa8IoFPiVVxICAZBW9qh6/icCAznhtg9hNwSm38AIPLg1aoUEGDz3pIJBAM/AOqgRJxzvbt2yvZGLRIQGFIk7Cea5l7SA+wyFeyZEl9HlaKM3KjIEApYgVjy3jG41xe8CUOVU6fPn00lZjUQyDxNgSTWYLEowBeBKCsJudidCENg0VeN2V8JEBQroXK4WuQ82j7EkHBJDHkzOgNsx+PCWEmeizKxVhjJxAGxpr7cyIQcXr37q2BNqA5d+3aNb0AsxPi+DH83bt3WiKiIPifOnXqBDK4SO/Vq1c1ZUEaCJxexEkEGDWHOMaf+LiRfwFLQYbgOAjNIqkTvsRxAx1gSABxCCak8jNjduJwI5jBID4FA33u3DklTsWKFZVwscymRIc9VaEYEICxiwYQhwzB8VgUWiJOpIk4pt9hUlUQ4lB1ORWHKioSuGlTfXEto268B5ve+fv/DOKAmTW2gXGECIxlUOWBaKZAIFZkHSeiIg7BowTHHFOBMPMxk5DHizjcNN4GrwKBUBzIRs8mEnhYekgQh2vBfDwR5Il3qmJAGSS8G13T/2IjHfOc0aqDE0wqFAKjb2AnQhAQL+LE/sSKNosTUf3KAbWgozhjxgxtypGmaDwPGDDA0+CSbjZv3qxlIQaQJt7cuXPV40QyhKgaJT8vW9MSoNczZswY6dWrl7VH/IByMrCJ0ACEJBBw6tSp+jxg7Nixupk+mR8mTZokkydPVqHg1w5s+Fw7Aq9VAfoo+/bt09/owEha/5TU9HG8wIxi8ZIXoBkgXohmwdLNrRtgwFevXq1LGMgulR0daeOL7MsDqJ1XRRcUdLaZAASO+8zIjVYGSzmkBa9x8QP3jyIzbqz/odx05Zl4fu8coyHsz0vq9M7IKJ07d9af05D+7IhKcTCps2fP1hMzS1EaGnjMEi+wzsRM3r59u6oNPZ++fftGbPpxbppPLGmgVqyoT58+Xf0N3WfA+hbyzizCL7GYGisSoQFosGzZMlm4cKESiF7Z8OHDlZj2FOYEaoUNmTZtmsybN09T3rhx47Rp60RUHsdZUrMEQR/GD3gbjuPGjJn2Yj4+Cn/DIh37maacvSykJ8RiHOcKcg9BkAgNQAMmG8snxImWBgRiQniBSopuM/szqZs3b6735obAxCHoBJQVU9IUN2RXADcwazFaEAAioCQMEDfjRRxSBqmIBU4UhUDyIBxjTDN/6Vdw/XikKUDKY8abplxGbvFqABowZi1bttQ0RdxQcDOmkcB+WBFUHv/JkhAxdkNg4kAWlIbqCJDznCrgBGSDBGywmQAzoyGPVxXGvjwExCPnk4YgDcQjlaA0DDar6RDY61yZFaQZ1g3xoCgpio/qMPGJi92hMM7ElaYu/hVymWNjVhwuCBMJnkk3fgGDbNwwxEExgqY29oFgnJ+HhqSYPsjEw/FDMT7j3Z14qU0iAjWmIkI5aH0sWbJE3+QjHsQRQBpSGBXsggUL1OMwrlSwbv0bg8BVFXmPmc4bfnR9Mbk4da+8jHJAOI6BxTwAFZVfuQlheCCIx78hDErDCi0PxgNxbfoL6bXgmQhg7FBkJh+ph1iR4qlY6f4TTwoe2h2MLZOTtw+opBhfrECkNktg4iBlpCrDSN4qQw4jnRjQB4A8NPEoBSmpKTt5GC/wgNw0BIE0kJaKh43UCAH90l2I1HdzSPGMFWkdJSeGtEfwiUxqWhq8/AW5aHdQ7bL2iOfyim3gchzFIIgQCNlj8zN0yCHHcQx5lRsntQSpHjjWeB0MNgPAg3BN51uCIfzBeJKSUHFiYicF6m4mKwQKMiGj6uOECGEQ2ByHCGFHSJwQaUJInBBpQkicEGmAyD/m94V4qjJzkQAAAABJRU5ErkJggg==;" parent="WIyWlLk6GJQsqaUBKTNV-1" vertex="1">
          <mxGeometry x="631.04" y="324.49" width="32" height="9.24" as="geometry" />
        </mxCell>
        <mxCell id="NNwZ8-mP0xMXk7h3Y8-c-18" style="edgeStyle=orthogonalEdgeStyle;rounded=0;orthogonalLoop=1;jettySize=auto;html=1;exitX=0.5;exitY=1;exitDx=0;exitDy=0;" parent="WIyWlLk6GJQsqaUBKTNV-1" source="NNwZ8-mP0xMXk7h3Y8-c-15" edge="1">
          <mxGeometry relative="1" as="geometry">
            <mxPoint x="310.3103448275863" y="530" as="targetPoint" />
          </mxGeometry>
        </mxCell>
        <mxCell id="NNwZ8-mP0xMXk7h3Y8-c-15" value="demandL &amp;lt; 0 ?" style="rhombus;whiteSpace=wrap;html=1;shadow=0;fontFamily=Helvetica;fontSize=12;align=center;strokeWidth=1;spacing=6;spacingTop=-4;" parent="WIyWlLk6GJQsqaUBKTNV-1" vertex="1">
          <mxGeometry x="237" y="470" width="146" height="40" as="geometry" />
        </mxCell>
        <mxCell id="NNwZ8-mP0xMXk7h3Y8-c-19" value="yes" style="edgeStyle=orthogonalEdgeStyle;rounded=0;orthogonalLoop=1;jettySize=auto;html=1;exitX=1;exitY=0.5;exitDx=0;exitDy=0;" parent="WIyWlLk6GJQsqaUBKTNV-1" target="NNwZ8-mP0xMXk7h3Y8-c-20" edge="1">
          <mxGeometry relative="1" as="geometry">
            <mxPoint x="383" y="490" as="sourcePoint" />
          </mxGeometry>
        </mxCell>
        <mxCell id="NNwZ8-mP0xMXk7h3Y8-c-20" value="&lt;span style=&quot;font-size: 14px;&quot;&gt;&amp;nbsp;&lt;br&gt;&lt;/span&gt;" style="rounded=1;whiteSpace=wrap;html=1;fontSize=12;glass=0;strokeWidth=1;shadow=0;" parent="WIyWlLk6GJQsqaUBKTNV-1" vertex="1">
          <mxGeometry x="435.26" y="465" width="264.74" height="50" as="geometry" />
        </mxCell>
        <mxCell id="NNwZ8-mP0xMXk7h3Y8-c-21" style="edgeStyle=orthogonalEdgeStyle;rounded=0;orthogonalLoop=1;jettySize=auto;html=1;exitX=0;exitY=0.75;exitDx=0;exitDy=0;entryX=0.885;entryY=0.428;entryDx=0;entryDy=0;entryPerimeter=0;" parent="WIyWlLk6GJQsqaUBKTNV-1" source="1CRE_iQsh6xUmbvRWO65-65" target="NNwZ8-mP0xMXk7h3Y8-c-15" edge="1">
          <mxGeometry relative="1" as="geometry" />
        </mxCell>
        <mxCell id="NNwZ8-mP0xMXk7h3Y8-c-22" style="edgeStyle=orthogonalEdgeStyle;rounded=0;orthogonalLoop=1;jettySize=auto;html=1;exitX=0;exitY=0.75;exitDx=0;exitDy=0;entryX=0.799;entryY=0.054;entryDx=0;entryDy=0;entryPerimeter=0;" parent="WIyWlLk6GJQsqaUBKTNV-1" source="NNwZ8-mP0xMXk7h3Y8-c-20" target="j5H0h56bUbIma8D8IlT1-16" edge="1">
          <mxGeometry relative="1" as="geometry" />
        </mxCell>
        <mxCell id="NNwZ8-mP0xMXk7h3Y8-c-24" value="" style="shape=image;verticalLabelPosition=bottom;labelBackgroundColor=default;verticalAlign=top;aspect=fixed;imageAspect=0;image=data:image/png,iVBORw0KGgoAAAANSUhEUgAAAUQAAAAhBAMAAABTis+oAAAAMFBMVEX///8AAAAAAAAAAAAAAAAAAAAAAAAAAAAAAAAAAAAAAAAAAAAAAAAAAAAAAAAAAAAv3aB7AAAAD3RSTlMAzd27dkQiq+8yEIlmmVSv9UfcAAAACXBIWXMAAA7EAAAOxAGVKw4bAAAEjElEQVRYCb1YvY8TRxR/57PjeG2vT0JKeyelixSdFQFKkJCvSosVilBlLUUoouIUhJAoOFOATiniEzRQnRuU0ikiBdGsy3RH/oH4JGhoMNzxYcLHZN7HrMc73l37cscrZua9+f3evp1582ZtgI8gjw/8jKsHZs5H9Jfmw1voW11WlhXK52uksXKdFZ53WsbMTLjTQg+50ebma90P1eYK6gmCMLVmJvPm7YIX2vTTaIsmgrcA3llRDDTWz0XwfmW2r2jbKqNvY94mVV+dtAynZRz8i4PGF6QOX2EXvCEloZmLUK2zl4qiNVjMyC+ByZMv8rpBuIKG4B2ZB23sys9JSWjmImw32UtVYe9dS/BpzAwzWnGJR8sPse+9J211nbrOLnXTmyzCZzbtZ1Fy+zj4sYVtijDMAEofeKT62GMS6rdkBTYkfLQ5kkWws+QT3hy9BJjxPq2G49AyEGysH6NhQbWwP/MSW58VCJ+hNl0yCXaIeUp07WiI1j+me7SsBBvrYRfH5RG2XqeOXZUUHbDxjMaYZBLsEBfawh7ol/6tGXPlqgizJOijsoDlChb3utjlSAEI6WCjxZVMgh1ib10crNahdMp1FrdomC1Mr2GSeI2rNNOT1NlIWcVMgh1isMZP9HRB3jHhsmlaizBbcm3UsAaW7p/gCZMKq5PrzZPSZhLsEHeazPLVVrWT8t7iW8MmnrVIcYSvr1y59KV44rIIoJYI6eHdyEKniYxpBALYIQ7kkVXlfTPE/UqXybIIUKSEW17XrMrzFnElFQpmvS/cNSKP0qhUAnqxQ9xooUUn+f733U/3eJzSTpZFfXxpZVQfKeEv2JpUKErtQZsjmQQ7xEaX+b29h5BXTVbuOT6NYVwWGVPG2i1V7iJV7oKkQo2uAsOb7NMIbmI0hDzU59BTdda+5m6Mju5bOQu7AIzJY4hc5aBGqDJdpAA79kKwv6hNJVBivMPkkMQwq0j1bkNKmVQ2+OGpyBPjncuitw7AmDJuNFc56FGIC7x6XkdjkiSbYL+fyUVK8m3aKijoFU0QPgv5XYOhXKwxfkhsKnk6SU1ej7dCRSc6lUBPtkMcNMnESZ7ju6uceC/IWcjpzWVMEX0FPF6lmiXficFN85JTTnQ6AYl2iDu75IrrXUWhdruxf5yMbiNl8c8IQ3UxbCOySmT5eiiMWmhLkGyCHaLcLlLvuNzW6gmudRg4U9I7JpjcitapysGAt3uZyOEpBCZJNsEOUe7oHJ/ZAU1tryX5Zti5NoBgkE5F2vtrv4Wsgvod4N59+bWBFldmINghypfOkM9hg26IM1uuW7YM3+vS9AijEEzQh3N8u/H9F5By/XKSA7TPQrBDpLT3O5sdLNsDpfAgmloZf47PwSjVijBhNw46HN0OMfrqtlyn3AsRSjDHIsPhDuwQ4SvHd+kFnHeMMYNg8OAciTywvW7rDZ6UyktIPY+IFkxxZZJ6NFq1Hvfrv8n347a4LhjzOzo+fbi6d8Px9/c/jskxMOa0Yz8Sw53ugd1G/+kc2MNsRH9pNtwU1HfdKcajMP2//xf/A3iXJlHlUB7VAAAAAElFTkSuQmCC;" parent="WIyWlLk6GJQsqaUBKTNV-1" vertex="1">
          <mxGeometry x="440" y="861" width="124" height="12.63" as="geometry" />
        </mxCell>
        <mxCell id="NNwZ8-mP0xMXk7h3Y8-c-25" value="&lt;span style=&quot;font-size: 14px;&quot;&gt;&lt;b&gt;remove failed firms&lt;/b&gt;&lt;/span&gt;" style="rounded=1;whiteSpace=wrap;html=1;fontSize=12;glass=0;strokeWidth=1;shadow=0;rotation=-90;" parent="WIyWlLk6GJQsqaUBKTNV-1" vertex="1">
          <mxGeometry x="115" y="659" width="170" height="40" as="geometry" />
        </mxCell>
        <mxCell id="NNwZ8-mP0xMXk7h3Y8-c-27" value="" style="shape=image;verticalLabelPosition=bottom;labelBackgroundColor=default;verticalAlign=top;aspect=fixed;imageAspect=0;image=data:image/png,iVBORw0KGgoAAAANSUhEUgAAAZIAAAAhBAMAAAABhTCmAAAAMFBMVEX///8AAAAAAAAAAAAAAAAAAAAAAAAAAAAAAAAAAAAAAAAAAAAAAAAAAAAAAAAAAAAv3aB7AAAAD3RSTlMAVCK7zUTvdmaJEDKZq90Ryke1AAAACXBIWXMAAA7EAAAOxAGVKw4bAAAGy0lEQVRYCc1ZXYgbVRQ+k2R2k5kku2LxTRNQfFHZ0JYqXbcJFhUKsnmqFCobLVYp6C5YwQchgfqg+NB9LKJknio+JU9iEclg3wqS2Bap0nWDSKF9cNPWbv87nnPv3Dt3MjOZqSzogb1z7jnfPXO/e869d9ICbLVoK4kiFiwO+yMROh7kxXkkHkwIbTYOty0OwP3mFf68kQwei5JxUtdjsQwwV4nBmW/FAIT7KFfEDPJ7DglPoifHFzcPH3ZYEYg4kP470Xio1mJwJ3nSCiz8JGzaZl4xA+347UnogM/Fa8527hJxYGkzgA0z6E4jzKzYTpNunFpeVWyhauouM8sZFKUWCg8YOT7rdLlHjt7rBKBhhkx1FGb2bCaLuPnCYiwTOM9GyRl0YiJ77+Aax+fFvEWc6c8caxwa1v+ofSdgzpQVU2HIO1Ufk5cUhFR7s6SKGcBSTXoSKRxfFPtbxHlq2iknGJ+qNa8FYDNdxTTX4h0/E15ICozUTIVaMQNo+7iTa7JwfOemixJx5jWnPnkg86a7JTHCQ/uYNC3uSMAkx9Ir4y0mmYD3VuD4klgkN45um05LQUWpB6F3K+DzMXnFdSdgorNQkoko+ED8CAPH90eu242TsVL8VI4YJcz7YE5kU5gAVCbGfdeegAnHCia6KHgv8ETNxW9UXJQb5wSAY08cyJy5FszcC8BUJrogGsnE2PEbfHCuS1EuUcNmoO94McdGfrOwVgbz/Hb44dyrYP60c4Ug6E2dAXhub9lc29lyLRxvyARwJikk5gwIMlmexASIRfeQKpOsWOJIJgXrULqVb9DwKjVswC9d8zwVPE4vdQXS8H7uDJRWPrY0dluSF2GVqeGXlsYICzxo4jpxT45CGWCjhpGkGI4UMTf0nQUoBr8FVCZ5sQEjmbwOixegOaI3rZexofAZPBDbZFrsAvwMn8LGBYDOOy0Auq+Z9w5+8RXvt8CQFhZCXicukwOIrw6x8eSZ74VgcFf0VYD0A9GTT5VJQRzSkUx+hGUb15tG9+vYEJN+C6BUweC04C/DbnDwTayOaVszbw0zNYMZMqQF8biwcnfxBa+hbX2EkS7NkjtKMugoUKQ9b6oQlUlaXJyRTGopx3JHt+ltOAOT1rm9AnC8AZCtwIAZetghhXtXoQDMgisp8Zg4sS95TnKskmgO/TI2kdJmOAsgL1a+I2vQvY7SuB5MBJNAmXazchmbLpMM7QYqrOVV47vLqE/TsdIcoIK7knvrZLG5S+Ixk7yaMRDLCW5kXA+anbgNyBAQOhcgS98CmYbrTFEJ9j6nlluCOWFleosQXQ4psGuE9DZND2fQw+lQ1ZjOwsUPyZG5ik0Vp0eK8CLZgAX4dWIMXCbzNJpd3rQWkZLuoot9C8zYKkitrvh9AjMioXKf0P7XMFNZqlySGaoPKkL6SmReds6QZU5YeGb5dTI9y5noNo6DHtLXaS2YBIoCrQfJYzo4agn/PFGZ5FmS0Seqi8N4DXB9acifuDW7qOGAfgULFgt+WpyLpRrOhY4WqjDhBY3cbdWCmVxBGxTxj16csbBheyd/dY3lB7shZ9c+grGx/cf51UYGXMEuf1KbFWsRzaRtC3iVFGKClqm7MKC8MOmv4tVCm2ejq80KL+TJstzV6tKCFcLe/RU6iMkJ/MP5IK54D0pl1gtp8IIncfAtG7YmS8TPJP6Od7/8KNRf1OAMmhiyNzIqJsvJsxi/jnNBR+oBpC3hlRaJx0yyemS/iRCujyggu7w7Fehg1HBZ4mb8FjCug0Hr44qaE++7yxZueirVxS4E5pPfXXMDSC0Osy3YhXZ9N78zaIto9+AUSC9ZsrfhgGdx7+n9DRx3A4wmskFZ2rSgVIfOgPWCzdf8nNWdI6DhKOWjRWUiTj9z2ftXG4ylMJElBPJbOHcN3sg00gBP22D+ync/uylTN1MDkF66O02fBUp4RBmPUpkgk3XHsVFZ33Sc+joSImuIFByHDraCs+zcKIxAj8gJtMs0eBfeM5s2aVxUJm8Lo/f75Nhay9hxFu2n1563kAlB9tex2XYRu8L7GFk+USyauM3K6OD5QIXJn7j7ZkUn+lmsQV7sbET5ciJ+M/pHK0w8x9hvRs/xrzQ/k/cADicIMzWAqYaH8zFJDz2Hp4Uy6dEaj62lN+RhNT+T12gLxEtmQDtKSs6SKhZyaIAvFIRUf2daKF5ikiv+OE/At60EY7Wh+W4k7HSkZ8wx/u9dY+6H7fqZZBfmEwU4pl6MYyNOKtkac/m7aZv1/TPwQx6mt1VxvHeaRzx9onaUe7dqBlsVR5nzNkWfoOpX/vdM/qv/P/kHQqGlfOEyz0oAAAAASUVORK5CYII=;" parent="WIyWlLk6GJQsqaUBKTNV-1" vertex="1">
          <mxGeometry x="442" y="470" width="243.34" height="19.98" as="geometry" />
        </mxCell>
        <mxCell id="NNwZ8-mP0xMXk7h3Y8-c-28" value="" style="shape=image;verticalLabelPosition=bottom;labelBackgroundColor=default;verticalAlign=top;aspect=fixed;imageAspect=0;image=data:image/png,iVBORw0KGgoAAAANSUhEUgAAAMEAAAAXBAMAAABACzadAAAAMFBMVEX///8AAAAAAAAAAAAAAAAAAAAAAAAAAAAAAAAAAAAAAAAAAAAAAAAAAAAAAAAAAAAv3aB7AAAAD3RSTlMAmbvd71RmiUQQzXarMiKIuJygAAAACXBIWXMAAA7EAAAOxAGVKw4bAAADJElEQVRIDZVVPUxTURT+2vLavravEDcSkz6LC0ikm3EqUQaNA41xcmnj4OBC3U3agcTFhG6ONE4mDq2bGw/8S0gjnXTRUBNHDSAYRX6e37m377VY8lJOyLv3ft937j333HMKIBaauKbGYT9aH9mbm3Obw/kYC7+HE3ZVXb3hXg5yM7LZ3vmRP0HSQU7ro257kOohUx3zdcdbLm97s+FGrQ+5QerUTSCR8xRLdW823Kj1kZ9B6qUyYPjZr3B1FtP65YMgn40q2T1P0ZDVGUzri0dBLm6H7Hy1KwlMaFfTP2h9Juj14krTaGq3eGBC+7c+oc/bg5SPJFWCZhwC8eyFmEro0+lWB9b6ZXxeewHr/JQ6nmx6HPj+rGO1pkri7+vNwHaL6RNserxpW+uSUB6TvoowrsfGUWy+rOk6EJbNYo/kHtYMFYinhxHYDiF1wkadJXsMVCShjTbwFveRfwcs3yrpOlDsPoxC5LAEU5x8PU60g+n6prs3pU/IARnuVbSBsAT4HJNwy8DoDhfyVIqt82ajrGzTR6gHTrbDjy+eMVJa9w45WHJUpQkszAJRG44CNrmQiWbLSEEhux5CPS8a2A76HTZySEjXSYLmy+bHK5wnJfwVh5NDpkSxVUHGNOXreXPdDgWyp1i3lurYpExub7nTq69EmPjFzwzdZOKxDGIAgW4H0xGvQYtKStFwsLLNXw+2gwaIje7z49aYBDKK/StSQbY8RLePbodkQehBi4sH8mVkbD4KE5pU+xAr1lnyTLjKlMfCELri8OltrZebN4khIh9Z+aZryXQ7hN0qMmPAyBEcuYeyTJmtIenPt42CxyIkyHzbqPqI1w6PtBv+ryXIb5fU9wo33Nw2bUvd4Ss3JiH/YNK7CNc81kd8PW+iEm3piLvH9A9Fxh5lYFsO0o1ctISLZOOTuublCYwdfOqxglD+uIcgomJanO3ftX+eOmaoZGPHeJKYDQPfxmC916+uOjB9kHZ6bNFmuZ1AUGRZm7dd5uB0Myc6/CN3r1Uysx84Ode6VOMJNzhdrPJzd5VLj70jyIM+xPAetkPidDOm15rAP3yTXW8PcsuMAAAAAElFTkSuQmCC;" parent="WIyWlLk6GJQsqaUBKTNV-1" vertex="1">
          <mxGeometry x="442" y="495" width="125.87" height="15" as="geometry" />
        </mxCell>
        <mxCell id="NNwZ8-mP0xMXk7h3Y8-c-29" value="" style="shape=image;verticalLabelPosition=bottom;labelBackgroundColor=default;verticalAlign=top;aspect=fixed;imageAspect=0;image=data:image/png,iVBORw0KGgoAAAANSUhEUgAAAeQAAAAjBAMAAAC3GmRyAAAAMFBMVEX///8AAAAAAAAAAAAAAAAAAAAAAAAAAAAAAAAAAAAAAAAAAAAAAAAAAAAAAAAAAAAv3aB7AAAAD3RSTlMAEKvvMiLdzYlmmbtUdkQGq3WxAAAACXBIWXMAAA7EAAAOxAGVKw4bAAAHt0lEQVRoBc1ZXYgbVRQ+k52k+U8oouKDiRYtorKriy2odKftoqIPCVh8UdxF/H3aUKnFVmjE+qAiG7Fa9KEbKdIXcbPUH2yRDdaHCpXkRaQ+2EFFLSi7/du2tnY85565MzeZzEzSVeyhe++Z83u/uffceycF+DdowroUGubbUAs2uCHMLmtZ5TCb/14/8cv6sCTpSpiFrb8vH2KojS9cCZDDhgmwsd9hZiou5O8EGzs1OnoSuZY1OikEhX5jCWvw+LN4ee1EPsxfu5ctbg8zBDjgmjSYTVtitSdO8SuAASFDt7+b4PK5cMhJMfqrXjkXnmTCcGxsyAlLiFKyzAeF3O3vxF8GEw65ZGL43D27+4AcqciR6G3mkhb12m1SPijkbn8ZZzl9T8hb1Ig380OqD8j6RemYMZiLXaD+0TI/wcALu9tfxllO3xPyaSVi9Dw/9AMZtkvHlM0U/kYmXZfigSF3+zuBlsGEQs6c4Oh9QZ7O20ORkFv09t50xzfowu72dyNdPhcKecUIB+8L8kLNHskDdj+7CLDStB+wGxRyt78b6fK5UMiFIgfvC7I0Prz9HfaaaoA+p4xuUMjd/toqS5ChxPRhE6vrqHnCqyXIG7aX9Rs/lxOENmotL7TZyR+yvvpT2HDri2QWG6FWW71r7jcBVLPaMFMkmU2+kLP778SRRO1k0tzj//DSC2u3rtm6GW3D6KiGG25abJ+dpgS5MTT5ej5NG41NKuQZk4X+kFOwJv4BtGi0qUUyPlSFBuzFwHiTMJJj9mZAGv+FPW1ZdwBEyEkhj/+zkKhBRbGQrMazTy1/NOh1/SxAUkElTRFyohY7WQPtlBR1zvKswXJ/yO/B1C0IZgTtImeouQjZNgzRwJKW9klLzeo3y8mTu77CCXmQczltt3+yBqmy1gsybBqXZAj3SD7+F8CQOnt2WIScyufozBWXBpaqdsNllvlDngOripeVRbRL0huerUHcYPSxCz/lh5Y4gGj9IP9sACwYcJNiSmy3fwLgavvMe6QmbDVTdN4mIuBOjKAm+hyrr+cOIUeghArdZ5bn82zoD7koXCkGxPEukkWIeEbF6TwvLNUhY5kcgTL6QX4KdYlqtAjQAcXjD/A+xNsU75BJLaQobW9amATeSNLr2GA/dwgZ4FgdIENfPOApCZgnMZID2TXBWhGUwRUEx4rYZBByDP8i+I/Wcwtxa1YDOSTKKCEXnNKrkCpbpXYSF0cnFI8/wEuQqpGxTbmi5Dz9cBtgWLUVCAEE5B1NhESzAlwS56ksDPEM3ln+44hNX7MFrKB75jwFj1/CiCMAfzJyoGMVhqnAkSijhJyVMY4YpGKawzcliaF4/EE/ATEVhnMTkI5ub5UBxvBPUpYRMmQrj7VoD4wMBqtlyNGeTAlELbcaAK8iuEV8xmMVoEQ7Bc4kZZSQhaS72XPElTAUjz/gl0uu7ZrBdJkf3LUnf+ahAlOrFeI2QprlNK3Q0qQbSIU8a7LcWdiumeRaFQwuNqkIes7U8djDTQw7OlZxvnmXEBkDIR8vorVNAorXHwpVyNXR5octZKgftA5SCqTuHRuo3LBaj0NmX5kMHpq/8CX1YpaTNA3TdXpkUiHPNFkWAHm2ikua6lmcy6UGaEWIEk48VrFNWE1sOWMg5A3VLihef5g2oFBBLKZ9repx1cBkRBncTLBaP4QfY0UhyDVEJyDHsAJhR5MF1KqQw29fMGUC1zPEJvEoHIF0Da65C+Pw1y5YOEasHMoYCLlU7oLi9afbA9XRShCvGHTaJHtTFidy4TQ0tKJYFriO22xIC1uUHdWzJBVyocjSFOeQJkqv0Yku6hnIOHsRkuXoM2UUxnhPnxXxRMZAyPd3Q/H6ZxBHDDeFTQmaJpxKdahC4jZPQ/q1S5lm1JgxhfCYwTqC3GrwacoSbNU48ktq4xKB6EXiHkuHIL7VGjZv11bAu8RAi5fd/FlyFRkDIR/uhuL1j+PiSTyJ0exh8Q2Xcnnpus1fwPd4L4TnWSePW4JMp7qoZ+mmQuZ9LjWGB+ndUt/Zi5Oe6hk3BIwG2hurDr6FfXpsdMwycSOzLNrbRMZAyB+jlQKllz9aMJWqopf1aUt7djquDCJZ9gSZSNQzs52zLH8VkTqfnuoZ5K8i3/QyEhkDIVP5+0ORI+bYs+UmMaV21KQ+iJJn0qTGsn9cmEnIop6lozrL8JmUBvWinkHnAoOdPUw5YxBkfRHdfKE4I+bYa6EIj+GJaKbsOeuR0hYNVSIQbQJW/5yQSMh0tjr0ssMhUzLVJx9eHO0QmWR1o4cVZwyCnCE3XyjOiDn2ubgBUzVoGUd75OoU5ao7actLn87UhEJCHm532rlP/Du2+9yTEzdqmDBY2QsyZwyCnKIh+EJxRswpdmPh761DcluTnwPaxDYTkrgP7fuIjSTkMcPPSVvnp1Hk/F16gCV6VdE4rMgYBDlnoK0/FDliJyDg2u6blOu7DVlclnz8N+Z9FIpYfJdmKizJmIqmkw2CvNExLTpcIKNVA9UdymvdJznL9qS7CpdL20hciZdLNlH2q/1ukl69lARB/l0a9QslYUqP8H6Pa3Il/v9yv1CUxeoC8uGKrlwfX+8+/NecNj7eT4p+oezqJxjbJIz+bf8PS18o/wBa5qbwxjjJCwAAAABJRU5ErkJggg==;" parent="WIyWlLk6GJQsqaUBKTNV-1" vertex="1">
          <mxGeometry x="399.99999999999994" y="705" width="276.53" height="20" as="geometry" />
        </mxCell>
        <mxCell id="nj_hDr5_tG7QPTZRTiyw-1" value="&lt;span style=&quot;border-color: var(--border-color); font-size: 14px;&quot;&gt;&lt;br style=&quot;border-color: var(--border-color);&quot;&gt;&lt;/span&gt;" style="rhombus;whiteSpace=wrap;html=1;shadow=0;fontFamily=Helvetica;fontSize=12;align=center;strokeWidth=1;spacing=6;spacingTop=-4;" parent="WIyWlLk6GJQsqaUBKTNV-1" vertex="1">
          <mxGeometry x="527.14" y="725" width="113" height="91" as="geometry" />
        </mxCell>
        <mxCell id="nj_hDr5_tG7QPTZRTiyw-2" value="" style="shape=image;verticalLabelPosition=bottom;labelBackgroundColor=default;verticalAlign=top;aspect=fixed;imageAspect=0;image=data:image/gif,R0lGODlh7gBoALMAAP///wAAALq6ulRUVDIyMhAQEGZmZtzc3Kqqqu7u7oiIiERERCIiIpiYmMzMzHZ2diH5BAEAAAAALAAAAADuAGgAAAT+EMhJq7046827/2BoCQMTEEYirmzrvnAsz9RBBHgeIJrB08CgcEgUOgq6pANzKKiK0Kh0SmziFg9E42EKFDCDB3VMLps1psXBgkA2LIfA80yv24OPgBjjCDAsBgZ3g4SFIAl6Gw0BaxOIjYaRkpFcHQx7Eg8Dk5yddgU/in8SiEsXBokiWZ6srRaYG4hPDwtMOASqfq67vJYCEgW/GATBImm9yMkUAwoADaM0iAHNytW8D4IE1DQCOKbW4J4NA31zM3kB4eqdCAsGm0E3tev0hgIMxRYONwyhHElJttUbWKbblxEMfpkQxiGBw0UBBDg0R7DilG6wSBVodCMjB3T+FkOWQcDo1R5pb0AcE8lSigJoFDZKgEgxFo6ULXMOcXdhjgl4H0iW1EkUSACcF7pFDIHqYNGnMPowvLBAVwgkQKFqXZGn5oQ4R0OA9Qdpq1kNxDSAlGAAaQaaMcuenesowDwMSAQBSOCkhgGBbK1m0ku3sASSgCvgEGYgY9UAhAPfRcDAq+GtqL5R3QGAloUu6Sj0cZKAi+XLWk3EGlCgQOQJbfBRFECswIPTqKHalQEzt+8J3RKz6P3bt4KhLxzcLf67wesWbe0NqI1CLvNkB4jTaQNZIoADCgoIv76LgD86CaoSsM53KvldAjyaSbCyQgOs7/P3RKK9D46sg1j+AdCABBJYmX4y3BCAZrDl4NYd6TEg4YQUVmjhhRIugBuCHqADIAUL2MYhgmAtNeKJFwyAg3YojigNZNClEsIq9RRo44045qjjjjze6EwO7n0AFi4zCrZOj0gmqeSSPAKgIg4uEBMkB/W1CE4XLBYhzXhW9oJEAB9GoRSDIUSI4ZloZtglCDlwScRaLQjIJEB9rWkJDudJIY+d4DyW5wXgTbCPH39iYKObfE6CDqJ7MUDNPQqZ2NBDi02UKDLShElBAgTAwxdHMnYI5aXVoHNadoQ9cNJNIVRJKjI/9fRAAUjJ9KMch7D6qjLp2WXKAQ2EmEIFPoEZglDWmeXDXCT+mFAAAwM0gJtSU/bgBWq2clhVlhngZ1gTJ4L14AZj1XBWsCfCGR0HcE2QLVTMnJiXRuYc8BcgRmJzVgFkvrcYW47h8Boqkx24FSIoVsWDZxWAVsFoDpl2FgJEusiaaxfEVidwtd02V2O7UsBtYQmFPMHIc8liMgDKXUfZygCsW1wgK2f3W3whrhjtruahVlprPvRxQHxeFIpifKgtQivHjqg4wIYwW8TpCeaoWsENFUetkxXLSdBzDTjIp3VFfJ1wAa4VPAn12OF0Yd09F0A0Ltv0oDLNBfqO8B/dFoHl1NV/KtV1MgKAwvcyOIyHdgVCDR6Y2BvQSEQCwCo4t9b+OXjlAIvHGQvHLbmgHKUXzOh6uFCcPyfBY+NJacxukwtqOt/oqA7AAoXmkGwLW07h3+Uw2y324hQIlXUMY/o+O912j3vEMP/SAGcUvx+eyfISKBCm4PHALkX11isl3wLjIvGuBIP288GhUIBv/RVnW/ckmZACsJAHE0EkkUPUY8925xR5XgXQEaRPeS1UHZhe/8JivQN2TXtp80KyrLYX/6HBe9+z4Nim9rQJkA84JhjWBWzVLvxp0AgnHBs6HrCEBQngJWDaHSlO5rmg4ECGoOlRtViWwg0G60sn2NkHqMWUa2UAAapKohKXuEQFnMZ9DbSAAhzXgW2JwFtUgGKcFJfBKED1sALl+soCgWc9fnFlVDEj40xwYI7zBUGLW/xOaK4Io71s7Dv3qgAqYJK3IsBxi+haQfRABiKB6dF7lFlbchIXx7RBbgMK68zgHCYaL0TMYENwiAOeRID9KXJl+RBBAi6mOo3NpmOfXEFTWsPK1hjJenGIgugaeQaKyZKWnHiAGpNDRVzmRGa+LIrNggmVrxGTKEjrRQQAADs=;" parent="WIyWlLk6GJQsqaUBKTNV-1" vertex="1">
          <mxGeometry x="400" y="645" width="80.1" height="35" as="geometry" />
        </mxCell>
        <mxCell id="nj_hDr5_tG7QPTZRTiyw-6" value="" style="endArrow=classic;html=1;rounded=0;exitX=1;exitY=0.25;exitDx=0;exitDy=0;entryX=0;entryY=0.5;entryDx=0;entryDy=0;" parent="WIyWlLk6GJQsqaUBKTNV-1" source="1CRE_iQsh6xUmbvRWO65-13" target="nj_hDr5_tG7QPTZRTiyw-1" edge="1">
          <mxGeometry width="50" height="50" relative="1" as="geometry">
            <mxPoint x="560" y="760" as="sourcePoint" />
            <mxPoint x="610" y="710" as="targetPoint" />
          </mxGeometry>
        </mxCell>
        <mxCell id="nj_hDr5_tG7QPTZRTiyw-7" value="" style="endArrow=classic;html=1;rounded=0;exitX=0;exitY=1;exitDx=0;exitDy=0;" parent="WIyWlLk6GJQsqaUBKTNV-1" source="nj_hDr5_tG7QPTZRTiyw-1" edge="1">
          <mxGeometry width="50" height="50" relative="1" as="geometry">
            <mxPoint x="520.6399999999999" y="814" as="sourcePoint" />
            <mxPoint x="327" y="828" as="targetPoint" />
            <Array as="points">
              <mxPoint x="510" y="830" />
            </Array>
          </mxGeometry>
        </mxCell>
        <mxCell id="nj_hDr5_tG7QPTZRTiyw-9" value="YES" style="endArrow=classic;html=1;rounded=0;exitX=1;exitY=0.5;exitDx=0;exitDy=0;" parent="WIyWlLk6GJQsqaUBKTNV-1" source="nj_hDr5_tG7QPTZRTiyw-1" edge="1">
          <mxGeometry x="0.0034" width="50" height="50" relative="1" as="geometry">
            <mxPoint x="380" y="779" as="sourcePoint" />
            <mxPoint x="690" y="770" as="targetPoint" />
            <mxPoint as="offset" />
          </mxGeometry>
        </mxCell>
        <mxCell id="nj_hDr5_tG7QPTZRTiyw-11" value="" style="endArrow=none;html=1;rounded=0;" parent="WIyWlLk6GJQsqaUBKTNV-1" edge="1">
          <mxGeometry width="50" height="50" relative="1" as="geometry">
            <mxPoint x="510" y="830" as="sourcePoint" />
            <mxPoint x="760" y="800" as="targetPoint" />
            <Array as="points">
              <mxPoint x="720" y="830" />
            </Array>
          </mxGeometry>
        </mxCell>
        <mxCell id="WuU74TUIguQO1UHtHLNC-1" value="" style="shape=image;verticalLabelPosition=bottom;labelBackgroundColor=default;verticalAlign=top;aspect=fixed;imageAspect=0;image=data:image/png,iVBORw0KGgoAAAANSUhEUgAAAIsAAAB2CAYAAAD4FWA4AAAAAXNSR0IArs4c6QAAE4RJREFUeF7tnQnUddUYx/93tUoiQ0gZEypEClmolEqiJC2fITSJoiw0mMJXyFBRqPgapJKp0mAllamiyJBGxJcMJU0+Msd1fu/d+73nPe8Z9t5nn3PP+d6717rr/b579372s5/9P89+9rP385yBlo+yuaTvxBjKQNIwBqGO0Kg7nnR7/t338hlJr5e0qqS7OzWY6pl6gKRHDqSruwTQIrbrgaVaGA3O3Uznm0q62HTyKEm/a7DDcNL5cvqypJdJ+rmkf0mDsxKdtji8k4ZbDqR6YCnkLxxFni1Pl7STYeMpyb+vblhkscgDlHUlbSHpTknbSTpX0j6Sjo7VSS06ORPREFjqsJkPl5xvX5csO/sbodPhc1Napg4DIW3vK+npjnbTiyWdber/ONUZWuV9A2mboXRBCBNNtkH+nQCLpzZBJqtIg6XScA1Jt0ji7w6SzikWWEAv1dJ/hKQ3SdpV0vmSdqtuIrv8ZGWPkf5tSQdIOtyBzmyVRkaWw0BLYIk+nI9JWpaA/WBJ50na1kzUST5CrlH3iZL2lLSXpOMkwc9vHOitKOnfpl4RWM4aSDt2wuDNTNsg+jRaiTVGWBtKOkPSc4xW4WnkqdzPTJrDnAVX2VrSzpJ2kXSIpE8lmuU2D2prJju3myXdarRhuqnVLFdJ2sCDZgQN4zZZLWmWkKEXtkGNnyXpNFPjFEmvlvQRSe/w6slNRpDc3mzPHy7peElLJN2T11cFyfWNEZ4HCAuWPCB5Daupyn0DyyvMU82yY8uHDEi+ImlRZEG9UtKrJK1kAIJGq1MsIL5vNGOeZuG79ufF4cFpn6lwUa8i6VJJ+0paKunPkh4v6aXsIpKnn50FO5K8Yv0Xrn4MQHKgpGuMTWJ9OeHcj1pi61ybLGU3JJpxnQwxCySWtdXrdtREe0ewpGHnAMEmOJVmtpYlpO+StFrB79iLbzDaoZq7gRZrONPXyQYsgDSszBXXQyT9yQD9gXlgGUjXDiWWq84VR7BMnG8cWJdJeqGkyzPcbCLpEvNd3njs0xwy1qMSDytL3xWSTpR0ZgRJ2I1O0W6IMy6cdZ0r5QKcmBKZJye8miuYrWr2x/UkXZ8DFtQ6vo8/JBpibeMwYyLYbvsUfDj4T/jcLumzRtv40EjXtbu3IrCwJceI7lwZMdwdUOQJiPOTTydeT7bMv82pwAHiX0o0y9fN9va1c9raqXJ3aKycAg19HiPpkwEzepjxPAO+tF8IgOxhgH1jAN3Gm4So5saZMh1gMzzJHLbxFTbL14wha3mwBqu1ZRD+TWYSrJMMwR+beH0/GpFxDOCDEr/O/Yxv5+POtAdaVUNdmBjqdxjvL3zunpw+n9Cps6GcAXUZLO+XxBE+n18Z3g9OKUGWGc6D8grb6OuM44vjAEDH/2MXtJ4F9VsTXo907IClk3bYQ+zs8OwCZpx8zRVcsMOxKvVdUFoEy5g1XyZrSA8nHQ47u7tgcgFS7MIZEUuIrz0Um49G6bUIlkbHUUQcY5L7Inubs5tDnbfPwez6G0OlXbX4ZFUNuQZYOjSK4lHumPhePmHsGI4HMEo7WfogzRpg6aTMp0w1IoERlPviZ2lEBFOifl6TFFgaUoSFZBvqrycI6OPo+7UM9VHCPQGvC5v9AovLiKZ1GpPAZMAyoyGmamI8q/2QRQ2w9GOAjT1mC5BwDbAsQGkt8CFPweIEgJ5q0chsl4ClgZ5mz7Ai03aa8LxKLfDRQhfBw/dsGEmzNCmRJmn7SKsrfFTw3CCbkcBSJfSII4hIqorr6e9zL8Z5gaVv89Q3fv3A2f7ovMDiN5hp7egSyFxeytJvGj4LBiwVgiTSkKsMDzUpMMh0MC0ZCcyJda6NzNoEJjI/3HIjCRC33MgixfVGLkx9cCLcdLjTBaNZcudgBG4b/kqsDqEiWxnAbNTheZsIaxMEi48a8qnrLUebL8XmpCM/3UtMQJs3seWxgZX+BMHSGbESNEYyHlJ4ELBOnNGXMjE9nWF2koxMwTKOoSboiySGWw2kzdxjzyY5fe32PQXLKGMkSxEGLim/CF63ZUsTTJadlU7GIjcNHTewNGoy1BliKGPz2hUFqwOWx5pdEowSrnpRee669HhC+asjk+bauoElav8TFGB+10+W9K0kGvDBJqaI1BzZApjsbimqNMquTMeRVBwqDHoCYIks6/rkSK7zdpOHFmokBEqnHCUwDQ3zzPpdtUghFkZSdDoCllgjq5iMud1YW8VmMyBTA1rli5IIfKfgawE4eHZJwrOgiydYWprUdqaE7AprSXpMKi3pD5JUqRub+OjPm2B6NMup7bDU0V7MtHuCpWAwjWMoegc2GxQDIl0X+eko2C9okr+anHJ4c62WyR98dNZiASY+Y3HAEmt8Neh4imZtafBr87IY4qFJlWoL2SnRKpSsfNBEOPFeMHo5Q17x5KRkzPEojTupQ3O5AUsAzqybH/8KGbLJHoVtQoYo0nTw4gg8upwdkUToPiZ/Chmy83ZMfix4zVpxZS8yfhzOq50CS5vd1uQ6XnMSLR9o0qSx/DxNElmcAM+zkpTvJOjhL6fQjzYHjW9OJReKx0kPKC0ozVLwOJAOlXy62Cm/T+Wns9PH0sOHdF4u+flbn/a2HvNug6VMCm1JqPWp726Hc8DSnvzb66m7ou8fZ93WLC3IcwpbdyF3ECw9mr4esZqGRCjbHQSLO9KnNduVQDFY7C8L9BaQy9PnUqfd6XTsLZDxqWZxlG/3qgXOeI2BLD9gmZVd+0KsIf9eNTWvdl44a00zUIpDNZxKeEsftPZOs7QjFh8RNlO3i+OMB5Yujq6ZeVywVOOBZcGKsN2BT/KZnILFea5Dpym03Zix+hScBzlbMa/PXLBMgjn/4SzsFpOYo6lmiYa5SUxfNOadCFmwuL7vOEt0HJw1llXRPtz2RSqL/zhxN6002bUoI387gbyClruotnxT0t+SW2R/T2Jq/mE+/zR/78nQuH/q9XS8oo7LRA8yf++dM9/kPyFOp79leVciBeOzYCFE8xsmVNNOIvdQ7cXl0Inlfcw7SCKTElkKKNx15fs/hhItbxc+k5UtKytEHlFAfwFNnJlO2yxolvRLrgmPYIJjvYhyX5OKC+a4JB269DkPLqxik+IO46grrUZgGcuHCbSvveUX3jH4vCjMjvpgmYImiXOemrzf+O4S2qS/yHuP82yTBqeV1GHcx+1KmRQ/5NrjJeqzMMkKJGu/cNv9bZGlBgiI9CNktKgQhsHbUy8O6Ju0Gbyel7RfqeIMr3OTl3Gf3NCbWgOGMxM6y9J9V0BjAuqQRchbZw+R9EsbkZm3dc6zX4ilOSWA0aImLHmEVJTlOWFXxXubQ8DyI0nE9zy7mudcAH3YRCaGCLi6S/8ayIKNgy9YCG1BFoS27Ofd7UCHaFgOFmhm7Rc0AZkE7Mu4vfsNaBAKFmsbEevzhCC9IhFPhJCdweKsswIEMbOAh4HlxOTNswT+k/aMF477Fl7E/osyzWIJZu2XLyQqidDOtspJSdouBlupWVITtbp5AzvRg7clr+bl/6Z4Tac3WFJ2n7t83FkKAQshtu8x2vV7SRKiTdwZm63pAJbxIL5qMjfa1vskabSODug0pMnnJJ3gApYUceyMdaXBxtLwf0ku2xUl8de34Au6wkezeHawpgnIL91pprAUApafmIxV2IUEx5Etwrc4gGVMcn2TFcnmWbvT7I5+5ttrQH1fsDxf0nGSNpR0h+mPbE72344szExRU2DZK3F2HpAYz2sbo9PVLeELFlYF7D12tt81HvOVHAWQrvYBE7o7k3LE5WyIAR6bosCy8KKKba8TXxVaGC1xvIdmudKo3ctTiXcISw2xsw5L8uD+cKRZ3NeKkkETM80xB3YUgfbOtpCh6QMWNiiMmTniobYugDUk3eo0MeNK3mChKTshPLq28NSTO7bJ4gMWLP3NjLcYnkiHwZNEai8m3bccLonEPr6Tmu0H5+PuJt374QPpzMALrD5gwXTAO753Cmj8k50RS5NPAeDXuxi4aaKsd+dLWif1ZdNeWADKslJl4BK0jsWO8xBDjnLjQFprONrVpXOvuAqqLliONCABqNgMp7t2XFAPrYmboWrrvL3Z+WDYW4enxee2Zg59WAkCCx1sblJ64n21BVV3nk/vhXXna3vWySUOYDkNcCTr8rtTtHHo2ZQZTNy4zO+HZRZApu2HI5KEPSxnvprF5nyBJ0BySRTZSFcOpC2G1WDB28oEH5Pq14KFDFbky/MpOE6Ri7PNkiaOSmWHYstlbo4vH/5m67qABd8BS9D+GThg2AFugIK9UFYQJio77U32BYsFCc4v3iyC17NemQtqbA/GU6ZZeFiQh32bCUsxaUSwO1iOs2O0/JEajWRFtGU+06UMLE7GnBUMRHnyM1mQnGi4CLIKLNgkDI5T7LyCcFmC0lcvXPqlji9YAAmgJO//W6KAZS6nVWDBu8tSvMzsfPBepz/I4p2S8ExnC1k7SQa9Ro4tX0uz0BFnFFj1FxofDHdemihVYEGbsA7jWc4Wtqdsf8nmRF5b35IPlurngAlBwICGXU+sZagKLDgvuXdEOvlsOZsrIgPpiOFcDWzrIWcOeLebbTgeZy2wQJTOsVu4p8JLnZoqZWB5mNmtsCPjola2oO1YVm5OjGROTvMKGhJPL5e8FmUq+GqWLH20zEGJjH4aycAtAwtGLaYBvpu8U3y7k8164FmqeV0OssQXw3LM0UA6u9WhGug6DcNsFgTM4RyXmXy3Yb6gKgMLTqfHZbbzafoA2e6C8nxJ1xiAcBrLmLJ16oLF8gJoOLHnocJX5XYYO1+DlW2dzzHvE+C1fXmF7zkv4wQ+7+AW2tgtyCRbgjUL6xpGEkCJswMqh8+pA2nJcO7WmaWFLJLbSCKNOksh9oLVcKzNfEgWuKtxqLHFp6QvW7F2c/0BQbJrekZkzZKnaXhqgQFPOJPgU7JgwWeyizEJ8Fyz7AF6ztNssePFk4tM0Bj4x/hr66GZOT/CkZdXHMEyF92oVM4J9jCHez4DDa2b1SwM+I2GGOvzsoG0bDgarC0Ya2iLvJJ3Mw/QX2WAk24TS7Nk+WD7iupnLD5OsixYisaZHmPZTcTF5kFC262sgXabWYTmF0ewjBvuaXY9bM08n4hqi7AESVUG7mzTGr3cnng78bNknWZNgcXyTMp3tJ+rH8fHg+sjF2yqo4ym4YA4ayB7gYUlB4OWs5IDQ1VEYLvQ+yyu3bH8YNhhAHOdoQ3N4spbtt5QA62mYaUH15d++tU4NxkAp2k4gwVHDsYThmL9jNJzh/GaxDW/tclmXTTApsGCmt60YOvdtGYJmdSQm3JV/eBptu8mGBv5nltnzlsAytLMfZZIh7C6wVyrxDBzA0uNtaagA9z5nHflre0Ale206zJRNSl1fx8tQwPdVWBb1KVf1L5SsxAYBlAIFENVF7zQIIg/cuNzmsyBZNVlnAuMq7rqIDGHkUJkEVlAYW3GYYZTL+9UmngpNGpXwMJuj11g1UFi0KSUNMLZx1veCs+G+IEredwKj/lCJranGFH8ZevGVjK3mKnGnU+Ya+Cpfi5pwIJG4VIXguA4v6hwy64rYbbcRSkOyouvddMyuZdVGHnOKJxIAOX6SDzsLIkPT7EtLzd+gdhPwpSekwTCZjYNFnY7XFS2TiynblOVWGKwdbiCyQuf7CdLB3tlnVjGjy+TZfXDRJhHMR6lQn5b6CLbtwUL3sCTZvpvngk8p4ByVJrvLyaeGqXVdVFYsIRqk6zwXOyLjsY4u+Ag1nTGouPCc7w6eYdsy81D388piTe5vpSq5FUKFt/OSutXcRK1s/jEes5+BIEMnEJBemJbTKczAiIqn/eYfWAo35LcecGhNi09k0DV4+ayDNk3q3OjCiCUFbytxO9kC0fylEwKjJ5JMxK7VZMSqZtqMp6MuICFexfkgFtUsc/lTizhrXhGswXPKSe8Pd4JVcu+dzUaAIurDLhExPlFXmFLHRK34tr3tF4LEqjSLJeaC81cYywrXG3kJn02YSFLGLnpLpAGi6QhcSyc9E5LDyVQBha0ARmf0AiczC7WQFtqOJPzBNd+OjKRdFLvNePnwIsIQW6hER9NXe5icMGbtKixHIA9FHe/WR6BZf7aBVA4nudOBxeBCQcluo8YHSafU1DCKCgrmL82Py7hF2SKush8D9DQULHz0vVT8p52gvcgG6RftQwBCrQE91oIzi6yR8roEMuChkqnTfWWwWQbNDgDkx2YV+8FkzwrnJ1MjhROkClolrRWYafEdvq/5ncCtliGyANC8BfpS7kUTBbuojBTL4anlScngSrNwunweqm8J1uZGBObCYq7tOntMCm5AAwftsvE/XKRig/2C0FWVX126yC6MaXSGOHG0FQ1cdgbXC/MCwHhFh3OtrJUVwBpI2PcEi5Z1V9jA50Sri+BqsljSSGuJpsQh/uzSwbS1g53ErB5rjaRjPU5nlKYiAQAyhgsI63IDgdwnJHcT93AhHeS0A/PbLoQOkp4CLucnpTRAPun/MvE2+Zo5p86s6xga5Dvlrjid+UEc6NViFLkt+6VNuWXGv2Eum1V/tllCM3CyTHhHyTKybNHsD1sgHWrzMburHMT3DmG5kq8ymapmJ/U6NoYaBt9xEZkAL3ow4xEsCZYAiQx4SaR5DbhUUym+/8DQ0YsuJljIp4AAAAASUVORK5CYII=;" parent="WIyWlLk6GJQsqaUBKTNV-1" vertex="1">
          <mxGeometry x="558" y="742.91" width="60.14" height="51.05" as="geometry" />
        </mxCell>
        <mxCell id="WuU74TUIguQO1UHtHLNC-2" value="NO" style="endArrow=classic;html=1;rounded=0;exitX=-0.06;exitY=0.993;exitDx=0;exitDy=0;exitPerimeter=0;" parent="WIyWlLk6GJQsqaUBKTNV-1" source="WuU74TUIguQO1UHtHLNC-1" edge="1">
          <mxGeometry x="0.0034" width="50" height="50" relative="1" as="geometry">
            <mxPoint x="650" y="781" as="sourcePoint" />
            <mxPoint x="510" y="830" as="targetPoint" />
            <mxPoint as="offset" />
          </mxGeometry>
        </mxCell>
        <mxCell id="WuU74TUIguQO1UHtHLNC-3" value="&lt;span style=&quot;font-size: 14px;&quot;&gt;Replace A by the next most negative one&lt;br&gt;&lt;/span&gt;" style="rounded=1;whiteSpace=wrap;html=1;fontSize=12;glass=0;strokeWidth=1;shadow=0;" parent="WIyWlLk6GJQsqaUBKTNV-1" vertex="1">
          <mxGeometry x="690" y="736" width="100" height="80" as="geometry" />
        </mxCell>
        <mxCell id="69NdHWgEstdoMqLhLmfn-1" value="" style="shape=image;verticalLabelPosition=bottom;labelBackgroundColor=default;verticalAlign=top;aspect=fixed;imageAspect=0;image=data:image/png,iVBORw0KGgoAAAANSUhEUgAAAIwAAABtCAYAAABz2IkZAAAAAXNSR0IArs4c6QAAAARnQU1BAACxjwv8YQUAAAAJcEhZcwAADsMAAA7DAcdvqGQAAA6VSURBVHhe7d3HjhzVFwbwa5ucjAGDTTYm2xYYjMjIGxBCYmO/BAuEX+G/5R3Y8AAsQCwQEsEGASInk3M0mJxM5s/veg5qtTzdVTPV456a80mlqumuW1Vd97vfCfdUzbJ//kVJJBpi+cw6kWiEJEyiFZIwiVZIwiRaIQmTaIUkTKIVkjCJVkjCJFohCZNohSRMohWSMIlWSMIkWiEJk2iFJEyiFZIwiVZIwiRaIQmTaIUkTKIVkjCJVkjCJFqhF0Xgjz/+eLnzzjvLo48+Wn799ddyxBFHlLVr15ZVq1aVI488shx66KEzezbDH3/8Ufbt21d+/PHH8u2335affvqpHvfPP/+c2WM/nMc5tm7dWnbs2FGuvPLKmW/6i14Q5vnnny933XVXJcynn35aVqxYUdatW1fOOOOMsmbNmnLMMcfM7NkMiPH777+XX375pZLGGmGQyDqIZD+kufbaa8vtt99err766nL44YfX8/cVvSDMhx9+WHbt2lV27txZHn744dqpl19+edmyZUu54oorymmnnTazZzO4JX///Xf566+/qtogj2MiyWeffVbeeuut8txzz5WPPvqofn7ppZeW2267rVx//fXlxBNPLEcdddTMkfqHXhDmu+++Kx988EF58sknyz333FM79eyzz65kueWWW8rFF19cTdMhhxwy06IdEOe3336r5/n888//I8wbb7xRFe3kk08uN998c7nqqqvK+eefX0nTV6z437+Y2V60YAKOPvrouv3DDz9Uk/HJJ59UU8IkrVy5shKGuZgLli1bVs+h/bHHHltOOeWUSoxzzjmnHpuihH9z6qmnluOPP75u9xG9IQxfYvny5dWUIMr7779fvv/++/+IcsIJJ9TO1vmWNrC/Y1Mox0MSRHRMfzu/c1mvX78+FWaxQDSks3QcE/XFF1+UL7/8svogTNTq1avrdzq/CyAQ8jgv/wYxzzvvvEqkvqJ3hNGB3LJvvvmm+hx8DNHNSSedVKMl5oMadQGEYQoRkKpRsLPOOqscd9xxM3v0D70iTEAHIg41ee+998qePXtqLoWfcfrpp1fydAnnQxy+DYU77LDDZr7pH3pJGEQxyimNqIa5oDgIwyn1HXVom9CbDc7Hl6Ew4Uv1Fb1VGISINYiaOKZGP6LI0OrgLhBRVJyzrVO9mNBLwugwnRcjn7JI7lEaiTjfMx9htuarCBFFNSWL6/n5558rgb/++uu6lufxuZwPn+urr76qqsiU8o9877surnc+6CVhAm4u38KN3rt3byUME6VDusjPzBXIIrko9N+9e/d/GWNktrjWl156qSYIRXmuW27J7zgY1zuI3hMmIiIdYaR+/PHH9ebHjZ9PfmauCMII+6mLZCOSUBTEoSo+s581woj45Jhcb9u5sS7Ra8IE+CzS9/wXo3nS+ZlxQATXwAQxjZTj2WefLa+//nolNZLLJLtmRJIaoIz2E7YfzDxPf935ATBLiLFx48ayefPmGikhzMsvv1yXd999t47qSYPKUQoKh8SiNdMIiMop52dRGApiwlQKIMwmEiH8IKnjeH4LQvGHDIKmEEUioaXplOKSUJhBuPkgEzx4g5Fo0iMXUZyXGUIEREYQn73wwguVEDfeeGOdZZfP0YlBIFMO5557br3O+A1xPAvCUS7mtelsORPX1pleEgoTcDMvuuiiWo6gXsao5Uu44W72pBEjWsdQFx3LR4lwnwk688wza/EXUlhsm2648MILq0p2WTpBVanr22+/Xf0n5EGiUVhSCqOjdIxOMzrByOLDXHLJJTVymiQ41cJ9xKUwSKpEgiOOTAihjoeKuFbXhjTIpY1tpiycc99TKZlrvpDFfj5vAqr00EMPVcJQMYvri9zVgbCkFMaNdjORxkhFFM4luV+IyENn81midJQPwvfgh+h06hIdPkwuxBDVDZqNOB5lokRtpyWo22uvvVYX202wpAijgygLJ1G0RH5vuOGGctNNN9XROWnobJ0eHS8fFFMXSERZIg2wEOC/ReLQNSEnEo7CkiIME8Bmk2IdI0Tl0yyUwoTCIQuyRniNxNQhfJdxiI5Gesm9pj4YUyxs11Yb7Z2b70JhYoJ2FJYUYdwoZZzvvPNO2bRpU632J+cLjYhOdJA8i05sQxid/Oabb9anJe67775a/O444+Cc7gGSafPMM8/Uz8CsvmOGbzcblgRhjD4jyk0h/+y8EJX/shDKMozIn1hshy9iGWUSQlnMM9mmCpJ9phf8rqb5FKE6sxzhvUHDJDXBkiCM0WdEeRyFryJ5JynWxGZPAuG76PxwvhF32KkdRiiLttRIagBx/L4wLaPCYsenZKJBa/dCyE5tL7vssnLBBRfUezIKvSaMjok8C7/FDfWsUpRRjuugpggTY+RSjHEjPZSC8uk4zi7CRHQ0DhE9IZtzO94oogQcXxu/2zU6jnNTWwPItYyLsnpNGDLtcRCSzclV5W8ZzJZ2gYi+SDwSjBvpsb99dBSlEDaPA5JQAb8BnAvh/Ta/p+kAQGwqJVknOmvqO0EvCRM+gpvCb3FjyK+RRI7d+FHJqbbgtFKxptGKUcxfoXbmt/hS40wBaEcFkItC+V3a+W2Uo6lCIUzMlKcP8y+GnVw3A1ma2Oi5IJTMfBDyjBvpOonf4BFbi22fNUX4MswttWz7u8IkOo52SLgkCRO+hJEn3a0sQFpdyr2pjW6CmBMyQoXoMqVmmp1XHmPcSNc5MW9kaTPCIeaAqAR18duoBhKEP+M+DJvGuG4KbAHmjNpS5Gg/Cr0iTPgGRh6/xQ0wej0kjyxdITpE4uuBBx6oz3NTFqN1IaIu50JQ0RGymVbg1EceJe5DbAfiuq2Ztbhe+2m7ZPIwMXKMEj+aKQKjL97iwMa3RRzX6JXziCkFivLUU0/Vh/+F687JaeQ8LkRqP67LYhsBKIPFZ0wyBXKd7oXrRpRA5H2Qxr4GFrVExHGZ3l7MVsfIUSP74IMPVlOkhEFdyXzmZ+K4yEL++UWU64knnij3339/VRZZU2S87rrrai7DiJ80aQwMM9zIEc4uH8gAkS6gPK5NXbB9kcD3Ebr7PTGXFr4PEmlLrUZdfy/e3mB0uAFPP/10uffee+sNMqHIGeSzuElzgQ4xasm07KqRytwZva+++mr9jP2/5ppryh133FFf96ED2vgjcwGymOKgDDoZUagbs+v8zJOBY40o5sq87IivM9gemQwo7ZCJ6tgepca9IAzHky/x2GOP1UhFB0f4LFppEmoeCCH3/ADEYZosnE4k9b1zmPFGGL6SkdpFMnAUmI5wUA0IBGUSbTu/7ymixVOfyKDeB7EG2/td1ER7xNfW9qgB1gvCGPFG1IsvvlhzL+Mct66ggxCG+du+fXud+Z4GBNEpIP/KgHFtXTwi3AvCGPFGE4k1HTDOcesKlCQcSEXbQvhpAFPK9xLmM9UUo6u3SowkTEiXdXjkXSBuNFsZ1WeJ7sBsIouBZAAxO3wVajhfjCRMOEeiA4xFmi4QUj5Yw5roDjLPwmlKyxmOQdnFdEivEneJ/eCzMEMc2Cgg72ruLE1SDyH6iUlQyTn3uissaqeXk8tcWicmA2Wsg1jUhBFG33333XWdmAweeeSRma39SB8m0QppkhIj0cokpdObGMZIwmQeJjGM9GESrZAmKdEKi9rpTSw80iQlWiEVpkOYGTbxpwSSGRcoSNMrYFL+EM9OM8mD0AXqV7TRXnGWmWZuAHOtvTkh664mEeeKJEyHUL7p+aR47ERJp2IuJZLbtm2rhVaiw+ESTsRALiWV2r/yyiu1VlhFndlm7T3wZt1VmcJckSZpAtD5yOLZKK9TVWuseBwhqNA4xIN4itpjEnFasOTeojlJMBWivqi8oxDMC3PDlChkUmvMNA0iyhF8700OZpgpEzN266231pphOSsF2o4zbNIWEkmYDsE/YS50qA7nh0RKIgqulUp6FGUQCKNNJDQRTDoDeZAlHoVlyg4mWSBN0gQQnU8RvC7V4x0KspkZBJoNiMKcaU+J+CtINk1IwnQISoIQ1ITp0OEbNmyo5oR58kRDFKvbZxg+o0xKK6lLEqbnoA5MiU5nQhDFs93eHMGcIIpaW0pzIGcWqbT3HXVq896WhUISpkNEhwdhmCKksfYEou9FPp6j4t8MY7g90jBt04QkTIegMHyV6HBPGup0i22dT13kWA5EmFAoiT+K5Bhd1uN2gSRMh+B7xLNAOlpmNiZYvWZMdORBeSqDFMMTuv7WFnGi6v9gR0XDSMJ0CFEOs2KxHWCOwpfhFEvgyc8gxuB+iwFJmA5BLajEsHIwLd5jFy8zZLa8kkQ22FOKgUjgWWxPI5IwCwCZW86vhYni4/Bjhn2ZyN9Yps0UBZIwHSASbpSF3yEUphIB/ozpgHiPC0LEG6L4MnwfJHIM5IpZ7WlEEqYDRMJNh5tHEhUhzjA4wUwT4oiWzErzZTi6Zro9QM9Bnsb8SyAJ0wEif8K8UIfZ3ooZvow3ZyKYV3HwY7SVAY5wfBrzL4EkTAegENL+ip+8g0VK/0AKgQwmEiPzyxyJmII4HGDtpjH/EkjCdAAmSdpfSh8RdPiBquKQQdY3/vMagii08so1kdM0518CSZgOMFv+ZRiIEFlfazC35P8+Mkvj2k8DkjAdYLb8yzCoh7Ca2aI0HOR4K+e0VdbNhiTMQUD4MkhDWTxhyqxNc/4lkISZByJ/IjpiSppmaBFGtOQt5VRJe3Uvwu6D+URAEyRh5oHIn3gXLsI0VYjIx1iQJ3wbr0W1Pc1IwswBJhCZEW8D90SAR0M4r0Jr4fFsFXUBaiJX438gKPSWqBOKT3P+JZBF4HMARfFWC/+cYteuXfUNWFFFJ3RGCCn+2corY5KROZOwQx6vnzfXNM0hNaTCzAFMEYURDpsPslbjYgZ6VM1uIAgjYmKGEEaG2N8+n2bkk4+JVkiFSbRCEibRCkmYRCskYRKtkIRJtEISJtEKSZhEKyRhEq2QhEm0QCn/B1nBUFCmZWttAAAAAElFTkSuQmCC;" vertex="1" parent="WIyWlLk6GJQsqaUBKTNV-1">
          <mxGeometry x="658.39" y="957.5" width="83.23" height="64.8" as="geometry" />
        </mxCell>
      </root>
    </mxGraphModel>
  </diagram>
</mxfile>
